<svg width="804" height="207" viewBox="0 0 804 207" fill="none" xmlns="http://www.w3.org/2000/svg">
<mask id="mask0_83_4" style="mask-type:luminance" maskUnits="userSpaceOnUse" x="126" y="0" width="551" height="72">
<path d="M126.569 0.0431976H676.406V71.0309H126.569V0.0431976Z" fill="white"/>
</mask>
<g mask="url(#mask0_83_4)">
<path d="M671.331 5.51147V0.212349H148.12V23.9239H158.524V36.7405H127.204V65.6513H132.46V70.8978H671.331V65.6513H676.589V5.51147H671.331Z" fill="black"/>
</g>
<path d="M173.037 9.44353H178.24V56.4202H173.037V61.6167H141.704V56.4202H136.451V45.9744H146.907V51.1682H167.781V14.6927H157.364V9.44353H173.037Z" fill="white"/>
<path d="M221.887 9.49622H227.14V56.4673H221.887V61.6666H190.567V56.4673H185.364V9.49622H195.771V51.2209H216.683V9.49622H221.887Z" fill="white"/>
<path d="M270.806 14.6927H276.059V25.1385H265.602V19.8976H244.689V51.1793H265.602V40.789H249.943V30.3461H270.817V35.5398H276.07V56.4313H270.806V61.6278H239.486V56.4313H234.283V14.6927H239.486V9.44353H270.806V14.6927Z" fill="white"/>
<path d="M319.724 14.6927H324.978V25.1385H314.521V19.8976H293.606V51.1793H314.521V40.789H298.861V30.3461H319.736V35.5398H324.989V56.4313H319.724V61.6278H288.416V56.4313H283.202V14.6927H288.416V9.44353H319.736L319.724 14.6927Z" fill="white"/>
<path d="M368.69 9.44353H373.894V19.8976H342.577V30.3461H368.69V35.5398H363.434V40.789H342.56V51.1793H373.88V61.6278H332.115V9.44353H368.69Z" fill="white"/>
<path d="M417.606 14.7426H422.81V35.5925H417.606V40.789H412.353V46.0354H417.606V51.2347H422.81V61.6777H412.353V56.4313H407.15V51.2347H401.897V46.0354H391.49V61.6777H381.023V9.49622H417.595L417.606 14.7426ZM407.15 35.5925H412.353V19.953H391.479V35.5925H407.15Z" fill="white"/>
<path d="M466.475 9.44353H471.673V61.6167H450.799V56.4202H445.612V14.6927H440.356V61.6167H429.953V9.44353H450.827V14.6927H456.027V56.4202H461.283V9.44353H466.475Z" fill="white"/>
<path d="M515.378 19.9392H520.581V61.6666H510.174V46.0244H489.261V61.6666H478.816V19.9392H484.069V14.7426H489.273V9.49622H510.185V14.7426H515.378V19.9392ZM510.227 30.335V25.1385H504.974V19.8976H494.526V25.1495H489.325V35.5398H510.238L510.227 30.335Z" fill="white"/>
<path d="M564.258 9.49622H569.511V56.4673H564.258V61.6666H532.938V56.4673H527.735V9.49622H538.15V51.2209H559.065V9.49622H564.258Z" fill="white"/>
<path d="M613.174 9.49622H618.427V25.1385H613.174V19.9392H602.767V61.6666H592.311V19.9392H581.854V25.1385H576.651V9.49622H613.174Z" fill="white"/>
<path d="M662.087 14.7426H667.34V25.1385H656.884V19.9392H636.012V30.3849H662.081V35.5814H667.335V56.4313H662.081V61.6777H630.754V56.4313H625.55V46.0354H636.007V51.2347H656.884V40.789H636.007V35.5925H630.754V30.396H625.55V14.7426H630.754V9.49622H662.073L662.087 14.7426Z" fill="white"/>
<mask id="mask1_83_4" style="mask-type:luminance" maskUnits="userSpaceOnUse" x="226" y="77" width="325" height="43">
<path d="M226.563 77.1702H550.135V119.929H226.563V77.1702Z" fill="white"/>
</mask>
<g mask="url(#mask1_83_4)">
<mask id="mask2_83_4" style="mask-type:luminance" maskUnits="userSpaceOnUse" x="226" y="76" width="325" height="45">
<path d="M550.688 76.7099H226.027V120.012H550.688V76.7099Z" fill="white"/>
</mask>
<g mask="url(#mask2_83_4)">
<mask id="mask3_83_4" style="mask-type:luminance" maskUnits="userSpaceOnUse" x="226" y="77" width="325" height="43">
<path d="M226.563 77.1702H550.135V119.929H226.563V77.1702Z" fill="white"/>
</mask>
<g mask="url(#mask3_83_4)">
<path d="M226.563 77.1702H550.18V119.929H226.563V77.1702Z" fill="black"/>
</g>
</g>
</g>
<mask id="mask4_83_4" style="mask-type:luminance" maskUnits="userSpaceOnUse" x="234" y="66" width="311" height="62">
<path d="M234.652 66.2031H544.691V127.133H234.652V66.2031Z" fill="white"/>
</mask>
<g mask="url(#mask4_83_4)">
<mask id="mask5_83_4" style="mask-type:luminance" maskUnits="userSpaceOnUse" x="234" y="66" width="312" height="62">
<path d="M545.004 66.0617H234.552V127.821H545.004V66.0617Z" fill="white"/>
</mask>
<g mask="url(#mask5_83_4)">
<mask id="mask6_83_4" style="mask-type:luminance" maskUnits="userSpaceOnUse" x="234" y="66" width="311" height="62">
<path d="M234.652 66.2031H544.691V127.133H234.652V66.2031Z" fill="white"/>
</mask>
<g mask="url(#mask6_83_4)">
<path d="M234.652 66.2031H544.768V127.133H234.652V66.2031Z" fill="black"/>
</g>
</g>
</g>
<path d="M242.663 112.907V84.6224H259.768V90.3014H248.346V95.925H257.493V101.604H248.346V112.907H242.663Z" fill="white"/>
<path d="M262.609 112.907V84.5115H279.659V112.907H273.976V101.549H268.292V112.907H262.609ZM268.292 95.8695H273.976V90.1905H268.292V95.8695Z" fill="white"/>
<path d="M285.34 112.907V84.5115H302.39V112.907H296.707V90.1905H291.024V112.907H285.34Z" fill="white"/>
<path d="M312.618 112.907V90.1905H306.935V84.5115H323.985V90.1905H318.301V112.907H312.618Z" fill="white"/>
<path d="M328.529 112.907V84.5115H345.579V112.907H339.896V101.549H334.213V112.907H328.529ZM334.213 95.8695H339.896V90.1905H334.213V95.8695Z" fill="white"/>
<path d="M351.26 112.907V107.228H362.627V101.549H351.26V84.5115H368.31V90.1905H356.944V95.8695H368.31V112.907H351.26Z" fill="white"/>
<path d="M373.992 112.907V107.172H385.358V101.549H373.992V84.5115H379.675V95.8695H385.358V84.5115H391.042V112.907H373.992Z" fill="white"/>
<path d="M410.93 112.907V107.228H422.296V101.549H410.93V84.5115H427.98V90.1905H416.613V95.8695H427.98V112.907H410.93Z" fill="white"/>
<path d="M433.661 112.907V84.5115H450.711V101.549H439.344V112.907H433.661ZM439.344 95.8695H445.027V90.1905H439.344V95.8695Z" fill="white"/>
<path d="M453.55 112.907V84.5115H470.6V112.907H453.55ZM459.234 107.228H464.917V90.1905H459.234V107.228Z" fill="white"/>
<path d="M476.282 112.907V84.5115H493.332V95.8695H487.648V90.1905H481.965V95.8695H487.648V101.549H481.965V112.907H476.282ZM487.648 112.907V101.549H493.332V112.907H487.648Z" fill="white"/>
<path d="M503.559 112.907V90.1905H497.876V84.5115H514.926V90.1905H509.243V112.907H503.559Z" fill="white"/>
<path d="M519.471 112.907V107.228H530.837V101.549H519.471V84.5115H536.521V90.1905H525.154V95.8695H536.521V112.907H519.471Z" fill="white"/>
<rect x="4" y="163" width="796" height="44" fill="black"/>
<rect y="167" width="804" height="35" fill="black"/>
<path d="M7.55176 195.007V174.065H20.1284V195.007H7.55176ZM11.7366 190.814H15.9325V178.258H11.7366V190.814Z" fill="white"/>
<path d="M36.8476 195.051V190.858H40.9991V174.154H45.1839V195.051H36.8476ZM24.3154 195.051V174.154H28.5002V190.858H32.6517V195.051H24.3154ZM32.6517 190.858V182.484H36.8476V190.858H32.6517Z" fill="white"/>
<path d="M49.377 195.007V174.065H61.9535V195.007H57.7576V178.258H53.5618V195.007H49.377Z" fill="white"/>
<path d="M80.8026 195.007V178.258H76.6178V174.065H89.1944V178.258H84.9985V195.007H80.8026Z" fill="white"/>
<path d="M92.5432 195.007V174.021H96.728V182.44H100.924V174.065H105.12V195.007H100.924V186.632H96.728V195.007H92.5432Z" fill="white"/>
<path d="M109.307 195.007V174.065H121.883V178.258H113.492V182.44H121.883V186.632H113.492V190.814H121.883V195.007H109.307Z" fill="white"/>
<path d="M136.548 195.007V174.065H149.124V186.632H140.732V195.007H136.548ZM140.732 182.44H144.928V178.258H140.732V182.44Z" fill="white"/>
<path d="M151.216 195.007V174.065H155.4V190.814H163.792V195.007H151.216Z" fill="white"/>
<path d="M165.884 195.007V174.065H178.46V195.007H174.264V186.632H170.069V195.007H165.884ZM170.069 182.44H174.264V178.258H170.069V182.44Z" fill="white"/>
<path d="M182.647 195.007V190.781H191.028V186.632H182.647V174.065H186.832V182.44H191.028V174.065H195.224V195.007H182.647Z" fill="white"/>
<path d="M199.411 195.007V174.065H211.987V178.258H203.596V182.44H211.987V186.632H203.596V190.814H211.987V195.007H199.411Z" fill="white"/>
<path d="M216.175 195.007V174.065H228.751V182.44H224.555V178.258H220.359V182.44H224.555V186.632H220.359V195.007H216.175ZM224.555 195.007V186.632H228.751V195.007H224.555Z" fill="white"/>
<path d="M232.938 195.007V190.814H241.319V186.632H232.938V174.065H245.515V178.258H237.123V182.44H245.515V195.007H232.938Z" fill="white"/>
<path d="M249.702 195.007V190.814H253.887V195.007H249.702Z" fill="white"/>
<path d="M268.561 195.007V174.065H281.137V195.007H268.561ZM272.746 190.814H276.941V178.258H272.746V190.814Z" fill="white"/>
<path d="M297.857 195.051V190.858H302.008V174.154H306.193V195.051H297.857ZM285.324 195.051V174.154H289.509V190.858H293.661V195.051H285.324ZM293.661 190.858V182.484H297.857V190.858H293.661Z" fill="white"/>
<path d="M310.386 195.007V174.065H322.963V195.007H318.767V178.258H314.571V195.007H310.386Z" fill="white"/>
<path d="M341.812 195.007V178.258H337.627V174.065H350.203V178.258H346.008V195.007H341.812Z" fill="white"/>
<path d="M353.552 195.007V174.021H357.737V182.44H361.933V174.065H366.129V195.007H361.933V186.632H357.737V195.007H353.552Z" fill="white"/>
<path d="M370.316 195.007V174.065H382.892V178.258H374.501V182.44H382.892V186.632H374.501V190.814H382.892V195.007H370.316Z" fill="white"/>
<path d="M397.557 195.007V174.065H410.133V178.258H401.741V190.814H405.937V186.632H403.839V182.44H410.133V195.007H397.557Z" fill="white"/>
<path d="M414.32 195.007V174.065H426.897V195.007H422.701V186.632H418.505V195.007H414.32ZM418.505 182.44H422.701V178.258H418.505V182.44Z" fill="white"/>
<path d="M447.767 195.007V178.336H443.616V174.154H451.952V195.007H447.767ZM431.084 195.007V174.154H439.42V178.336H435.269V195.007H431.084ZM439.42 190.858V178.336H443.616V190.858H439.42Z" fill="white"/>
<path d="M456.145 195.007V174.065H468.722V178.258H460.33V182.44H468.722V186.632H460.33V190.814H468.722V195.007H456.145Z" fill="white"/>
<path d="M472.909 195.007V190.814H477.094V195.007H472.909Z" fill="white"/>
<path d="M491.768 195.007V174.065H504.345V195.007H491.768ZM495.953 190.814H500.149V178.258H495.953V190.814Z" fill="white"/>
<path d="M521.064 195.051V190.858H525.215V174.154H529.4V195.051H521.064ZM508.532 195.051V174.154H512.716V190.858H516.868V195.051H508.532ZM516.868 190.858V182.484H521.064V190.858H516.868Z" fill="white"/>
<path d="M533.593 195.007V174.065H546.17V195.007H541.974V178.258H537.778V195.007H533.593Z" fill="white"/>
<path d="M565.019 195.007V178.258H560.834V174.065H573.411V178.258H569.215V195.007H565.019Z" fill="white"/>
<path d="M576.76 195.007V174.021H580.944V182.44H585.14V174.065H589.336V195.007H585.14V186.632H580.944V195.007H576.76Z" fill="white"/>
<path d="M593.523 195.007V174.065H606.1V178.258H597.708V182.44H606.1V186.632H597.708V190.814H606.1V195.007H593.523Z" fill="white"/>
<path d="M620.764 195.007V174.065H633.341V178.258H624.949V190.814H633.341V195.007H620.764Z" fill="white"/>
<path d="M637.528 195.007V174.065H650.104V195.007H637.528ZM641.712 190.814H645.908V178.258H641.712V190.814Z" fill="white"/>
<path d="M670.975 195.007V178.336H666.823V174.154H675.16V195.007H670.975ZM654.291 195.007V174.154H662.627V178.336H658.476V195.007H654.291ZM662.627 190.858V178.336H666.823V190.858H662.627Z" fill="white"/>
<path d="M679.353 195.007V174.065H691.929V186.632H683.538V195.007H679.353ZM683.538 182.44H687.733V178.258H683.538V182.44Z" fill="white"/>
<path d="M694.021 195.007V174.065H706.597V178.258H698.206V182.44H706.597V186.632H698.206V190.814H706.597V195.007H694.021Z" fill="white"/>
<path d="M714.131 195.007V178.258H709.946V174.065H722.523V178.258H718.327V195.007H714.131Z" fill="white"/>
<path d="M725.872 195.007V174.065H730.056V195.007H725.872Z" fill="white"/>
<path d="M737.6 195.007V178.258H733.415V174.065H745.992V178.258H741.796V195.007H737.6Z" fill="white"/>
<path d="M749.34 195.007V174.065H753.525V195.007H749.34Z" fill="white"/>
<path d="M757.722 195.007V174.065H770.299V195.007H757.722ZM761.907 190.814H766.103V178.258H761.907V190.814Z" fill="white"/>
<path d="M774.486 195.007V174.065H787.062V195.007H782.867V178.258H778.671V195.007H774.486Z" fill="white"/>
<path d="M791.25 195.007V190.814H795.434V195.007H791.25Z" fill="white"/>
</svg>
