<svg width="509" height="509" viewBox="0 0 509 509" fill="none" xmlns="http://www.w3.org/2000/svg">
<path d="M73.9577 200.332V416.993H92.017V435.042H128.125V453.091H344.776V435.042H380.875V416.993H416.993V272.559H398.934V254.5H380.875V236.441H362.825V218.392H326.717V200.332H73.9577Z" fill="#F8C5AF"/>
<path d="M416.993 362.825H73.9577V416.993H92.017V435.042H128.125V453.091H344.776V435.042H380.875V416.993H416.993V362.825Z" fill="#E19A81"/>
<path d="M435.042 398.934H453.091V380.874H470.876L471.151 164.224H453.091V146.175H435.042V110.066H416.993V92.017H398.934V73.9577H344.776V55.8984H110.066V73.9577H73.9577V92.017H55.8984V128.125H37.8492V380.874H55.8984V200.332H73.9577V182.283H326.717V200.332H362.825V218.392H380.875V236.441H398.934V254.5H416.993V272.559H435.042V398.934Z" fill="white"/>
<path d="M182.283 55.8984V73.9577H164.224V92.017H146.175V128.125H128.125V182.283H254.5V128.125H272.559V92.017H290.608V73.9577H308.658V55.8984H182.283Z" fill="#1354C9"/>
<path d="M37.8492 128.115H19.7899V146.175H37.8492V128.115Z" fill="black"/>
<path d="M55.9086 110.066H37.8492V128.125H55.9086V110.066Z" fill="black"/>
<path d="M55.9086 92.0068H37.8492V110.066H55.9086V92.0068Z" fill="black"/>
<path d="M73.9577 73.9577H55.8984V92.017H73.9577V73.9577Z" fill="black"/>
<path d="M92.017 55.8984H73.9577V73.9577H92.017V55.8984Z" fill="black"/>
<path d="M110.066 55.8984H92.0068V73.9577H110.066V55.8984Z" fill="black"/>
<path d="M128.125 37.8492H110.066V55.9086H128.125V37.8492Z" fill="black"/>
<path d="M146.175 37.8492H128.115V55.9086H146.175V37.8492Z" fill="black"/>
<path d="M164.234 37.8492H146.175V55.9086H164.234V37.8492Z" fill="black"/>
<path d="M182.283 37.8492H164.224V55.9086H182.283V37.8492Z" fill="black"/>
<path d="M200.342 37.8492H182.283V55.9086H200.342V37.8492Z" fill="black"/>
<path d="M218.392 37.8492H200.332V55.9086H218.392V37.8492Z" fill="black"/>
<path d="M236.451 37.8492H218.392V55.9086H236.451V37.8492Z" fill="black"/>
<path d="M254.5 37.8492H236.441V55.9086H254.5V37.8492Z" fill="black"/>
<path d="M272.559 37.8492H254.5V55.9086H272.559V37.8492Z" fill="black"/>
<path d="M290.619 37.8492H272.559V55.9086H290.619V37.8492Z" fill="black"/>
<path d="M308.668 37.8492H290.608V55.9086H308.668V37.8492Z" fill="black"/>
<path d="M326.727 37.8492H308.668V55.9086H326.727V37.8492Z" fill="black"/>
<path d="M344.776 37.8492H326.717V55.9086H344.776V37.8492Z" fill="black"/>
<path d="M362.836 55.8984H344.776V73.9577H362.836V55.8984Z" fill="black"/>
<path d="M380.885 55.8984H362.825V73.9577H380.885V55.8984Z" fill="black"/>
<path d="M398.944 55.8984H380.885V73.9577H398.944V55.8984Z" fill="black"/>
<path d="M416.993 73.9577H398.934V92.017H416.993V73.9577Z" fill="black"/>
<path d="M435.052 92.0068H416.993V110.066H435.052V92.0068Z" fill="black"/>
<path d="M453.102 110.066H435.042V128.125H453.102V110.066Z" fill="black"/>
<path d="M453.102 128.115H435.042V146.175H453.102V128.115Z" fill="black"/>
<path d="M471.161 146.175H453.102V164.234H471.161V146.175Z" fill="black"/>
<path d="M489.21 164.224H471.151V182.283H489.21V164.224Z" fill="black"/>
<path d="M489.21 182.283H471.151V200.342H489.21V182.283Z" fill="black"/>
<path d="M489.21 200.332H471.151V218.392H489.21V200.332Z" fill="black"/>
<path d="M489.21 218.392H471.151V236.451H489.21V218.392Z" fill="black"/>
<path d="M489.21 236.441H471.151V254.5H489.21V236.441Z" fill="black"/>
<path d="M489.21 254.5H471.151V272.559H489.21V254.5Z" fill="black"/>
<path d="M489.21 272.559H471.151V290.619H489.21V272.559Z" fill="black"/>
<path d="M489.21 290.608H471.151V308.668H489.21V290.608Z" fill="black"/>
<path d="M489.21 308.668H471.151V326.727H489.21V308.668Z" fill="black"/>
<path d="M489.21 326.717H471.151V344.776H489.21V326.717Z" fill="black"/>
<path d="M489.21 344.776H471.151V362.836H489.21V344.776Z" fill="black"/>
<path d="M489.21 362.825H471.151V380.885H489.21V362.825Z" fill="black"/>
<path d="M471.161 380.885H453.102V398.944H471.161V380.885Z" fill="black"/>
<path d="M453.102 398.934H435.042V416.993H453.102V398.934Z" fill="black"/>
<path d="M435.052 398.934H416.993V416.993H435.052V398.934Z" fill="black"/>
<path d="M416.993 416.993H398.934V435.052H416.993V416.993Z" fill="black"/>
<path d="M435.052 290.608H416.993V308.668H435.052V290.608Z" fill="black"/>
<path d="M435.052 308.668H416.993V326.727H435.052V308.668Z" fill="black"/>
<path d="M435.052 326.717H416.993V344.776H435.052V326.717Z" fill="black"/>
<path d="M435.052 344.776H416.993V362.836H435.052V344.776Z" fill="black"/>
<path d="M435.052 362.825H416.993V380.885H435.052V362.825Z" fill="black"/>
<path d="M37.8492 146.175H19.7899V164.234H37.8492V146.175Z" fill="black"/>
<path d="M37.8492 164.224H19.7899V182.283H37.8492V164.224Z" fill="black"/>
<path d="M37.8492 182.283H19.7899V200.342H37.8492V182.283Z" fill="black"/>
<path d="M37.8492 200.332H19.7899V218.392H37.8492V200.332Z" fill="black"/>
<path d="M37.8492 218.392H19.7899V236.451H37.8492V218.392Z" fill="black"/>
<path d="M37.8492 236.441H19.7899V254.5H37.8492V236.441Z" fill="black"/>
<path d="M37.8492 254.5H19.7899V272.559H37.8492V254.5Z" fill="black"/>
<path d="M37.8492 272.559H19.7899V290.619H37.8492V272.559Z" fill="black"/>
<path d="M37.8492 290.608H19.7899V308.668H37.8492V290.608Z" fill="black"/>
<path d="M37.8492 308.668H19.7899V326.727H37.8492V308.668Z" fill="black"/>
<path d="M37.8492 326.717H19.7899V344.776H37.8492V326.717Z" fill="black"/>
<path d="M37.8492 344.776H19.7899V362.836H37.8492V344.776Z" fill="black"/>
<path d="M37.8492 362.825H19.7899V380.885H37.8492V362.825Z" fill="black"/>
<path d="M55.9086 380.885H37.8492V398.944H55.9086V380.885Z" fill="black"/>
<path d="M73.9577 290.608H55.8984V308.668H73.9577V290.608Z" fill="black"/>
<path d="M73.9577 272.559H55.8984V290.619H73.9577V272.559Z" fill="black"/>
<path d="M73.9577 254.5H55.8984V272.559H73.9577V254.5Z" fill="black"/>
<path d="M73.9577 236.441H55.8984V254.5H73.9577V236.441Z" fill="black"/>
<path d="M73.9577 218.392H55.8984V236.451H73.9577V218.392Z" fill="black"/>
<path d="M92.017 182.283H73.9577V200.342H92.017V182.283Z" fill="black"/>
<path d="M110.066 182.283H92.0068V200.342H110.066V182.283Z" fill="black"/>
<path d="M128.125 182.283H110.066V200.342H128.125V182.283Z" fill="black"/>
<path d="M146.175 182.283H128.115V200.342H146.175V182.283Z" fill="black"/>
<path d="M128.125 164.224H110.066V182.283H128.125V164.224Z" fill="black"/>
<path d="M128.125 146.175H110.066V164.234H128.125V146.175Z" fill="black"/>
<path d="M128.125 128.115H110.066V146.175H128.125V128.115Z" fill="black"/>
<path d="M146.175 128.115H128.115V146.175H146.175V128.115Z" fill="#C9DAF8"/>
<path d="M146.175 110.066H128.115V128.125H146.175V110.066Z" fill="black"/>
<path d="M146.175 92.0068H128.115V110.066H146.175V92.0068Z" fill="black"/>
<path d="M164.234 73.9577H146.175V92.017H164.234V73.9577Z" fill="black"/>
<path d="M182.283 55.8984H164.224V73.9577H182.283V55.8984Z" fill="black"/>
<path d="M200.342 55.8984H182.283V73.9577H200.342V55.8984Z" fill="#C9DAF8"/>
<path d="M218.392 55.8984H200.332V73.9577H218.392V55.8984Z" fill="#C9DAF8"/>
<path d="M236.451 55.8984H218.392V73.9577H236.451V55.8984Z" fill="#C9DAF8"/>
<path d="M254.5 55.8984H236.441V73.9577H254.5V55.8984Z" fill="#C9DAF8"/>
<path d="M272.559 55.8984H254.5V73.9577H272.559V55.8984Z" fill="#C9DAF8"/>
<path d="M290.619 55.8984H272.559V73.9577H290.619V55.8984Z" fill="#C9DAF8"/>
<path d="M308.668 55.8984H290.608V73.9577H308.668V55.8984Z" fill="#C9DAF8"/>
<path d="M164.234 110.066H146.175V128.125H164.234V110.066Z" fill="#C9DAF8"/>
<path d="M164.234 92.0068H146.175V110.066H164.234V92.0068Z" fill="#C9DAF8"/>
<path d="M182.283 73.9577H164.224V92.017H182.283V73.9577Z" fill="#C9DAF8"/>
<path d="M272.559 164.224H254.5V182.283H272.559V164.224Z" fill="black"/>
<path d="M272.559 146.175H254.5V164.234H272.559V146.175Z" fill="black"/>
<path d="M272.559 128.115H254.5V146.175H272.559V128.115Z" fill="black"/>
<path d="M290.619 110.066H272.559V128.125H290.619V110.066Z" fill="black"/>
<path d="M290.619 92.0068H272.559V110.066H290.619V92.0068Z" fill="black"/>
<path d="M308.668 73.9577H290.608V92.017H308.668V73.9577Z" fill="black"/>
<path d="M326.727 55.8984H308.668V73.9577H326.727V55.8984Z" fill="black"/>
<path d="M164.234 182.283H146.175V200.342H164.234V182.283Z" fill="black"/>
<path d="M182.283 182.283H164.224V200.342H182.283V182.283Z" fill="black"/>
<path d="M200.342 182.283H182.283V200.342H200.342V182.283Z" fill="black"/>
<path d="M200.342 254.5H182.283V272.559H200.342V254.5Z" fill="black"/>
<path d="M182.283 254.5H164.224V272.559H182.283V254.5Z" fill="black"/>
<path d="M182.283 272.559H164.224V290.619H182.283V272.559Z" fill="#E19A81"/>
<path d="M164.234 272.559H146.175V290.619H164.234V272.559Z" fill="#E19A81"/>
<path d="M164.234 254.5H146.175V272.559H164.234V254.5Z" fill="#E19A81"/>
<path d="M146.175 254.5H128.115V272.559H146.175V254.5Z" fill="#E19A81"/>
<path d="M128.125 254.5H110.066V272.559H128.125V254.5Z" fill="#E19A81"/>
<path d="M110.066 254.5H92.0068V272.559H110.066V254.5Z" fill="#E19A81"/>
<path d="M200.342 272.559H182.283V290.619H200.342V272.559Z" fill="#E19A81"/>
<path d="M200.342 290.608H182.283V308.668H200.342V290.608Z" fill="#E19A81"/>
<path d="M254.5 254.5H236.441V272.559H254.5V254.5Z" fill="black"/>
<path d="M272.559 254.5H254.5V272.559H272.559V254.5Z" fill="black"/>
<path d="M272.559 236.441H254.5V254.5H272.559V236.441Z" fill="black"/>
<path d="M290.619 236.441H272.559V254.5H290.619V236.441Z" fill="black"/>
<path d="M308.668 236.441H290.608V254.5H308.668V236.441Z" fill="black"/>
<path d="M308.668 290.608H290.608V308.668H308.668V290.608Z" fill="black"/>
<path d="M308.668 308.668H290.608V326.727H308.668V308.668Z" fill="black"/>
<path d="M326.727 290.608H308.668V308.668H326.727V290.608Z" fill="white"/>
<path d="M344.776 290.608H326.717V308.668H344.776V290.608Z" fill="white"/>
<path d="M362.836 290.608H344.776V308.668H362.836V290.608Z" fill="white"/>
<path d="M326.727 308.668H308.668V326.727H326.727V308.668Z" fill="white"/>
<path d="M344.776 308.668H326.717V326.727H344.776V308.668Z" fill="white"/>
<path d="M290.619 290.608H272.559V308.668H290.619V290.608Z" fill="black"/>
<path d="M290.619 308.668H272.559V326.727H290.619V308.668Z" fill="black"/>
<path d="M326.727 236.441H308.668V254.5H326.727V236.441Z" fill="black"/>
<path d="M344.776 236.441H326.717V254.5H344.776V236.441Z" fill="black"/>
<path d="M272.559 272.559H254.5V290.619H272.559V272.559Z" fill="#E19A81"/>
<path d="M254.5 272.559H236.441V290.619H254.5V272.559Z" fill="#E19A81"/>
<path d="M272.559 290.608H254.5V308.668H272.559V290.608Z" fill="#E19A81"/>
<path d="M290.619 254.5H272.559V272.559H290.619V254.5Z" fill="#E19A81"/>
<path d="M290.619 272.559H272.559V290.619H290.619V272.559Z" fill="#E19A81"/>
<path d="M308.668 254.5H290.608V272.559H308.668V254.5Z" fill="#E19A81"/>
<path d="M326.727 254.5H308.668V272.559H326.727V254.5Z" fill="#E19A81"/>
<path d="M344.776 254.5H326.717V272.559H344.776V254.5Z" fill="#E19A81"/>
<path d="M182.283 236.441H164.224V254.5H182.283V236.441Z" fill="black"/>
<path d="M164.234 236.441H146.175V254.5H164.234V236.441Z" fill="black"/>
<path d="M146.175 236.441H128.115V254.5H146.175V236.441Z" fill="black"/>
<path d="M146.175 290.608H128.115V308.668H146.175V290.608Z" fill="black"/>
<path d="M146.175 308.668H128.115V326.727H146.175V308.668Z" fill="black"/>
<path d="M128.125 290.608H110.066V308.668H128.125V290.608Z" fill="black"/>
<path d="M110.066 290.608H92.0068V308.668H110.066V290.608Z" fill="white"/>
<path d="M128.125 308.668H110.066V326.727H128.125V308.668Z" fill="black"/>
<path d="M164.234 290.608H146.175V308.668H164.234V290.608Z" fill="white"/>
<path d="M164.234 308.668H146.175V326.727H164.234V308.668Z" fill="white"/>
<path d="M182.283 290.608H164.224V308.668H182.283V290.608Z" fill="white"/>
<path d="M182.283 308.668H164.224V326.727H182.283V308.668Z" fill="white"/>
<path d="M218.392 344.776H200.332V362.836H218.392V344.776Z" fill="black"/>
<path d="M236.451 344.776H218.392V362.836H236.451V344.776Z" fill="black"/>
<path d="M254.5 344.776H236.441V362.836H254.5V344.776Z" fill="#E19A81"/>
<path d="M128.125 236.441H110.066V254.5H128.125V236.441Z" fill="black"/>
<path d="M110.066 236.441H92.0068V254.5H110.066V236.441Z" fill="black"/>
<path d="M218.392 182.283H200.332V200.342H218.392V182.283Z" fill="black"/>
<path d="M236.451 182.283H218.392V200.342H236.451V182.283Z" fill="black"/>
<path d="M254.5 182.283H236.441V200.342H254.5V182.283Z" fill="black"/>
<path d="M272.559 182.283H254.5V200.342H272.559V182.283Z" fill="black"/>
<path d="M290.619 182.283H272.559V200.342H290.619V182.283Z" fill="black"/>
<path d="M308.668 182.283H290.608V200.342H308.668V182.283Z" fill="black"/>
<path d="M326.727 182.283H308.668V200.342H326.727V182.283Z" fill="black"/>
<path d="M92.017 218.392H73.9577V236.451H92.017V218.392Z" fill="black"/>
<path d="M110.066 218.392H92.0068V236.451H110.066V218.392Z" fill="black"/>
<path d="M128.125 218.392H110.066V236.451H128.125V218.392Z" fill="black"/>
<path d="M146.175 218.392H128.115V236.451H146.175V218.392Z" fill="black"/>
<path d="M164.234 218.392H146.175V236.451H164.234V218.392Z" fill="black"/>
<path d="M182.283 218.392H164.224V236.451H182.283V218.392Z" fill="black"/>
<path d="M200.342 218.392H182.283V236.451H200.342V218.392Z" fill="black"/>
<path d="M218.392 218.392H200.332V236.451H218.392V218.392Z" fill="black"/>
<path d="M236.451 218.392H218.392V236.451H236.451V218.392Z" fill="black"/>
<path d="M254.5 218.392H236.441V236.451H254.5V218.392Z" fill="black"/>
<path d="M272.559 218.392H254.5V236.451H272.559V218.392Z" fill="black"/>
<path d="M290.619 218.392H272.559V236.451H290.619V218.392Z" fill="black"/>
<path d="M308.668 218.392H290.608V236.451H308.668V218.392Z" fill="black"/>
<path d="M326.727 218.392H308.668V236.451H326.727V218.392Z" fill="black"/>
<path d="M92.017 200.332H73.9577V218.392H92.017V200.332Z" fill="white"/>
<path d="M73.9577 200.332H55.8984V218.392H73.9577V200.332Z" fill="white"/>
<path d="M110.066 200.332H92.0068V218.392H110.066V200.332Z" fill="white"/>
<path d="M128.125 200.332H110.066V218.392H128.125V200.332Z" fill="white"/>
<path d="M146.175 200.332H128.115V218.392H146.175V200.332Z" fill="white"/>
<path d="M164.234 200.332H146.175V218.392H164.234V200.332Z" fill="white"/>
<path d="M182.283 200.332H164.224V218.392H182.283V200.332Z" fill="white"/>
<path d="M200.342 200.332H182.283V218.392H200.342V200.332Z" fill="white"/>
<path d="M218.392 200.332H200.332V218.392H218.392V200.332Z" fill="white"/>
<path d="M236.451 200.332H218.392V218.392H236.451V200.332Z" fill="white"/>
<path d="M254.5 200.332H236.441V218.392H254.5V200.332Z" fill="white"/>
<path d="M272.559 200.332H254.5V218.392H272.559V200.332Z" fill="white"/>
<path d="M290.619 200.332H272.559V218.392H290.619V200.332Z" fill="white"/>
<path d="M308.668 200.332H290.608V218.392H308.668V200.332Z" fill="white"/>
<path d="M326.727 200.332H308.668V218.392H326.727V200.332Z" fill="white"/>
<path d="M344.776 200.332H326.717V218.392H344.776V200.332Z" fill="black"/>
<path d="M362.836 200.332H344.776V218.392H362.836V200.332Z" fill="black"/>
<path d="M380.885 218.392H362.825V236.451H380.885V218.392Z" fill="black"/>
<path d="M398.944 236.441H380.885V254.5H398.944V236.441Z" fill="black"/>
<path d="M416.993 254.5H398.934V272.559H416.993V254.5Z" fill="black"/>
<path d="M73.9577 182.283H55.8984V200.342H73.9577V182.283Z" fill="#C6CACD"/>
<path d="M92.017 164.224H73.9577V182.283H92.017V164.224Z" fill="#C6CACD"/>
<path d="M110.066 164.224H92.0068V182.283H110.066V164.224Z" fill="#C6CACD"/>
<path d="M146.175 164.224H128.115V182.283H146.175V164.224Z" fill="#230F7A"/>
<path d="M164.234 164.224H146.175V182.283H164.234V164.224Z" fill="#230F7A"/>
<path d="M182.283 164.224H164.224V182.283H182.283V164.224Z" fill="#230F7A"/>
<path d="M200.342 164.224H182.283V182.283H200.342V164.224Z" fill="#230F7A"/>
<path d="M218.392 164.224H200.332V182.283H218.392V164.224Z" fill="#230F7A"/>
<path d="M236.451 164.224H218.392V182.283H236.451V164.224Z" fill="#230F7A"/>
<path d="M254.5 164.224H236.441V182.283H254.5V164.224Z" fill="#230F7A"/>
<path d="M290.619 164.224H272.559V182.283H290.619V164.224Z" fill="#C6CACD"/>
<path d="M308.668 164.224H290.608V182.283H308.668V164.224Z" fill="#C6CACD"/>
<path d="M326.727 164.224H308.668V182.283H326.727V164.224Z" fill="#C6CACD"/>
<path d="M344.776 182.283H326.717V200.342H344.776V182.283Z" fill="#C6CACD"/>
<path d="M362.836 182.283H344.776V200.342H362.836V182.283Z" fill="#C6CACD"/>
<path d="M380.885 200.332H362.825V218.392H380.885V200.332Z" fill="#C6CACD"/>
<path d="M398.944 218.392H380.885V236.451H398.944V218.392Z" fill="#C6CACD"/>
<path d="M416.993 236.441H398.934V254.5H416.993V236.441Z" fill="#C6CACD"/>
<path d="M435.052 254.5H416.993V272.559H435.052V254.5Z" fill="#C6CACD"/>
<path d="M453.102 272.559H435.042V290.619H453.102V272.559Z" fill="#C6CACD"/>
<path d="M453.102 290.608H435.042V308.668H453.102V290.608Z" fill="#C6CACD"/>
<path d="M453.102 308.668H435.042V326.727H453.102V308.668Z" fill="#C6CACD"/>
<path d="M453.102 326.717H435.042V344.776H453.102V326.717Z" fill="#C6CACD"/>
<path d="M453.102 344.776H435.042V362.836H453.102V344.776Z" fill="#C6CACD"/>
<path d="M453.102 362.825H435.042V380.885H453.102V362.825Z" fill="#C6CACD"/>
<path d="M470.876 290.608H452.817V308.668H470.876V290.608Z" fill="#C6CACD"/>
<path d="M470.876 308.668H452.817V326.727H470.876V308.668Z" fill="#C6CACD"/>
<path d="M470.876 326.717H452.817V344.776H470.876V326.717Z" fill="#C6CACD"/>
<path d="M470.876 344.776H452.817V362.836H470.876V344.776Z" fill="#C6CACD"/>
<path d="M470.876 362.825H452.817V380.885H470.876V362.825Z" fill="#C6CACD"/>
<path d="M453.102 380.885H435.042V398.944H453.102V380.885Z" fill="#C6CACD"/>
<path d="M435.052 272.559H416.993V290.619H435.052V272.559Z" fill="black"/>
<path d="M73.9577 308.668H55.8984V326.727H73.9577V308.668Z" fill="black"/>
<path d="M73.9577 326.717H55.8984V344.776H73.9577V326.717Z" fill="black"/>
<path d="M73.9577 344.776H55.8984V362.836H73.9577V344.776Z" fill="black"/>
<path d="M92.017 344.776H73.9577V362.836H92.017V344.776Z" fill="white"/>
<path d="M110.066 362.825H92.0068V380.885H110.066V362.825Z" fill="white"/>
<path d="M128.125 362.825H110.066V380.885H128.125V362.825Z" fill="white"/>
<path d="M146.175 362.825H128.115V380.885H146.175V362.825Z" fill="white"/>
<path d="M164.234 362.825H146.175V380.885H164.234V362.825Z" fill="white"/>
<path d="M182.283 362.825H164.224V380.885H182.283V362.825Z" fill="white"/>
<path d="M200.342 362.825H182.283V380.885H200.342V362.825Z" fill="white"/>
<path d="M218.392 362.825H200.332V380.885H218.392V362.825Z" fill="white"/>
<path d="M236.451 362.825H218.392V380.885H236.451V362.825Z" fill="white"/>
<path d="M254.5 362.825H236.441V380.885H254.5V362.825Z" fill="white"/>
<path d="M272.559 362.825H254.5V380.885H272.559V362.825Z" fill="white"/>
<path d="M290.619 362.825H272.559V380.885H290.619V362.825Z" fill="white"/>
<path d="M308.668 362.825H290.608V380.885H308.668V362.825Z" fill="white"/>
<path d="M326.727 362.825H308.668V380.885H326.727V362.825Z" fill="white"/>
<path d="M344.776 362.825H326.717V380.885H344.776V362.825Z" fill="white"/>
<path d="M344.776 380.885H326.717V398.944H344.776V380.885Z" fill="white"/>
<path d="M344.776 398.934H326.717V416.993H344.776V398.934Z" fill="white"/>
<path d="M344.776 416.993H326.717V435.052H344.776V416.993Z" fill="white"/>
<path d="M362.836 416.993H344.776V435.052H362.836V416.993Z" fill="white"/>
<path d="M380.885 416.993H362.825V435.052H380.885V416.993Z" fill="white"/>
<path d="M344.776 435.042H326.717V453.102H344.776V435.042Z" fill="white"/>
<path d="M326.727 435.042H308.668V453.102H326.727V435.042Z" fill="white"/>
<path d="M308.668 435.042H290.608V453.102H308.668V435.042Z" fill="white"/>
<path d="M290.619 435.042H272.559V453.102H290.619V435.042Z" fill="white"/>
<path d="M272.559 435.042H254.5V453.102H272.559V435.042Z" fill="white"/>
<path d="M254.5 435.042H236.441V453.102H254.5V435.042Z" fill="white"/>
<path d="M236.451 435.042H218.392V453.102H236.451V435.042Z" fill="white"/>
<path d="M218.392 435.042H200.332V453.102H218.392V435.042Z" fill="white"/>
<path d="M200.342 435.042H182.283V453.102H200.342V435.042Z" fill="white"/>
<path d="M182.283 435.042H164.224V453.102H182.283V435.042Z" fill="white"/>
<path d="M164.234 435.042H146.175V453.102H164.234V435.042Z" fill="white"/>
<path d="M146.175 435.042H128.115V453.102H146.175V435.042Z" fill="white"/>
<path d="M146.175 416.993H128.115V435.052H146.175V416.993Z" fill="white"/>
<path d="M128.125 416.993H110.066V435.052H128.125V416.993Z" fill="white"/>
<path d="M110.066 416.993H92.0068V435.052H110.066V416.993Z" fill="white"/>
<path d="M110.066 398.934H92.0068V416.993H110.066V398.934Z" fill="white"/>
<path d="M92.017 398.934H73.9577V416.993H92.017V398.934Z" fill="white"/>
<path d="M110.066 380.885H92.0068V398.944H110.066V380.885Z" fill="white"/>
<path d="M146.175 398.934H128.115V416.993H146.175V398.934Z" fill="white"/>
<path d="M146.175 380.885H128.115V398.944H146.175V380.885Z" fill="white"/>
<path d="M362.836 362.825H344.776V380.885H362.836V362.825Z" fill="white"/>
<path d="M380.885 362.825H362.825V380.885H380.885V362.825Z" fill="white"/>
<path d="M398.944 362.825H380.885V380.885H398.944V362.825Z" fill="white"/>
<path d="M416.993 344.776H398.934V362.836H416.993V344.776Z" fill="white"/>
<path d="M398.944 380.885H380.885V398.944H398.944V380.885Z" fill="white"/>
<path d="M73.9577 362.825H55.8984V380.885H73.9577V362.825Z" fill="black"/>
<path d="M55.9086 290.608H37.8492V308.668H55.9086V290.608Z" fill="#C6CACD"/>
<path d="M55.9086 272.559H37.8492V290.619H55.9086V272.559Z" fill="#C6CACD"/>
<path d="M55.9086 254.5H37.8492V272.559H55.9086V254.5Z" fill="#C6CACD"/>
<path d="M55.9086 236.441H37.8492V254.5H55.9086V236.441Z" fill="#C6CACD"/>
<path d="M55.9086 218.392H37.8492V236.451H55.9086V218.392Z" fill="#C6CACD"/>
<path d="M55.9086 200.332H37.8492V218.392H55.9086V200.332Z" fill="#C6CACD"/>
<path d="M55.9086 308.668H37.8492V326.727H55.9086V308.668Z" fill="#C6CACD"/>
<path d="M55.9086 326.717H37.8492V344.776H55.9086V326.717Z" fill="#C6CACD"/>
<path d="M55.9086 344.776H37.8492V362.836H55.9086V344.776Z" fill="#C6CACD"/>
<path d="M55.9086 362.825H37.8492V380.885H55.9086V362.825Z" fill="#C6CACD"/>
<path d="M73.9577 380.885H55.8984V398.944H73.9577V380.885Z" fill="black"/>
<path d="M73.9577 398.934H55.8984V416.993H73.9577V398.934Z" fill="black"/>
<path d="M110.066 435.042H92.0068V453.102H110.066V435.042Z" fill="black"/>
<path d="M92.017 416.993H73.9577V435.052H92.017V416.993Z" fill="black"/>
<path d="M128.125 435.042H110.066V453.102H128.125V435.042Z" fill="black"/>
<path d="M146.175 453.102H128.115V471.161H146.175V453.102Z" fill="black"/>
<path d="M164.234 453.102H146.175V471.161H164.234V453.102Z" fill="black"/>
<path d="M182.283 453.102H164.224V471.161H182.283V453.102Z" fill="black"/>
<path d="M200.342 453.102H182.283V471.161H200.342V453.102Z" fill="black"/>
<path d="M218.392 453.102H200.332V471.161H218.392V453.102Z" fill="black"/>
<path d="M236.451 453.102H218.392V471.161H236.451V453.102Z" fill="black"/>
<path d="M254.5 453.102H236.441V471.161H254.5V453.102Z" fill="black"/>
<path d="M272.559 453.102H254.5V471.161H272.559V453.102Z" fill="black"/>
<path d="M218.392 398.934H200.332V416.993H218.392V398.934Z" fill="black"/>
<path d="M236.451 398.934H218.392V416.993H236.451V398.934Z" fill="black"/>
<path d="M254.5 398.934H236.441V416.993H254.5V398.934Z" fill="black"/>
<path d="M272.559 398.934H254.5V416.993H272.559V398.934Z" fill="black"/>
<path d="M290.619 398.934H272.559V416.993H290.619V398.934Z" fill="black"/>
<path d="M290.619 453.102H272.559V471.161H290.619V453.102Z" fill="black"/>
<path d="M308.668 453.102H290.608V471.161H308.668V453.102Z" fill="black"/>
<path d="M326.727 453.102H308.668V471.161H326.727V453.102Z" fill="black"/>
<path d="M344.776 453.102H326.717V471.161H344.776V453.102Z" fill="black"/>
<path d="M362.836 435.042H344.776V453.102H362.836V435.042Z" fill="black"/>
<path d="M380.885 435.042H362.825V453.102H380.885V435.042Z" fill="black"/>
<path d="M398.944 416.993H380.885V435.052H398.944V416.993Z" fill="black"/>
<path d="M398.944 398.934H380.885V416.993H398.944V398.934Z" fill="white"/>
<path d="M416.993 398.934H398.934V416.993H416.993V398.934Z" fill="white"/>
<path d="M416.993 380.885H398.934V398.944H416.993V380.885Z" fill="white"/>
<path d="M435.052 380.885H416.993V398.944H435.052V380.885Z" fill="black"/>
<path d="M55.9086 200.332H37.8492V218.392H55.9086V200.332Z" fill="black"/>
<path d="M73.9577 182.283H55.8984V200.342H73.9577V182.283Z" fill="black"/>
</svg>
