<svg width="500" height="500" viewBox="0 0 500 500" fill="none" xmlns="http://www.w3.org/2000/svg">
<path d="M72.65 196.79V409.62H90.39V427.35H125.86V445.08H338.68V427.35H374.14V409.62H409.62V267.74H391.88V250H374.14V232.26H356.41V214.53H320.94V196.79H72.65Z" fill="#F8C5AF"/>
<path d="M409.62 356.41H72.65V409.62H90.39V427.35H125.86V445.08H338.68V427.35H374.14V409.62H409.62V356.41Z" fill="#E19A81"/>
<path d="M427.35 391.88H445.08V374.14H462.55L462.82 161.32H445.08V143.59H427.35V108.12H409.62V90.39H391.88V72.65H338.68V54.91H108.12V72.65H72.65V90.39H54.91V125.86H37.18V374.14H54.91V196.79H72.65V179.06H320.94V196.79H356.41V214.53H374.14V232.26H391.88V250H409.62V267.74H427.35V391.88Z" fill="white"/>
<path d="M179.06 54.91V72.65H161.32V90.39H143.59V125.86H125.86V179.06H250V125.86H267.74V90.39H285.47V72.65H303.2V54.91H179.06Z" fill="#FC771D"/>
<path d="M37.18 125.85H19.44V143.59H37.18V125.85Z" fill="black"/>
<path d="M54.92 108.12H37.18V125.86H54.92V108.12Z" fill="black"/>
<path d="M54.92 90.38H37.18V108.12H54.92V90.38Z" fill="black"/>
<path d="M72.65 72.65H54.91V90.39H72.65V72.65Z" fill="black"/>
<path d="M90.39 54.91H72.65V72.65H90.39V54.91Z" fill="black"/>
<path d="M108.12 54.91H90.38V72.65H108.12V54.91Z" fill="black"/>
<path d="M125.86 37.18H108.12V54.92H125.86V37.18Z" fill="black"/>
<path d="M143.59 37.18H125.85V54.92H143.59V37.18Z" fill="black"/>
<path d="M161.33 37.18H143.59V54.92H161.33V37.18Z" fill="black"/>
<path d="M179.06 37.18H161.32V54.92H179.06V37.18Z" fill="black"/>
<path d="M196.8 37.18H179.06V54.92H196.8V37.18Z" fill="black"/>
<path d="M214.53 37.18H196.79V54.92H214.53V37.18Z" fill="black"/>
<path d="M232.27 37.18H214.53V54.92H232.27V37.18Z" fill="black"/>
<path d="M250 37.18H232.26V54.92H250V37.18Z" fill="black"/>
<path d="M267.74 37.18H250V54.92H267.74V37.18Z" fill="black"/>
<path d="M285.48 37.18H267.74V54.92H285.48V37.18Z" fill="black"/>
<path d="M303.21 37.18H285.47V54.92H303.21V37.18Z" fill="black"/>
<path d="M320.95 37.18H303.21V54.92H320.95V37.18Z" fill="black"/>
<path d="M338.68 37.18H320.94V54.92H338.68V37.18Z" fill="black"/>
<path d="M356.42 54.91H338.68V72.65H356.42V54.91Z" fill="black"/>
<path d="M374.15 54.91H356.41V72.65H374.15V54.91Z" fill="black"/>
<path d="M391.89 54.91H374.15V72.65H391.89V54.91Z" fill="black"/>
<path d="M409.62 72.65H391.88V90.39H409.62V72.65Z" fill="black"/>
<path d="M427.36 90.38H409.62V108.12H427.36V90.38Z" fill="black"/>
<path d="M445.09 108.12H427.35V125.86H445.09V108.12Z" fill="black"/>
<path d="M445.09 125.85H427.35V143.59H445.09V125.85Z" fill="black"/>
<path d="M462.83 143.59H445.09V161.33H462.83V143.59Z" fill="black"/>
<path d="M480.56 161.32H462.82V179.06H480.56V161.32Z" fill="black"/>
<path d="M480.56 179.06H462.82V196.8H480.56V179.06Z" fill="black"/>
<path d="M480.56 196.79H462.82V214.53H480.56V196.79Z" fill="black"/>
<path d="M480.56 214.53H462.82V232.27H480.56V214.53Z" fill="black"/>
<path d="M480.56 232.26H462.82V250H480.56V232.26Z" fill="black"/>
<path d="M480.56 250H462.82V267.74H480.56V250Z" fill="black"/>
<path d="M480.56 267.74H462.82V285.48H480.56V267.74Z" fill="black"/>
<path d="M480.56 285.47H462.82V303.21H480.56V285.47Z" fill="black"/>
<path d="M480.56 303.21H462.82V320.95H480.56V303.21Z" fill="black"/>
<path d="M480.56 320.94H462.82V338.68H480.56V320.94Z" fill="black"/>
<path d="M480.56 338.68H462.82V356.42H480.56V338.68Z" fill="black"/>
<path d="M480.56 356.41H462.82V374.15H480.56V356.41Z" fill="black"/>
<path d="M462.83 374.15H445.09V391.89H462.83V374.15Z" fill="black"/>
<path d="M445.09 391.88H427.35V409.62H445.09V391.88Z" fill="black"/>
<path d="M427.36 391.88H409.62V409.62H427.36V391.88Z" fill="black"/>
<path d="M409.62 409.62H391.88V427.36H409.62V409.62Z" fill="black"/>
<path d="M427.36 285.47H409.62V303.21H427.36V285.47Z" fill="black"/>
<path d="M427.36 303.21H409.62V320.95H427.36V303.21Z" fill="black"/>
<path d="M427.36 320.94H409.62V338.68H427.36V320.94Z" fill="black"/>
<path d="M427.36 338.68H409.62V356.42H427.36V338.68Z" fill="black"/>
<path d="M427.36 356.41H409.62V374.15H427.36V356.41Z" fill="black"/>
<path d="M37.18 143.59H19.44V161.33H37.18V143.59Z" fill="black"/>
<path d="M37.18 161.32H19.44V179.06H37.18V161.32Z" fill="black"/>
<path d="M37.18 179.06H19.44V196.8H37.18V179.06Z" fill="black"/>
<path d="M37.18 196.79H19.44V214.53H37.18V196.79Z" fill="black"/>
<path d="M37.18 214.53H19.44V232.27H37.18V214.53Z" fill="black"/>
<path d="M37.18 232.26H19.44V250H37.18V232.26Z" fill="black"/>
<path d="M37.18 250H19.44V267.74H37.18V250Z" fill="black"/>
<path d="M37.18 267.74H19.44V285.48H37.18V267.74Z" fill="black"/>
<path d="M37.18 285.47H19.44V303.21H37.18V285.47Z" fill="black"/>
<path d="M37.18 303.21H19.44V320.95H37.18V303.21Z" fill="black"/>
<path d="M37.18 320.94H19.44V338.68H37.18V320.94Z" fill="black"/>
<path d="M37.18 338.68H19.44V356.42H37.18V338.68Z" fill="black"/>
<path d="M37.18 356.41H19.44V374.15H37.18V356.41Z" fill="black"/>
<path d="M54.92 374.15H37.18V391.89H54.92V374.15Z" fill="black"/>
<path d="M72.65 285.47H54.91V303.21H72.65V285.47Z" fill="black"/>
<path d="M72.65 267.74H54.91V285.48H72.65V267.74Z" fill="black"/>
<path d="M72.65 250H54.91V267.74H72.65V250Z" fill="black"/>
<path d="M72.65 232.26H54.91V250H72.65V232.26Z" fill="black"/>
<path d="M72.65 214.53H54.91V232.27H72.65V214.53Z" fill="black"/>
<path d="M90.39 179.06H72.65V196.8H90.39V179.06Z" fill="black"/>
<path d="M108.12 179.06H90.38V196.8H108.12V179.06Z" fill="black"/>
<path d="M125.86 179.06H108.12V196.8H125.86V179.06Z" fill="black"/>
<path d="M143.59 179.06H125.85V196.8H143.59V179.06Z" fill="black"/>
<path d="M125.86 161.32H108.12V179.06H125.86V161.32Z" fill="black"/>
<path d="M125.86 143.59H108.12V161.33H125.86V143.59Z" fill="black"/>
<path d="M125.86 125.85H108.12V143.59H125.86V125.85Z" fill="black"/>
<path d="M143.59 125.85H125.85V143.59H143.59V125.85Z" fill="#FCC342"/>
<path d="M143.59 108.12H125.85V125.86H143.59V108.12Z" fill="black"/>
<path d="M143.59 90.38H125.85V108.12H143.59V90.38Z" fill="black"/>
<path d="M161.33 72.65H143.59V90.39H161.33V72.65Z" fill="black"/>
<path d="M179.06 54.91H161.32V72.65H179.06V54.91Z" fill="black"/>
<path d="M196.8 54.91H179.06V72.65H196.8V54.91Z" fill="#FCC342"/>
<path d="M214.53 54.91H196.79V72.65H214.53V54.91Z" fill="#FCC342"/>
<path d="M232.27 54.91H214.53V72.65H232.27V54.91Z" fill="#FCC342"/>
<path d="M250 54.91H232.26V72.65H250V54.91Z" fill="#FCC342"/>
<path d="M267.74 54.91H250V72.65H267.74V54.91Z" fill="#FCC342"/>
<path d="M285.48 54.91H267.74V72.65H285.48V54.91Z" fill="#FCC342"/>
<path d="M303.21 54.91H285.47V72.65H303.21V54.91Z" fill="#FCC342"/>
<path d="M161.33 108.12H143.59V125.86H161.33V108.12Z" fill="#FCC342"/>
<path d="M161.33 90.38H143.59V108.12H161.33V90.38Z" fill="#FCC342"/>
<path d="M179.06 72.65H161.32V90.39H179.06V72.65Z" fill="#FCC342"/>
<path d="M267.74 161.32H250V179.06H267.74V161.32Z" fill="black"/>
<path d="M267.74 143.59H250V161.33H267.74V143.59Z" fill="black"/>
<path d="M267.74 125.85H250V143.59H267.74V125.85Z" fill="black"/>
<path d="M285.48 108.12H267.74V125.86H285.48V108.12Z" fill="black"/>
<path d="M285.48 90.38H267.74V108.12H285.48V90.38Z" fill="black"/>
<path d="M303.21 72.65H285.47V90.39H303.21V72.65Z" fill="black"/>
<path d="M320.95 54.91H303.21V72.65H320.95V54.91Z" fill="black"/>
<path d="M161.33 179.06H143.59V196.8H161.33V179.06Z" fill="black"/>
<path d="M179.06 179.06H161.32V196.8H179.06V179.06Z" fill="black"/>
<path d="M196.8 179.06H179.06V196.8H196.8V179.06Z" fill="black"/>
<path d="M196.8 250H179.06V267.74H196.8V250Z" fill="black"/>
<path d="M179.06 250H161.32V267.74H179.06V250Z" fill="black"/>
<path d="M179.06 267.74H161.32V285.48H179.06V267.74Z" fill="#E19A81"/>
<path d="M161.33 267.74H143.59V285.48H161.33V267.74Z" fill="#E19A81"/>
<path d="M161.33 250H143.59V267.74H161.33V250Z" fill="#E19A81"/>
<path d="M143.59 250H125.85V267.74H143.59V250Z" fill="#E19A81"/>
<path d="M125.86 250H108.12V267.74H125.86V250Z" fill="#E19A81"/>
<path d="M108.12 250H90.38V267.74H108.12V250Z" fill="#E19A81"/>
<path d="M196.8 267.74H179.06V285.48H196.8V267.74Z" fill="#E19A81"/>
<path d="M196.8 285.47H179.06V303.21H196.8V285.47Z" fill="#E19A81"/>
<path d="M250 250H232.26V267.74H250V250Z" fill="black"/>
<path d="M267.74 250H250V267.74H267.74V250Z" fill="black"/>
<path d="M267.74 232.26H250V250H267.74V232.26Z" fill="black"/>
<path d="M285.48 232.26H267.74V250H285.48V232.26Z" fill="black"/>
<path d="M303.21 232.26H285.47V250H303.21V232.26Z" fill="black"/>
<path d="M303.21 285.47H285.47V303.21H303.21V285.47Z" fill="black"/>
<path d="M303.21 303.21H285.47V320.95H303.21V303.21Z" fill="black"/>
<path d="M320.95 285.47H303.21V303.21H320.95V285.47Z" fill="white"/>
<path d="M338.68 285.47H320.94V303.21H338.68V285.47Z" fill="white"/>
<path d="M356.42 285.47H338.68V303.21H356.42V285.47Z" fill="white"/>
<path d="M320.95 303.21H303.21V320.95H320.95V303.21Z" fill="white"/>
<path d="M338.68 303.21H320.94V320.95H338.68V303.21Z" fill="white"/>
<path d="M285.48 285.47H267.74V303.21H285.48V285.47Z" fill="black"/>
<path d="M285.48 303.21H267.74V320.95H285.48V303.21Z" fill="black"/>
<path d="M320.95 232.26H303.21V250H320.95V232.26Z" fill="black"/>
<path d="M338.68 232.26H320.94V250H338.68V232.26Z" fill="black"/>
<path d="M267.74 267.74H250V285.48H267.74V267.74Z" fill="#E19A81"/>
<path d="M250 267.74H232.26V285.48H250V267.74Z" fill="#E19A81"/>
<path d="M267.74 285.47H250V303.21H267.74V285.47Z" fill="#E19A81"/>
<path d="M285.48 250H267.74V267.74H285.48V250Z" fill="#E19A81"/>
<path d="M285.48 267.74H267.74V285.48H285.48V267.74Z" fill="#E19A81"/>
<path d="M303.21 250H285.47V267.74H303.21V250Z" fill="#E19A81"/>
<path d="M320.95 250H303.21V267.74H320.95V250Z" fill="#E19A81"/>
<path d="M338.68 250H320.94V267.74H338.68V250Z" fill="#E19A81"/>
<path d="M179.06 232.26H161.32V250H179.06V232.26Z" fill="black"/>
<path d="M161.33 232.26H143.59V250H161.33V232.26Z" fill="black"/>
<path d="M143.59 232.26H125.85V250H143.59V232.26Z" fill="black"/>
<path d="M143.59 285.47H125.85V303.21H143.59V285.47Z" fill="black"/>
<path d="M143.59 303.21H125.85V320.95H143.59V303.21Z" fill="black"/>
<path d="M125.86 285.47H108.12V303.21H125.86V285.47Z" fill="black"/>
<path d="M108.12 285.47H90.38V303.21H108.12V285.47Z" fill="white"/>
<path d="M125.86 303.21H108.12V320.95H125.86V303.21Z" fill="black"/>
<path d="M161.33 285.47H143.59V303.21H161.33V285.47Z" fill="white"/>
<path d="M161.33 303.21H143.59V320.95H161.33V303.21Z" fill="white"/>
<path d="M179.06 285.47H161.32V303.21H179.06V285.47Z" fill="white"/>
<path d="M179.06 303.21H161.32V320.95H179.06V303.21Z" fill="white"/>
<path d="M214.53 338.68H196.79V356.42H214.53V338.68Z" fill="black"/>
<path d="M232.27 338.68H214.53V356.42H232.27V338.68Z" fill="black"/>
<path d="M250 338.68H232.26V356.42H250V338.68Z" fill="#E19A81"/>
<path d="M125.86 232.26H108.12V250H125.86V232.26Z" fill="black"/>
<path d="M108.12 232.26H90.38V250H108.12V232.26Z" fill="black"/>
<path d="M214.53 179.06H196.79V196.8H214.53V179.06Z" fill="black"/>
<path d="M232.27 179.06H214.53V196.8H232.27V179.06Z" fill="black"/>
<path d="M250 179.06H232.26V196.8H250V179.06Z" fill="black"/>
<path d="M267.74 179.06H250V196.8H267.74V179.06Z" fill="black"/>
<path d="M285.48 179.06H267.74V196.8H285.48V179.06Z" fill="black"/>
<path d="M303.21 179.06H285.47V196.8H303.21V179.06Z" fill="black"/>
<path d="M320.95 179.06H303.21V196.8H320.95V179.06Z" fill="black"/>
<path d="M90.39 214.53H72.65V232.27H90.39V214.53Z" fill="black"/>
<path d="M108.12 214.53H90.38V232.27H108.12V214.53Z" fill="black"/>
<path d="M125.86 214.53H108.12V232.27H125.86V214.53Z" fill="black"/>
<path d="M143.59 214.53H125.85V232.27H143.59V214.53Z" fill="black"/>
<path d="M161.33 214.53H143.59V232.27H161.33V214.53Z" fill="black"/>
<path d="M179.06 214.53H161.32V232.27H179.06V214.53Z" fill="black"/>
<path d="M196.8 214.53H179.06V232.27H196.8V214.53Z" fill="black"/>
<path d="M214.53 214.53H196.79V232.27H214.53V214.53Z" fill="black"/>
<path d="M232.27 214.53H214.53V232.27H232.27V214.53Z" fill="black"/>
<path d="M250 214.53H232.26V232.27H250V214.53Z" fill="black"/>
<path d="M267.74 214.53H250V232.27H267.74V214.53Z" fill="black"/>
<path d="M285.48 214.53H267.74V232.27H285.48V214.53Z" fill="black"/>
<path d="M303.21 214.53H285.47V232.27H303.21V214.53Z" fill="black"/>
<path d="M320.95 214.53H303.21V232.27H320.95V214.53Z" fill="black"/>
<path d="M90.39 196.79H72.65V214.53H90.39V196.79Z" fill="white"/>
<path d="M72.65 196.79H54.91V214.53H72.65V196.79Z" fill="white"/>
<path d="M108.12 196.79H90.38V214.53H108.12V196.79Z" fill="white"/>
<path d="M125.86 196.79H108.12V214.53H125.86V196.79Z" fill="white"/>
<path d="M143.59 196.79H125.85V214.53H143.59V196.79Z" fill="white"/>
<path d="M161.33 196.79H143.59V214.53H161.33V196.79Z" fill="white"/>
<path d="M179.06 196.79H161.32V214.53H179.06V196.79Z" fill="white"/>
<path d="M196.8 196.79H179.06V214.53H196.8V196.79Z" fill="white"/>
<path d="M214.53 196.79H196.79V214.53H214.53V196.79Z" fill="white"/>
<path d="M232.27 196.79H214.53V214.53H232.27V196.79Z" fill="white"/>
<path d="M250 196.79H232.26V214.53H250V196.79Z" fill="white"/>
<path d="M267.74 196.79H250V214.53H267.74V196.79Z" fill="white"/>
<path d="M285.48 196.79H267.74V214.53H285.48V196.79Z" fill="white"/>
<path d="M303.21 196.79H285.47V214.53H303.21V196.79Z" fill="white"/>
<path d="M320.95 196.79H303.21V214.53H320.95V196.79Z" fill="white"/>
<path d="M338.68 196.79H320.94V214.53H338.68V196.79Z" fill="black"/>
<path d="M356.42 196.79H338.68V214.53H356.42V196.79Z" fill="black"/>
<path d="M374.15 214.53H356.41V232.27H374.15V214.53Z" fill="black"/>
<path d="M391.89 232.26H374.15V250H391.89V232.26Z" fill="black"/>
<path d="M409.62 250H391.88V267.74H409.62V250Z" fill="black"/>
<path d="M72.65 179.06H54.91V196.8H72.65V179.06Z" fill="#C6CACD"/>
<path d="M90.39 161.32H72.65V179.06H90.39V161.32Z" fill="#C6CACD"/>
<path d="M108.12 161.32H90.38V179.06H108.12V161.32Z" fill="#C6CACD"/>
<path d="M143.59 161.32H125.85V179.06H143.59V161.32Z" fill="#DD4017"/>
<path d="M161.33 161.32H143.59V179.06H161.33V161.32Z" fill="#DD4017"/>
<path d="M179.06 161.32H161.32V179.06H179.06V161.32Z" fill="#DD4017"/>
<path d="M196.8 161.32H179.06V179.06H196.8V161.32Z" fill="#DD4017"/>
<path d="M214.53 161.32H196.79V179.06H214.53V161.32Z" fill="#DD4017"/>
<path d="M232.27 161.32H214.53V179.06H232.27V161.32Z" fill="#DD4017"/>
<path d="M250 161.32H232.26V179.06H250V161.32Z" fill="#DD4017"/>
<path d="M285.48 161.32H267.74V179.06H285.48V161.32Z" fill="#C6CACD"/>
<path d="M303.21 161.32H285.47V179.06H303.21V161.32Z" fill="#C6CACD"/>
<path d="M320.95 161.32H303.21V179.06H320.95V161.32Z" fill="#C6CACD"/>
<path d="M338.68 179.06H320.94V196.8H338.68V179.06Z" fill="#C6CACD"/>
<path d="M356.42 179.06H338.68V196.8H356.42V179.06Z" fill="#C6CACD"/>
<path d="M374.15 196.79H356.41V214.53H374.15V196.79Z" fill="#C6CACD"/>
<path d="M391.89 214.53H374.15V232.27H391.89V214.53Z" fill="#C6CACD"/>
<path d="M409.62 232.26H391.88V250H409.62V232.26Z" fill="#C6CACD"/>
<path d="M427.36 250H409.62V267.74H427.36V250Z" fill="#C6CACD"/>
<path d="M445.09 267.74H427.35V285.48H445.09V267.74Z" fill="#C6CACD"/>
<path d="M445.09 285.47H427.35V303.21H445.09V285.47Z" fill="#C6CACD"/>
<path d="M445.09 303.21H427.35V320.95H445.09V303.21Z" fill="#C6CACD"/>
<path d="M445.09 320.94H427.35V338.68H445.09V320.94Z" fill="#C6CACD"/>
<path d="M445.09 338.68H427.35V356.42H445.09V338.68Z" fill="#C6CACD"/>
<path d="M445.09 356.41H427.35V374.15H445.09V356.41Z" fill="#C6CACD"/>
<path d="M462.55 285.47H444.81V303.21H462.55V285.47Z" fill="#C6CACD"/>
<path d="M462.55 303.21H444.81V320.95H462.55V303.21Z" fill="#C6CACD"/>
<path d="M462.55 320.94H444.81V338.68H462.55V320.94Z" fill="#C6CACD"/>
<path d="M462.55 338.68H444.81V356.42H462.55V338.68Z" fill="#C6CACD"/>
<path d="M462.55 356.41H444.81V374.15H462.55V356.41Z" fill="#C6CACD"/>
<path d="M445.09 374.15H427.35V391.89H445.09V374.15Z" fill="#C6CACD"/>
<path d="M427.36 267.74H409.62V285.48H427.36V267.74Z" fill="black"/>
<path d="M72.65 303.21H54.91V320.95H72.65V303.21Z" fill="black"/>
<path d="M72.65 320.94H54.91V338.68H72.65V320.94Z" fill="black"/>
<path d="M72.65 338.68H54.91V356.42H72.65V338.68Z" fill="black"/>
<path d="M90.39 338.68H72.65V356.42H90.39V338.68Z" fill="white"/>
<path d="M108.12 356.41H90.38V374.15H108.12V356.41Z" fill="white"/>
<path d="M125.86 356.41H108.12V374.15H125.86V356.41Z" fill="white"/>
<path d="M143.59 356.41H125.85V374.15H143.59V356.41Z" fill="white"/>
<path d="M161.33 356.41H143.59V374.15H161.33V356.41Z" fill="white"/>
<path d="M179.06 356.41H161.32V374.15H179.06V356.41Z" fill="white"/>
<path d="M196.8 356.41H179.06V374.15H196.8V356.41Z" fill="white"/>
<path d="M214.53 356.41H196.79V374.15H214.53V356.41Z" fill="white"/>
<path d="M232.27 356.41H214.53V374.15H232.27V356.41Z" fill="white"/>
<path d="M250 356.41H232.26V374.15H250V356.41Z" fill="white"/>
<path d="M267.74 356.41H250V374.15H267.74V356.41Z" fill="white"/>
<path d="M285.48 356.41H267.74V374.15H285.48V356.41Z" fill="white"/>
<path d="M303.21 356.41H285.47V374.15H303.21V356.41Z" fill="white"/>
<path d="M320.95 356.41H303.21V374.15H320.95V356.41Z" fill="white"/>
<path d="M338.68 356.41H320.94V374.15H338.68V356.41Z" fill="white"/>
<path d="M338.68 374.15H320.94V391.89H338.68V374.15Z" fill="white"/>
<path d="M338.68 391.88H320.94V409.62H338.68V391.88Z" fill="white"/>
<path d="M338.68 409.62H320.94V427.36H338.68V409.62Z" fill="white"/>
<path d="M356.42 409.62H338.68V427.36H356.42V409.62Z" fill="white"/>
<path d="M374.15 409.62H356.41V427.36H374.15V409.62Z" fill="white"/>
<path d="M338.68 427.35H320.94V445.09H338.68V427.35Z" fill="white"/>
<path d="M320.95 427.35H303.21V445.09H320.95V427.35Z" fill="white"/>
<path d="M303.21 427.35H285.47V445.09H303.21V427.35Z" fill="white"/>
<path d="M285.48 427.35H267.74V445.09H285.48V427.35Z" fill="white"/>
<path d="M267.74 427.35H250V445.09H267.74V427.35Z" fill="white"/>
<path d="M250 427.35H232.26V445.09H250V427.35Z" fill="white"/>
<path d="M232.27 427.35H214.53V445.09H232.27V427.35Z" fill="white"/>
<path d="M214.53 427.35H196.79V445.09H214.53V427.35Z" fill="white"/>
<path d="M196.8 427.35H179.06V445.09H196.8V427.35Z" fill="white"/>
<path d="M179.06 427.35H161.32V445.09H179.06V427.35Z" fill="white"/>
<path d="M161.33 427.35H143.59V445.09H161.33V427.35Z" fill="white"/>
<path d="M143.59 427.35H125.85V445.09H143.59V427.35Z" fill="white"/>
<path d="M143.59 409.62H125.85V427.36H143.59V409.62Z" fill="white"/>
<path d="M125.86 409.62H108.12V427.36H125.86V409.62Z" fill="white"/>
<path d="M108.12 409.62H90.38V427.36H108.12V409.62Z" fill="white"/>
<path d="M108.12 391.88H90.38V409.62H108.12V391.88Z" fill="white"/>
<path d="M90.39 391.88H72.65V409.62H90.39V391.88Z" fill="white"/>
<path d="M108.12 374.15H90.38V391.89H108.12V374.15Z" fill="white"/>
<path d="M143.59 391.88H125.85V409.62H143.59V391.88Z" fill="white"/>
<path d="M143.59 374.15H125.85V391.89H143.59V374.15Z" fill="white"/>
<path d="M356.42 356.41H338.68V374.15H356.42V356.41Z" fill="white"/>
<path d="M374.15 356.41H356.41V374.15H374.15V356.41Z" fill="white"/>
<path d="M391.89 356.41H374.15V374.15H391.89V356.41Z" fill="white"/>
<path d="M409.62 338.68H391.88V356.42H409.62V338.68Z" fill="white"/>
<path d="M391.89 374.15H374.15V391.89H391.89V374.15Z" fill="white"/>
<path d="M72.65 356.41H54.91V374.15H72.65V356.41Z" fill="black"/>
<path d="M54.92 285.47H37.18V303.21H54.92V285.47Z" fill="#C6CACD"/>
<path d="M54.92 267.74H37.18V285.48H54.92V267.74Z" fill="#C6CACD"/>
<path d="M54.92 250H37.18V267.74H54.92V250Z" fill="#C6CACD"/>
<path d="M54.92 232.26H37.18V250H54.92V232.26Z" fill="#C6CACD"/>
<path d="M54.92 214.53H37.18V232.27H54.92V214.53Z" fill="#C6CACD"/>
<path d="M54.92 196.79H37.18V214.53H54.92V196.79Z" fill="#C6CACD"/>
<path d="M54.92 303.21H37.18V320.95H54.92V303.21Z" fill="#C6CACD"/>
<path d="M54.92 320.94H37.18V338.68H54.92V320.94Z" fill="#C6CACD"/>
<path d="M54.92 338.68H37.18V356.42H54.92V338.68Z" fill="#C6CACD"/>
<path d="M54.92 356.41H37.18V374.15H54.92V356.41Z" fill="#C6CACD"/>
<path d="M72.65 374.15H54.91V391.89H72.65V374.15Z" fill="black"/>
<path d="M72.65 391.88H54.91V409.62H72.65V391.88Z" fill="black"/>
<path d="M108.12 427.35H90.38V445.09H108.12V427.35Z" fill="black"/>
<path d="M90.39 409.62H72.65V427.36H90.39V409.62Z" fill="black"/>
<path d="M125.86 427.35H108.12V445.09H125.86V427.35Z" fill="black"/>
<path d="M143.59 445.09H125.85V462.83H143.59V445.09Z" fill="black"/>
<path d="M161.33 445.09H143.59V462.83H161.33V445.09Z" fill="black"/>
<path d="M179.06 445.09H161.32V462.83H179.06V445.09Z" fill="black"/>
<path d="M196.8 445.09H179.06V462.83H196.8V445.09Z" fill="black"/>
<path d="M214.53 445.09H196.79V462.83H214.53V445.09Z" fill="black"/>
<path d="M232.27 445.09H214.53V462.83H232.27V445.09Z" fill="black"/>
<path d="M250 445.09H232.26V462.83H250V445.09Z" fill="black"/>
<path d="M267.74 445.09H250V462.83H267.74V445.09Z" fill="black"/>
<path d="M214.53 391.88H196.79V409.62H214.53V391.88Z" fill="black"/>
<path d="M232.27 391.88H214.53V409.62H232.27V391.88Z" fill="black"/>
<path d="M250 391.88H232.26V409.62H250V391.88Z" fill="black"/>
<path d="M267.74 391.88H250V409.62H267.74V391.88Z" fill="black"/>
<path d="M285.48 391.88H267.74V409.62H285.48V391.88Z" fill="black"/>
<path d="M285.48 445.09H267.74V462.83H285.48V445.09Z" fill="black"/>
<path d="M303.21 445.09H285.47V462.83H303.21V445.09Z" fill="black"/>
<path d="M320.95 445.09H303.21V462.83H320.95V445.09Z" fill="black"/>
<path d="M338.68 445.09H320.94V462.83H338.68V445.09Z" fill="black"/>
<path d="M356.42 427.35H338.68V445.09H356.42V427.35Z" fill="black"/>
<path d="M374.15 427.35H356.41V445.09H374.15V427.35Z" fill="black"/>
<path d="M391.89 409.62H374.15V427.36H391.89V409.62Z" fill="black"/>
<path d="M391.89 391.88H374.15V409.62H391.89V391.88Z" fill="white"/>
<path d="M409.62 391.88H391.88V409.62H409.62V391.88Z" fill="white"/>
<path d="M409.62 374.15H391.88V391.89H409.62V374.15Z" fill="white"/>
<path d="M427.36 374.15H409.62V391.89H427.36V374.15Z" fill="black"/>
<path d="M54.92 196.79H37.18V214.53H54.92V196.79Z" fill="black"/>
<path d="M72.65 179.06H54.91V196.8H72.65V179.06Z" fill="black"/>
</svg>
