<svg width="808" height="464" viewBox="0 0 808 464" fill="none" xmlns="http://www.w3.org/2000/svg">
<g clip-path="url(#clip0_3_2)">
<path d="M8.73593 356.199H808.204V447.067H790.202V464.352H-0.204468V422.37H35.806V398.182H8.73593V356.199Z" fill="black"/>
<path d="M66.1512 385.833V452.009H12.1443V434.718H48.1489V385.833H66.1512ZM21.0847 385.833V368.565H48.1489V385.85L21.0847 385.833Z" fill="white"/>
<path d="M141.152 368.565V452.009H96.2014V434.718H78.2107V368.565H96.2188V434.736H123.162V368.565H141.152Z" fill="white"/>
<path d="M172.389 385.833V434.718H197.19V418.979H183.719V401.549H215.193V451.986H172.371V435.413H154.386V368.565H215.193V385.85L172.389 385.833Z" fill="white"/>
<path d="M245.839 385.833V434.718H270.64V418.979H257.163V401.549H288.643V451.986H245.821V435.413H227.831V368.565H288.643V385.85L245.839 385.833Z" fill="white"/>
<path d="M319.168 385.833V400.392H340.989V417.683H319.168V434.73H353.888V452.021H317.617V434.73H301.165V368.565H353.864V385.85L319.168 385.833Z" fill="white"/>
<path d="M409.665 411.826V429.233H382.717V452.009H364.714V368.565H409.665V385.85H382.717V411.844L409.665 411.826ZM409.665 411.826V385.833H427.668V411.826H409.665ZM409.665 452.009V429.233H427.668V452.009H409.665Z" fill="white"/>
<path d="M486.448 385.833H458.314V452.009H440.306V368.565H486.448V385.833ZM486.448 452.009V385.833H504.457V452.009H486.448Z" fill="white"/>
<path d="M579.215 385.833V452.009H561.212V429.233H535.693V452.009H517.691V368.565H561.212V385.85H535.693V411.844H561.212V385.85L579.215 385.833Z" fill="white"/>
<path d="M654.21 368.565V452.009H609.259V434.718H591.257V368.565H609.259V434.736H636.207V368.565H654.21Z" fill="white"/>
<path d="M726.468 368.565V385.85H703.454V452.009H685.452V385.833H662.305V368.565H726.468Z" fill="white"/>
<path d="M795.856 400.259V434.718H777.853V452.009H732.903V434.718H777.853V417.549H732.903V385.833H750.911V368.565H795.856V385.85H750.911V400.276L795.856 400.259Z" fill="white"/>
<path d="M547.376 149.499V142.365H540.236V135.224H525.96V49.6042H518.842V42.4635H511.701V28.1878H504.561V21.0528H497.426V13.9121H490.291V6.77713H468.874V-0.346252H376.114V6.77713H361.838V13.9121H354.703V21.0528H347.563V35.3285H340.439V99.549H326.274V106.707H319.133V113.842H311.998V120.977H304.857V128.118H297.722V135.241H291.096V128.118H248.42V135.241H241.389V185.174H248.42V192.309H255.543L255.56 192.327V199.45H291.096V192.703H298.202V192.327H304.857V185.192L304.874 185.174H322.732H326.274H333.409V199.45H326.274V213.726H319.133V228.001H311.998V256.535H319.133V263.676H311.998V270.811H304.857V277.952H290.599V285.087H283.458V292.228H276.323V299.363H269.182V306.486H262.047V342.172H269.182V349.313H276.323V356.448H311.998V349.313H319.133V335.037H326.274V327.902H333.409V320.762H347.684V313.621H354.819V306.486H358.575H361.943H383.359V356.436H390.494V363.571H447.585V356.436H454.72V342.161H447.585V277.935H440.444V270.811H433.31V263.555H440.34V256.535H444.773H447.585H511.701V249.4H518.842V242.277H525.96V235.136H533.101V228.001H540.236V206.591H547.376V199.45H554.511V149.499H547.376Z" fill="black"/>
<path d="M331.233 227.996H395.459V235.131H409.729V242.271H416.864V249.406H423.999V256.541H374.048V263.676H366.913V270.811L359.778 270.805V277.94H352.643V270.805L345.503 270.811V263.676L338.368 263.67V256.535L331.233 256.541V227.996Z" fill="white"/>
<path d="M423.889 242.271H452.434V256.426H445.299V263.56H438.164V256.426L431.03 256.541V249.406H423.999L423.889 242.271Z" fill="white"/>
<path d="M338.368 263.676H331.233V270.811L324.098 270.805V277.94L316.963 277.952V285.087H324.098V292.222H331.233V299.357H338.368V306.492H345.503V313.633H352.533L359.778 313.621L366.913 306.486V299.357H374.048V292.216L359.668 285.087L352.643 285.081V277.94L345.503 277.911V270.776L338.368 270.811V263.676Z" fill="#F8C5AF"/>
<path d="M374.048 263.676H423.999V256.541L431.134 256.535V263.67H438.274V270.805H445.409V277.94H452.544V299.351H388.318V292.222L374.048 292.216V285.081H359.778V277.94L366.913 277.952V270.811H374.048V263.676Z" fill="#F8C5AF"/>
<path d="M431.024 256.541H423.889V263.676H431.024V256.541Z" fill="black"/>
<path d="M431.024 249.406H423.889V256.541H431.024V249.406Z" fill="black"/>
<path d="M423.999 242.271H416.864V249.406H423.999V242.271Z" fill="black"/>
<path d="M438.269 256.535H431.03V263.67H438.269V256.535Z" fill="black"/>
<path d="M366.913 270.811H359.778V277.946H366.913V270.811Z" fill="black"/>
<path d="M374.048 263.676H366.913V270.811H374.048V263.676Z" fill="black"/>
<path d="M381.183 256.541H374.048V263.676H381.183V256.541Z" fill="black"/>
<path d="M388.318 256.541H381.183V263.676H388.318V256.541Z" fill="black"/>
<path d="M395.453 256.541H388.318V263.676H395.453V256.541Z" fill="black"/>
<path d="M402.594 256.541H395.459V263.676H402.594V256.541Z" fill="black"/>
<path d="M409.729 256.541H402.594V263.676H409.729V256.541Z" fill="black"/>
<path d="M416.864 256.541H409.729V263.676H416.864V256.541Z" fill="black"/>
<path d="M423.999 256.541H416.864V263.676H423.999V256.541Z" fill="black"/>
<path d="M445.404 263.67H438.269V270.805H445.404V263.67Z" fill="black"/>
<path d="M459.679 277.94H452.544V285.075H459.679V277.94Z" fill="black"/>
<path d="M459.679 292.216H452.544V299.351H459.679V292.216Z" fill="black"/>
<path d="M459.679 285.081H452.544V292.216H459.679V285.081Z" fill="black"/>
<path d="M459.679 299.351H452.544V306.486H459.679V299.351Z" fill="black"/>
<path d="M459.679 306.486H452.544V313.621H459.679V306.486Z" fill="black"/>
<path d="M459.679 313.621H452.544V320.756H459.679V313.621Z" fill="black"/>
<path d="M459.679 320.756H452.544V327.891H459.679V320.756Z" fill="black"/>
<path d="M459.679 327.897H452.544V335.032H459.679V327.897Z" fill="black"/>
<path d="M452.544 299.351H445.409V306.486H452.544V299.351Z" fill="black"/>
<path d="M445.409 299.351H438.274V306.486H445.409V299.351Z" fill="black"/>
<path d="M438.274 299.351H431.14V306.486H438.274V299.351Z" fill="black"/>
<path d="M431.134 299.357H423.999V306.492H431.134V299.357Z" fill="black"/>
<path d="M423.999 299.351H416.864V306.486H423.999V299.351Z" fill="black"/>
<path d="M416.864 299.351H409.729V306.486H416.864V299.351Z" fill="black"/>
<path d="M409.729 299.357H402.594V306.492H409.729V299.357Z" fill="black"/>
<path d="M402.594 306.486H395.459V313.621H402.594V306.486Z" fill="black"/>
<path d="M402.594 299.357H395.459V306.492H402.594V299.357Z" fill="black"/>
<path d="M388.318 292.222H381.183V299.357H388.318V292.222Z" fill="black"/>
<path d="M395.453 299.351H388.318V306.486H395.453V299.351Z" fill="black"/>
<path d="M381.183 292.216H374.048V299.351H381.183V292.216Z" fill="black"/>
<path d="M374.048 285.081H366.913V292.216H374.048V285.081Z" fill="black"/>
<path d="M366.913 285.081H359.778V292.216H366.913V285.081Z" fill="black"/>
<path d="M359.778 277.94H352.643V285.075H359.778V277.94Z" fill="black"/>
<path d="M352.638 270.805H345.503V277.94H352.638V270.805Z" fill="black"/>
<path d="M345.503 263.67H338.368V270.805H345.503V263.67Z" fill="black"/>
<path d="M338.368 256.535H331.233V263.67H338.368V256.535Z" fill="black"/>
<path d="M402.594 313.621H395.459V320.756H402.594V313.621Z" fill="black"/>
<path d="M402.594 320.756H395.459V327.891H402.594V320.756Z" fill="black"/>
<path d="M402.594 327.897H395.459V335.032H402.594V327.897Z" fill="black"/>
<path d="M402.594 335.032H395.459V342.167H402.594V335.032Z" fill="black"/>
<path d="M409.729 335.032H402.594V342.167H409.729V335.032Z" fill="black"/>
<path d="M416.864 335.032H409.729V342.167H416.864V335.032Z" fill="black"/>
<path d="M423.999 335.032H416.864V342.167H423.999V335.032Z" fill="black"/>
<path d="M431.134 335.032H423.999V342.167H431.134V335.032Z" fill="black"/>
<path d="M438.274 335.032H431.14V342.167H438.274V335.032Z" fill="black"/>
<path d="M445.409 335.032H438.274V342.167H445.409V335.032Z" fill="black"/>
<path d="M452.544 335.032H445.409V342.167H452.544V335.032Z" fill="black"/>
<path d="M459.679 335.032H452.544V342.167H459.679V335.032Z" fill="black"/>
<path d="M402.594 349.313H409.729V342.178H402.594V349.313Z" fill="#333333"/>
<path d="M409.729 349.313H416.864V342.178H409.729V349.313Z" fill="#333333"/>
<path d="M416.87 349.313H424.005V342.178H416.87V349.313Z" fill="#333333"/>
<path d="M424.005 349.313H431.14V342.178H424.005V349.313Z" fill="#333333"/>
<path d="M431.134 349.313H438.269V342.178H431.134V349.313Z" fill="#333333"/>
<path d="M438.274 349.313H445.409V342.178H438.274V349.313Z" fill="#333333"/>
<path d="M445.409 349.313H452.544V342.178H445.409V349.313Z" fill="#333333"/>
<path d="M452.544 349.313H459.679V342.178H452.544V349.313Z" fill="#333333"/>
<path d="M402.594 356.454H409.729V349.319H402.594V356.454Z" fill="#333333"/>
<path d="M409.729 356.454H416.864V349.319H409.729V356.454Z" fill="#333333"/>
<path d="M416.87 356.454H424.005V349.319H416.87V356.454Z" fill="#333333"/>
<path d="M424.005 356.454H431.14V349.319H424.005V356.454Z" fill="#333333"/>
<path d="M431.134 356.454H438.269V349.319H431.134V356.454Z" fill="#333333"/>
<path d="M438.274 356.454H445.409V349.319H438.274V356.454Z" fill="#333333"/>
<path d="M445.409 356.454H452.544V349.319H445.409V356.454Z" fill="#333333"/>
<path d="M452.544 356.454H459.679V349.319H452.544V356.454Z" fill="#333333"/>
<path d="M466.814 342.167H459.679V349.302H466.814V342.167Z" fill="black"/>
<path d="M402.594 342.167H395.459V349.302H402.594V342.167Z" fill="black"/>
<path d="M409.729 356.436H402.594V363.571H409.729V356.436Z" fill="black"/>
<path d="M402.594 349.302H395.459V356.436H402.594V349.302Z" fill="black"/>
<path d="M416.864 356.436H409.729V363.571H416.864V356.436Z" fill="black"/>
<path d="M423.999 356.436H416.864V363.571H423.999V356.436Z" fill="black"/>
<path d="M431.134 356.436H423.999V363.571H431.134V356.436Z" fill="black"/>
<path d="M438.274 356.436H431.14V363.571H438.274V356.436Z" fill="black"/>
<path d="M445.409 356.436H438.274V363.571H445.409V356.436Z" fill="black"/>
<path d="M452.544 356.436H445.409V363.571H452.544V356.436Z" fill="black"/>
<path d="M459.679 356.436H452.544V363.571H459.679V356.436Z" fill="black"/>
<path d="M466.814 349.302H459.679V356.436H466.814V349.302Z" fill="black"/>
<path d="M452.544 270.805H445.409V277.94H452.544V270.805Z" fill="black"/>
<path d="M409.729 306.486L402.594 306.492V335.032H452.544V306.492H409.729V306.486Z" fill="#FC771D"/>
<path d="M445.409 327.897H452.544V320.762H445.409V327.897Z" fill="#DD4017"/>
<path d="M409.729 306.492H402.594V313.627H409.729V306.492Z" fill="white"/>
<path d="M402.594 320.75H409.729V313.615H402.594V320.75Z" fill="#FCC342"/>
<path d="M416.864 313.615H409.729V320.75H416.864V313.615Z" fill="white"/>
<path d="M423.999 313.615H416.864V320.75H423.999V313.615Z" fill="white"/>
<path d="M431.134 313.615H423.999V320.75H431.134V313.615Z" fill="white"/>
<path d="M438.274 313.615H431.14V320.75H438.274V313.615Z" fill="white"/>
<path d="M445.409 313.615H438.274V320.75H445.409V313.615Z" fill="white"/>
<path d="M452.544 313.615H445.409V320.75H452.544V313.615Z" fill="white"/>
<path d="M402.594 327.902H409.729V320.767H402.594V327.902Z" fill="#FCC342"/>
<path d="M402.594 335.037H409.729V327.902H402.594V335.037Z" fill="#FCC342"/>
<path d="M445.409 335.026H452.544V327.891H445.409V335.026Z" fill="#DD4017"/>
<path d="M438.274 335.026H445.409V327.891H438.274V335.026Z" fill="#DD4017"/>
<path d="M431.134 335.026H438.269V327.891H431.134V335.026Z" fill="#DD4017"/>
<path d="M445.409 313.621H452.544V306.486H445.409V313.621Z" fill="#DD4017"/>
<path d="M316.963 285.087H302.687V292.222H295.552V299.357H288.417V306.492H295.552V335.037H331.233V327.902H338.368V320.767H345.503V313.633H338.368V306.492H331.233V299.357H324.098V292.222H316.963V285.087Z" fill="#FC771D"/>
<path d="M459.569 192.315H431.03L431.134 227.996H438.164V235.131H466.71V206.591H459.569V192.315Z" fill="#8F95B8"/>
<path d="M530.931 199.456H509.526V206.591H473.845V249.406H523.796V242.271H530.931V235.131H538.066V227.996H545.2V206.591H530.931V199.456Z" fill="#F8C5AF"/>
<path d="M331.233 128.095V142.37H324.098V163.775H331.233V170.91H324.098V178.051L316.963 185.186L309.822 192.321H281.282V185.186H274.147V163.775H281.282V156.64H288.417V149.505H295.552V142.37H309.822V135.235H324.098V128.095H331.233Z" fill="#F8C5AF"/>
<path d="M523.796 142.365H552.341V149.5H559.476V199.456H530.931V192.315H502.385V185.18H495.25V199.456H466.71V192.315H459.569V185.18H431.03V192.315H423.999V227.996H395.459V220.861H338.368V213.726H345.503V199.456H352.643V185.18H359.778V178.045H352.643V170.91H359.778V163.775H352.643V170.719V170.91H338.368V156.64H331.233V135.23H338.368V113.819V106.684H345.503H352.533V135.23H359.778L359.668 142.365H366.803V149.5H381.073V156.64H395.349V163.775H409.619V178.045H416.754V185.18H445.299V178.045H452.434V170.91H495.25V163.775H509.526V156.64H516.661V149.5H523.796V142.365Z" fill="#FC771D"/>
<path d="M431.029 185.18H395.349V220.861H402.594V227.996L409.729 235.131H423.999V225.363V192.315H431.029V185.18Z" fill="#C16B2D"/>
<path d="M352.638 99.549H345.503V106.684H352.638V99.549Z" fill="black"/>
<path d="M345.503 99.549H338.368V106.684H345.503V99.549Z" fill="black"/>
<path d="M338.362 106.707H331.227V113.842H338.362V106.707Z" fill="black"/>
<path d="M331.227 113.842H324.092V120.977H331.227V113.842Z" fill="black"/>
<path d="M324.092 120.983H316.957V128.118H324.092V120.983Z" fill="black"/>
<path d="M316.957 128.118H309.822V135.253H316.957V128.118Z" fill="black"/>
<path d="M309.822 135.235H302.687V142.37H309.822V135.235Z" fill="black"/>
<path d="M302.687 135.235H295.552V142.37H302.687V135.235Z" fill="black"/>
<path d="M295.552 142.37H288.417V149.505H295.552V142.37Z" fill="black"/>
<path d="M288.417 149.505H281.282V156.64H288.417V149.505Z" fill="black"/>
<path d="M316.957 135.259H324.092V128.124H316.957V135.259Z" fill="#FFE4DD"/>
<path d="M316.963 142.365H324.098V135.23H316.963V142.365Z" fill="#FFE4DD"/>
<path d="M309.828 142.365H316.963V135.23H309.828V142.365Z" fill="#FFE4DD"/>
<path d="M302.693 149.505H309.828V142.37H302.693V149.505Z" fill="#FFE4DD"/>
<path d="M295.552 149.505H302.687V142.37H295.552V149.505Z" fill="#FFE4DD"/>
<path d="M288.417 156.64H295.552V149.505H288.417V156.64Z" fill="#FFE4DD"/>
<path d="M281.282 163.775H288.417V156.64H281.282V163.775Z" fill="#FFE4DD"/>
<path d="M324.098 178.034H316.963V185.169H324.098V178.034Z" fill="black"/>
<path d="M331.233 178.034H324.098V185.169H331.233V178.034Z" fill="black"/>
<path d="M338.368 178.034H331.233V185.169H338.368V178.034Z" fill="black"/>
<path d="M316.963 178.051H324.098V170.916H316.963V178.051Z" fill="#E19A81"/>
<path d="M309.828 185.18H316.963V178.045H309.828V185.18Z" fill="#E19A81"/>
<path d="M324.098 178.051H331.233V170.916H324.098V178.051Z" fill="#E19A81"/>
<path d="M331.233 178.051H338.368V170.916H331.233V178.051Z" fill="#E19A81"/>
<path d="M324.098 170.916H331.233V163.781H324.098V170.916Z" fill="#E19A81"/>
<path d="M338.368 163.775H331.233V170.91H338.368V163.775Z" fill="black"/>
<path d="M338.368 156.64H331.233V163.775H338.368V156.64Z" fill="white"/>
<path d="M331.233 156.64H324.098V163.775H331.233V156.64Z" fill="black"/>
<path d="M331.233 149.505H324.098V156.64H331.233V149.505Z" fill="black"/>
<path d="M331.233 142.37H324.098V149.505H331.233V142.37Z" fill="black"/>
<path d="M331.233 135.235H324.098V142.37H331.233V135.235Z" fill="black"/>
<path d="M331.227 128.118H324.092V135.253H331.227V128.118Z" fill="black"/>
<path d="M331.227 120.983H324.092V128.118H331.227V120.983Z" fill="black"/>
<path d="M345.503 170.91H338.368V178.045H345.503V170.91Z" fill="black"/>
<path d="M352.638 170.91H345.503V178.045H352.638V170.91Z" fill="black"/>
<path d="M359.778 163.775H352.643V170.91H359.778V163.775Z" fill="black"/>
<path d="M359.778 178.045H352.643V185.18H359.778V178.045Z" fill="black"/>
<path d="M352.638 185.18H345.503V192.315H352.638V185.18Z" fill="black"/>
<path d="M352.638 192.315H345.503V199.45H352.638V192.315Z" fill="black"/>
<path d="M345.503 199.456H338.368V206.591H345.503V199.456Z" fill="black"/>
<path d="M345.503 206.591H338.368V213.726H345.503V206.591Z" fill="black"/>
<path d="M338.368 213.726H331.233V220.861H338.368V213.726Z" fill="black"/>
<path d="M338.368 220.861H331.233V227.996H338.368V220.861Z" fill="black"/>
<path d="M331.233 227.996H324.098V235.131H331.233V227.996Z" fill="black"/>
<path d="M331.233 235.136H324.098V242.271H331.233V235.136Z" fill="black"/>
<path d="M331.233 242.271H324.098V249.406H331.233V242.271Z" fill="black"/>
<path d="M331.233 249.406H324.098V256.541H331.233V249.406Z" fill="black"/>
<path d="M338.368 227.996H331.233V235.131H338.368V227.996Z" fill="#C6CACD"/>
<path d="M345.503 227.996H338.368V235.131H345.503V227.996Z" fill="#C6CACD"/>
<path d="M338.368 235.136H331.233V242.271H338.368V235.136Z" fill="#C6CACD"/>
<path d="M338.368 242.271H331.233V249.406H338.368V242.271Z" fill="#C6CACD"/>
<path d="M338.368 249.406H331.233V256.541H338.368V249.406Z" fill="#C6CACD"/>
<path d="M345.503 242.271H338.368V249.406H345.503V242.271Z" fill="#C6CACD"/>
<path d="M345.503 249.406H338.368V256.541H345.503V249.406Z" fill="#C6CACD"/>
<path d="M452.434 242.271H445.299V249.406H452.434V242.271Z" fill="#C6CACD"/>
<path d="M452.544 249.406H445.409V256.541H452.544V249.406Z" fill="#C6CACD"/>
<path d="M438.164 249.406H431.03V256.541H438.164V249.406Z" fill="#C6CACD"/>
<path d="M445.404 256.535H438.269V263.67H445.404V256.535Z" fill="#C6CACD"/>
<path d="M345.503 256.535H338.368V263.67H345.503V256.535Z" fill="#C6CACD"/>
<path d="M352.638 256.535H345.503V263.67H352.638V256.535Z" fill="#C6CACD"/>
<path d="M352.638 263.676H345.503V270.811H352.638V263.676Z" fill="#C6CACD"/>
<path d="M359.778 263.676H352.643V270.811H359.778V263.676Z" fill="#C6CACD"/>
<path d="M359.778 270.805H352.643V277.94H359.778V270.805Z" fill="#C6CACD"/>
<path d="M359.778 285.081H366.913V277.946H359.778V285.081Z" fill="#E19A81"/>
<path d="M366.913 285.081H374.048V277.946H366.913V285.081Z" fill="#E19A81"/>
<path d="M374.048 285.081H381.183V277.946H374.048V285.081Z" fill="#E19A81"/>
<path d="M374.048 292.21H381.183V285.075H374.048V292.21Z" fill="#E19A81"/>
<path d="M381.189 292.21H388.324V285.075H381.189V292.21Z" fill="#E19A81"/>
<path d="M388.214 292.21H395.349V285.075H388.214V292.21Z" fill="#E19A81"/>
<path d="M388.324 299.351H395.459V292.216H388.324V299.351Z" fill="#E19A81"/>
<path d="M331.233 263.676H324.098V270.811H331.233V263.676Z" fill="black"/>
<path d="M324.098 270.805H316.963V277.94H324.098V270.805Z" fill="black"/>
<path d="M316.957 277.952H309.822V285.087H316.957V277.952Z" fill="black"/>
<path d="M324.098 285.087H316.963V292.222H324.098V285.087Z" fill="black"/>
<path d="M331.233 292.222H324.098V299.357H331.233V292.222Z" fill="black"/>
<path d="M338.368 299.357H331.233V306.492H338.368V299.357Z" fill="black"/>
<path d="M345.503 306.492H338.368V313.627H345.503V306.492Z" fill="black"/>
<path d="M309.822 277.952H302.687V285.087H309.822V277.952Z" fill="black"/>
<path d="M302.687 285.087H295.552V292.222H302.687V285.087Z" fill="black"/>
<path d="M309.822 306.492H302.687V313.627H309.822V306.492Z" fill="white"/>
<path d="M316.957 313.633H309.822V320.767H316.957V313.633Z" fill="white"/>
<path d="M324.098 320.767H316.963V327.902H324.098V320.767Z" fill="white"/>
<path d="M331.233 320.767H324.098V327.902H331.233V320.767Z" fill="white"/>
<path d="M295.552 292.222H288.417V299.357H295.552V292.222Z" fill="black"/>
<path d="M309.828 292.222H316.963V285.087H309.828V292.222Z" fill="#FCC342"/>
<path d="M302.693 292.222H309.828V285.087H302.693V292.222Z" fill="#FCC342"/>
<path d="M295.552 299.357H302.687V292.222H295.552V299.357Z" fill="#FCC342"/>
<path d="M288.417 306.492H295.552V299.357H288.417V306.492Z" fill="#FCC342"/>
<path d="M288.417 299.357H281.282V306.492H288.417V299.357Z" fill="black"/>
<path d="M281.282 306.492H274.147V313.627H281.282V306.492Z" fill="black"/>
<path d="M281.282 313.633H274.147V320.767H281.282V313.633Z" fill="black"/>
<path d="M281.282 320.767H274.147V327.902H281.282V320.767Z" fill="black"/>
<path d="M281.282 327.902H274.147V335.037H281.282V327.902Z" fill="black"/>
<path d="M281.282 335.037H274.147V342.172H281.282V335.037Z" fill="black"/>
<path d="M288.417 342.172H281.282V349.307H288.417V342.172Z" fill="black"/>
<path d="M295.552 349.307H288.417V356.442H295.552V349.307Z" fill="black"/>
<path d="M302.687 349.307H295.552V356.442H302.687V349.307Z" fill="black"/>
<path d="M309.822 349.307H302.687V356.442H309.822V349.307Z" fill="black"/>
<path d="M316.957 349.307H309.822V356.442H316.957V349.307Z" fill="black"/>
<path d="M324.098 349.307H316.963V356.442H324.098V349.307Z" fill="black"/>
<path d="M331.233 342.172H324.098V349.307H331.233V342.172Z" fill="black"/>
<path d="M331.233 335.037H324.098V342.172H331.233V335.037Z" fill="black"/>
<path d="M338.368 327.902H331.233V335.037H338.368V327.902Z" fill="black"/>
<path d="M352.638 313.633H345.503V320.767H352.638V313.633Z" fill="black"/>
<path d="M359.778 313.621H352.643V320.756H359.778V313.621Z" fill="black"/>
<path d="M366.913 306.486H359.778V313.621H366.913V306.486Z" fill="black"/>
<path d="M374.048 299.357H366.913V306.492H374.048V299.357Z" fill="black"/>
<path d="M345.503 320.767H338.368V327.902H345.503V320.767Z" fill="black"/>
<path d="M324.098 335.037H316.963V342.172H324.098V335.037Z" fill="black"/>
<path d="M316.957 335.037H309.822V342.172H316.957V335.037Z" fill="black"/>
<path d="M309.822 335.037H302.687V342.172H309.822V335.037Z" fill="black"/>
<path d="M302.687 335.037H295.552V342.172H302.687V335.037Z" fill="black"/>
<path d="M295.552 327.902H288.417V335.037H295.552V327.902Z" fill="black"/>
<path d="M295.552 320.767H288.417V327.902H295.552V320.767Z" fill="black"/>
<path d="M295.552 313.633H288.417V320.767H295.552V313.633Z" fill="black"/>
<path d="M295.552 306.492H288.417V313.627H295.552V306.492Z" fill="black"/>
<path d="M416.864 235.136H409.729V242.271H416.864V235.136Z" fill="black"/>
<path d="M459.679 242.271H452.544V249.406H459.679V242.271Z" fill="black"/>
<path d="M459.679 249.406H452.544V256.541H459.679V249.406Z" fill="black"/>
<path d="M452.544 256.535H445.409V263.67H452.544V256.535Z" fill="black"/>
<path d="M345.503 220.861H338.368V227.996H345.503V220.861Z" fill="black"/>
<path d="M352.638 220.861H345.503V227.996H352.638V220.861Z" fill="black"/>
<path d="M359.778 220.861H352.643V227.996H359.778V220.861Z" fill="black"/>
<path d="M366.913 220.861H359.778V227.996H366.913V220.861Z" fill="black"/>
<path d="M374.048 220.861H366.913V227.996H374.048V220.861Z" fill="black"/>
<path d="M381.183 220.861H374.048V227.996H381.183V220.861Z" fill="black"/>
<path d="M388.318 220.861H381.183V227.996H388.318V220.861Z" fill="black"/>
<path d="M345.508 220.861H352.643V213.726H345.508V220.861Z" fill="#DD4017"/>
<path d="M352.637 220.861H359.772V213.726H352.637V220.861Z" fill="#DD4017"/>
<path d="M359.778 220.861H366.913V213.726H359.778V220.861Z" fill="#DD4017"/>
<path d="M366.913 220.861H374.048V213.726H366.913V220.861Z" fill="#DD4017"/>
<path d="M374.048 220.861H381.183V213.726H374.048V220.861Z" fill="#DD4017"/>
<path d="M381.189 220.861H388.324V213.726H381.189V220.861Z" fill="#DD4017"/>
<path d="M395.453 220.861H388.318V227.996H395.453V220.861Z" fill="black"/>
<path d="M402.594 227.996H395.459V235.131H402.594V227.996Z" fill="black"/>
<path d="M409.729 227.996H402.594V235.131H409.729V227.996Z" fill="black"/>
<path d="M423.999 235.136H416.864V242.271H423.999V235.136Z" fill="black"/>
<path d="M431.024 235.136H423.889V242.271H431.024V235.136Z" fill="black"/>
<path d="M438.147 235.136H431.012V242.271H438.147V235.136Z" fill="black"/>
<path d="M466.704 235.136H459.569V242.271H466.704V235.136Z" fill="black"/>
<path d="M459.569 235.136H452.434V242.271H459.569V235.136Z" fill="black"/>
<path d="M452.434 235.136H445.299V242.271H452.434V235.136Z" fill="black"/>
<path d="M445.299 235.136H438.164V242.271H445.299V235.136Z" fill="black"/>
<path d="M438.164 227.996H431.03V235.131H438.164V227.996Z" fill="black"/>
<path d="M459.575 235.136H466.71V228.001H459.575V235.136Z" fill="#5C628E"/>
<path d="M452.434 235.136H459.569V228.001H452.434V235.136Z" fill="#5C628E"/>
<path d="M445.299 235.136H452.434V228.001H445.299V235.136Z" fill="#5C628E"/>
<path d="M438.164 235.136H445.299V228.001H438.164V235.136Z" fill="#5C628E"/>
<path d="M438.164 228.001H445.299V220.866H438.164V228.001Z" fill="#5C628E"/>
<path d="M431.024 228.001H438.159V220.866H431.024V228.001Z" fill="#5C628E"/>
<path d="M431.024 213.726H438.159V206.591H431.024V213.726Z" fill="#5C628E"/>
<path d="M431.134 227.996H423.999V235.131H431.134V227.996Z" fill="black"/>
<path d="M431.134 220.861H423.999V227.996H431.134V220.861Z" fill="black"/>
<path d="M431.134 213.726H423.999V220.861H431.134V213.726Z" fill="black"/>
<path d="M431.134 206.591H423.999V213.726H431.134V206.591Z" fill="black"/>
<path d="M431.134 199.456H423.999V206.591H431.134V199.456Z" fill="black"/>
<path d="M431.134 192.315H423.999V199.45H431.134V192.315Z" fill="black"/>
<path d="M438.274 199.456H431.14V206.591H438.274V199.456Z" fill="black"/>
<path d="M445.409 199.456H438.274V206.591H445.409V199.456Z" fill="black"/>
<path d="M438.274 213.726H431.14V220.861H438.274V213.726Z" fill="black"/>
<path d="M445.409 213.726H438.274V220.861H445.409V213.726Z" fill="black"/>
<path d="M438.164 185.18H431.03V192.315H438.164V185.18Z" fill="black"/>
<path d="M445.299 185.18H438.164V192.315H445.299V185.18Z" fill="black"/>
<path d="M452.434 185.18H445.299V192.315H452.434V185.18Z" fill="black"/>
<path d="M459.569 185.18H452.434V192.315H459.569V185.18Z" fill="black"/>
<path d="M466.704 192.315H459.569V199.45H466.704V192.315Z" fill="black"/>
<path d="M466.704 199.456H459.569V206.591H466.704V199.456Z" fill="black"/>
<path d="M538.066 135.23H530.931V142.365H538.066V135.23Z" fill="black"/>
<path d="M545.2 135.23H538.065V142.365H545.2V135.23Z" fill="black"/>
<path d="M552.335 135.23H545.2V142.365H552.335V135.23Z" fill="black"/>
<path d="M559.476 142.365H552.341V149.5H559.476V142.365Z" fill="black"/>
<path d="M566.611 149.499H559.476V156.634H566.611V149.499Z" fill="black"/>
<path d="M566.611 156.64H559.476V163.775H566.611V156.64Z" fill="black"/>
<path d="M566.611 163.775H559.476V170.91H566.611V163.775Z" fill="black"/>
<path d="M566.611 170.91H559.476V178.045H566.611V170.91Z" fill="black"/>
<path d="M566.611 178.045H559.476V185.18H566.611V178.045Z" fill="black"/>
<path d="M566.611 185.18H559.476V192.315H566.611V185.18Z" fill="black"/>
<path d="M566.611 192.315H559.476V199.45H566.611V192.315Z" fill="black"/>
<path d="M559.476 199.456H552.341V206.591H559.476V199.456Z" fill="black"/>
<path d="M552.335 199.456H545.2V206.591H552.335V199.456Z" fill="black"/>
<path d="M552.335 206.591H545.2V213.726H552.335V206.591Z" fill="black"/>
<path d="M552.335 213.726H545.2V220.861H552.335V213.726Z" fill="black"/>
<path d="M552.335 220.861H545.2V227.996H552.335V220.861Z" fill="black"/>
<path d="M545.2 227.996H538.065V235.131H545.2V227.996Z" fill="black"/>
<path d="M538.066 235.136H530.931V242.271H538.066V235.136Z" fill="black"/>
<path d="M530.931 242.271H523.796V249.406H530.931V242.271Z" fill="black"/>
<path d="M523.796 249.406H516.661V256.541H523.796V249.406Z" fill="black"/>
<path d="M516.661 249.406H509.526V256.541H516.661V249.406Z" fill="black"/>
<path d="M509.52 249.406H502.385V256.541H509.52V249.406Z" fill="black"/>
<path d="M502.385 249.406H495.25V256.541H502.385V249.406Z" fill="black"/>
<path d="M495.25 249.406H488.115V256.541H495.25V249.406Z" fill="black"/>
<path d="M488.115 249.406H480.98V256.541H488.115V249.406Z" fill="black"/>
<path d="M480.98 249.406H473.845V256.541H480.98V249.406Z" fill="black"/>
<path d="M538.071 228.001H545.206V220.866H538.071V228.001Z" fill="#E19A81"/>
<path d="M530.931 235.136H538.066V228.001H530.931V235.136Z" fill="#E19A81"/>
<path d="M523.796 242.266H530.931V235.131H523.796V242.266Z" fill="#E19A81"/>
<path d="M516.661 249.406H523.796V242.271H516.661V249.406Z" fill="#E19A81"/>
<path d="M509.52 249.406H516.655V242.271H509.52V249.406Z" fill="#E19A81"/>
<path d="M502.391 249.406H509.526V242.271H502.391V249.406Z" fill="#E19A81"/>
<path d="M495.256 249.406H502.391V242.271H495.256V249.406Z" fill="#E19A81"/>
<path d="M488.115 249.406H495.25V242.271H488.115V249.406Z" fill="#E19A81"/>
<path d="M480.98 249.406H488.115V242.271H480.98V249.406Z" fill="#E19A81"/>
<path d="M473.839 249.406H480.974V242.271H473.839V249.406Z" fill="#E19A81"/>
<path d="M502.391 213.726H509.526V206.591H502.391V213.726Z" fill="#FFE4DD"/>
<path d="M495.256 213.726H502.391V206.591H495.256V213.726Z" fill="#FFE4DD"/>
<path d="M488.115 213.726H495.25V206.591H488.115V213.726Z" fill="#FFE4DD"/>
<path d="M480.98 213.726H488.115V206.591H480.98V213.726Z" fill="#FFE4DD"/>
<path d="M473.839 213.726H480.974V206.591H473.839V213.726Z" fill="#FFE4DD"/>
<path d="M473.839 242.271H466.704V249.406H473.839V242.271Z" fill="black"/>
<path d="M473.839 235.136H466.704V242.271H473.839V235.136Z" fill="black"/>
<path d="M473.839 227.996H466.704V235.131H473.839V227.996Z" fill="black"/>
<path d="M473.839 220.861H466.704V227.996H473.839V220.861Z" fill="black"/>
<path d="M473.839 213.726H466.704V220.861H473.839V213.726Z" fill="black"/>
<path d="M473.839 206.591H466.704V213.726H473.839V206.591Z" fill="black"/>
<path d="M473.839 199.456H466.704V206.591H473.839V199.456Z" fill="black"/>
<path d="M480.98 199.456H473.845V206.591H480.98V199.456Z" fill="black"/>
<path d="M488.115 199.456H480.98V206.591H488.115V199.456Z" fill="black"/>
<path d="M495.25 199.456H488.115V206.591H495.25V199.456Z" fill="black"/>
<path d="M502.385 199.456H495.25V206.591H502.385V199.456Z" fill="black"/>
<path d="M502.385 192.315H495.25V199.45H502.385V192.315Z" fill="black"/>
<path d="M502.385 185.18H495.25V192.315H502.385V185.18Z" fill="black"/>
<path d="M509.52 199.456H502.385V206.591H509.52V199.456Z" fill="black"/>
<path d="M509.52 192.315H502.385V199.45H509.52V192.315Z" fill="black"/>
<path d="M516.661 192.315H509.526V199.45H516.661V192.315Z" fill="black"/>
<path d="M523.796 192.315H516.661V199.45H523.796V192.315Z" fill="black"/>
<path d="M530.931 192.315H523.796V199.45H530.931V192.315Z" fill="black"/>
<path d="M545.2 199.456H538.065V206.591H545.2V199.456Z" fill="black"/>
<path d="M538.066 199.456H530.931V206.591H538.066V199.456Z" fill="black"/>
<path d="M559.476 192.315H552.341V199.45H559.476V192.315Z" fill="white"/>
<path d="M552.335 192.315H545.2V199.45H552.335V192.315Z" fill="white"/>
<path d="M509.52 185.18H502.385V192.315H509.52V185.18Z" fill="white"/>
<path d="M516.661 185.18H509.526V192.315H516.661V185.18Z" fill="white"/>
<path d="M523.796 185.18H516.661V192.315H523.796V185.18Z" fill="white"/>
<path d="M530.931 185.18H523.796V192.315H530.931V185.18Z" fill="white"/>
<path d="M545.2 192.315H538.065V199.45H545.2V192.315Z" fill="white"/>
<path d="M538.066 192.315H530.931V199.45H538.066V192.315Z" fill="white"/>
<path d="M530.931 149.505H538.066V142.37H530.931V149.505Z" fill="#FCC342"/>
<path d="M538.071 149.505H545.206V142.37H538.071V149.505Z" fill="#FCC342"/>
<path d="M545.206 149.505H552.341V142.37H545.206V149.505Z" fill="#FCC342"/>
<path d="M552.335 156.64H559.47V149.505H552.335V156.64Z" fill="#FCC342"/>
<path d="M523.796 149.505H530.931V142.37H523.796V149.505Z" fill="#FCC342"/>
<path d="M373.938 149.499H366.803V156.634H373.938V149.499Z" fill="white"/>
<path d="M373.938 156.64H366.803V163.775H373.938V156.64Z" fill="white"/>
<path d="M366.913 156.64H359.778V163.775H366.913V156.64Z" fill="white"/>
<path d="M338.368 149.499H331.233V156.634H338.368V149.499Z" fill="white"/>
<path d="M338.368 142.365H331.233V149.5H338.368V142.365Z" fill="white"/>
<path d="M338.368 135.23H331.233V142.365H338.368V135.23Z" fill="white"/>
<path d="M338.362 128.118H331.227V135.253H338.362V128.118Z" fill="white"/>
<path d="M338.362 120.983H331.227V128.118H338.362V120.983Z" fill="white"/>
<path d="M338.362 113.842H331.227V120.977H338.362V113.842Z" fill="white"/>
<path d="M366.913 163.775H359.778V170.91H366.913V163.775Z" fill="white"/>
<path d="M366.913 170.91H359.778V178.045H366.913V170.91Z" fill="white"/>
<path d="M359.778 170.91H352.643V178.045H359.778V170.91Z" fill="white"/>
<path d="M516.661 149.499H509.526V156.634H516.661V149.499Z" fill="black"/>
<path d="M416.754 170.91H409.619V178.045H416.754V170.91Z" fill="black"/>
<path d="M409.619 163.775H402.484V170.91H409.619V163.775Z" fill="white"/>
<path d="M409.619 170.91H402.484V178.045H409.619V170.91Z" fill="white"/>
<path d="M423.889 178.045H416.754V185.18H423.889V178.045Z" fill="black"/>
<path d="M416.754 178.045H409.619V185.18H416.754V178.045Z" fill="black"/>
<path d="M409.619 178.045H402.484V185.18H409.619V178.045Z" fill="black"/>
<path d="M402.484 178.045H395.349V185.18H402.484V178.045Z" fill="black"/>
<path d="M395.343 178.045H388.208V185.18H395.343V178.045Z" fill="black"/>
<path d="M409.509 192.315H402.374V199.45H409.509V192.315Z" fill="white"/>
<path d="M416.754 199.456H409.619V206.591H416.754V199.456Z" fill="white"/>
<path d="M423.999 206.591H416.864V213.726H423.999V206.591Z" fill="white"/>
<path d="M395.343 185.18H388.208V192.315H395.343V185.18Z" fill="black"/>
<path d="M395.343 192.315H388.208V199.45H395.343V192.315Z" fill="black"/>
<path d="M395.343 199.456H388.208V206.591H395.343V199.456Z" fill="black"/>
<path d="M395.343 206.591H388.208V213.726H395.343V206.591Z" fill="black"/>
<path d="M395.343 213.726H388.208V220.861H395.343V213.726Z" fill="black"/>
<path d="M402.594 220.861H395.459V227.996H402.594V220.861Z" fill="black"/>
<path d="M416.864 227.996H409.729V235.131H416.864V227.996Z" fill="#A04C22"/>
<path d="M409.729 220.861H402.594V227.996H409.729V220.861Z" fill="#A04C22"/>
<path d="M423.999 227.996H416.864V235.131H423.999V227.996Z" fill="#A04C22"/>
<path d="M402.484 213.726H395.349V220.861H402.484V213.726Z" fill="#A04C22"/>
<path d="M431.024 178.045H423.889V185.18H431.024V178.045Z" fill="black"/>
<path d="M438.164 178.045H431.03V185.18H438.164V178.045Z" fill="black"/>
<path d="M445.299 178.045H438.164V185.18H445.299V178.045Z" fill="black"/>
<path d="M452.434 170.91H445.299V178.045H452.434V170.91Z" fill="black"/>
<path d="M452.434 178.045H445.299V185.18H452.434V178.045Z" fill="white"/>
<path d="M459.569 170.91H452.434V178.045H459.569V170.91Z" fill="white"/>
<path d="M373.938 63.8684V149.499H381.073V156.64H395.349V163.775H480.98V156.64H495.25V149.499H509.526V92.414H502.385V85.2791H495.25V78.1441H488.115V71.0034H473.845V63.8684H373.938Z" fill="#F8C5AF"/>
<path d="M509.526 128.095H373.938V149.499H381.073V156.64H395.349V163.775H480.98V156.64H495.25V149.499H509.526V128.095Z" fill="#E19A81"/>
<path d="M516.661 142.365H523.796V135.23H530.821L530.93 49.5985H523.796V42.4635H516.661V28.1878H509.526V21.0528H502.385V13.9179H480.98V6.78293H388.214V13.9179H373.938V21.0528H366.803V35.3286H359.668V135.23H366.803V63.8684H373.938V56.7334H473.845V63.8684H488.115V71.0034H495.25V78.1441H502.385V85.2791H509.526V92.414H516.661V142.365Z" fill="white"/>
<path d="M416.754 6.78293V13.9179H409.619V21.0529H402.484V35.3286H395.349V56.7334H445.299V35.3286H452.434V21.0529H459.569V13.9179H466.71V6.78293H416.754Z" fill="#FC771D"/>
<path d="M359.668 35.3286H352.533V42.4635H359.668V35.3286Z" fill="black"/>
<path d="M366.803 28.1878H359.668V35.3228H366.803V28.1878Z" fill="black"/>
<path d="M366.803 21.0529H359.668V28.1878H366.803V21.0529Z" fill="black"/>
<path d="M373.938 13.9179H366.803V21.0529H373.938V13.9179Z" fill="black"/>
<path d="M381.073 6.78293H373.938V13.9179H381.073V6.78293Z" fill="black"/>
<path d="M388.208 6.78293H381.073V13.9179H388.208V6.78293Z" fill="black"/>
<path d="M395.343 -0.35202H388.208V6.78293H395.343V-0.35202Z" fill="black"/>
<path d="M402.484 -0.35202H395.349V6.78293H402.484V-0.35202Z" fill="black"/>
<path d="M409.619 -0.35202H402.484V6.78293H409.619V-0.35202Z" fill="black"/>
<path d="M416.754 -0.35202H409.619V6.78293H416.754V-0.35202Z" fill="black"/>
<path d="M423.889 -0.35202H416.754V6.78293H423.889V-0.35202Z" fill="black"/>
<path d="M431.024 -0.35202H423.889V6.78293H431.024V-0.35202Z" fill="black"/>
<path d="M438.164 -0.35202H431.03V6.78293H438.164V-0.35202Z" fill="black"/>
<path d="M445.299 -0.35202H438.164V6.78293H445.299V-0.35202Z" fill="black"/>
<path d="M452.434 -0.35202H445.299V6.78293H452.434V-0.35202Z" fill="black"/>
<path d="M459.569 -0.35202H452.434V6.78293H459.569V-0.35202Z" fill="black"/>
<path d="M466.704 -0.35202H459.569V6.78293H466.704V-0.35202Z" fill="black"/>
<path d="M473.839 -0.35202H466.704V6.78293H473.839V-0.35202Z" fill="black"/>
<path d="M480.98 -0.35202H473.845V6.78293H480.98V-0.35202Z" fill="black"/>
<path d="M488.115 6.78293H480.98V13.9179H488.115V6.78293Z" fill="black"/>
<path d="M495.25 6.78293H488.115V13.9179H495.25V6.78293Z" fill="black"/>
<path d="M502.385 6.78293H495.25V13.9179H502.385V6.78293Z" fill="black"/>
<path d="M509.52 13.9179H502.385V21.0529H509.52V13.9179Z" fill="black"/>
<path d="M516.661 21.0529H509.526V28.1878H516.661V21.0529Z" fill="black"/>
<path d="M523.796 28.1878H516.661V35.3228H523.796V28.1878Z" fill="black"/>
<path d="M523.796 35.3286H516.661V42.4635H523.796V35.3286Z" fill="black"/>
<path d="M530.931 42.4635H523.796V49.5985H530.931V42.4635Z" fill="black"/>
<path d="M538.066 49.5985H530.931V56.7334H538.066V49.5985Z" fill="black"/>
<path d="M538.066 56.7334H530.931V63.8684H538.066V56.7334Z" fill="black"/>
<path d="M538.066 63.8684H530.931V71.0034H538.066V63.8684Z" fill="black"/>
<path d="M538.066 71.0034H530.931V78.1383H538.066V71.0034Z" fill="black"/>
<path d="M538.066 78.1441H530.931V85.2791H538.066V78.1441Z" fill="black"/>
<path d="M538.066 85.2791H530.931V92.414H538.066V85.2791Z" fill="black"/>
<path d="M538.066 92.414H530.931V99.549H538.066V92.414Z" fill="black"/>
<path d="M538.066 99.549H530.931V106.684H538.066V99.549Z" fill="black"/>
<path d="M538.066 106.684H530.931V113.819H538.066V106.684Z" fill="black"/>
<path d="M538.066 113.819H530.931V120.954H538.066V113.819Z" fill="black"/>
<path d="M538.066 120.96H530.931V128.095H538.066V120.96Z" fill="black"/>
<path d="M538.066 128.095H530.931V135.23H538.066V128.095Z" fill="black"/>
<path d="M530.931 135.23H523.796V142.365H530.931V135.23Z" fill="black"/>
<path d="M523.796 142.365H516.661V149.5H523.796V142.365Z" fill="black"/>
<path d="M516.661 142.365H509.526V149.5H516.661V142.365Z" fill="black"/>
<path d="M509.52 149.499H502.385V156.634H509.52V149.499Z" fill="black"/>
<path d="M516.661 99.549H509.526V106.684H516.661V99.549Z" fill="black"/>
<path d="M516.661 106.684H509.526V113.819H516.661V106.684Z" fill="black"/>
<path d="M516.661 113.819H509.526V120.954H516.661V113.819Z" fill="black"/>
<path d="M516.661 120.96H509.526V128.095H516.661V120.96Z" fill="black"/>
<path d="M516.661 128.095H509.526V135.23H516.661V128.095Z" fill="black"/>
<path d="M359.668 42.4635H352.533V49.5985H359.668V42.4635Z" fill="black"/>
<path d="M359.668 49.5985H352.533V56.7334H359.668V49.5985Z" fill="black"/>
<path d="M359.668 56.7334H352.533V63.8684H359.668V56.7334Z" fill="black"/>
<path d="M359.668 63.8684H352.533V71.0034H359.668V63.8684Z" fill="black"/>
<path d="M359.668 71.0034H352.533V78.1383H359.668V71.0034Z" fill="black"/>
<path d="M359.668 78.1441H352.533V85.2791H359.668V78.1441Z" fill="black"/>
<path d="M359.668 85.2791H352.533V92.414H359.668V85.2791Z" fill="black"/>
<path d="M359.668 92.414H352.533V99.549H359.668V92.414Z" fill="black"/>
<path d="M359.668 99.549H352.533V106.684H359.668V99.549Z" fill="black"/>
<path d="M359.668 106.684H352.533V113.819H359.668V106.684Z" fill="black"/>
<path d="M359.668 113.819H352.533V120.954H359.668V113.819Z" fill="black"/>
<path d="M359.668 120.96H352.533V128.095H359.668V120.96Z" fill="black"/>
<path d="M359.668 128.095H352.533V135.23H359.668V128.095Z" fill="black"/>
<path d="M366.803 135.23H359.668V142.365H366.803V135.23Z" fill="black"/>
<path d="M373.938 99.549H366.803V106.684H373.938V99.549Z" fill="black"/>
<path d="M373.938 92.414H366.803V99.549H373.938V92.414Z" fill="black"/>
<path d="M373.938 85.2791H366.803V92.414H373.938V85.2791Z" fill="black"/>
<path d="M373.938 78.1441H366.803V85.2791H373.938V78.1441Z" fill="black"/>
<path d="M373.938 71.0034H366.803V78.1383H373.938V71.0034Z" fill="black"/>
<path d="M381.073 56.7334H373.938V63.8684H381.073V56.7334Z" fill="black"/>
<path d="M388.208 56.7334H381.073V63.8684H388.208V56.7334Z" fill="black"/>
<path d="M395.343 56.7334H388.208V63.8684H395.343V56.7334Z" fill="black"/>
<path d="M402.484 56.7334H395.349V63.8684H402.484V56.7334Z" fill="black"/>
<path d="M395.343 49.5985H388.208V56.7334H395.343V49.5985Z" fill="black"/>
<path d="M395.343 42.4635H388.208V49.5985H395.343V42.4635Z" fill="black"/>
<path d="M395.343 35.3286H388.208V42.4635H395.343V35.3286Z" fill="black"/>
<path d="M402.484 35.3286H395.349V42.4635H402.484V35.3286Z" fill="#FCC342"/>
<path d="M402.484 28.1878H395.349V35.3228H402.484V28.1878Z" fill="black"/>
<path d="M402.484 21.0529H395.349V28.1878H402.484V21.0529Z" fill="black"/>
<path d="M409.619 13.9179H402.484V21.0529H409.619V13.9179Z" fill="black"/>
<path d="M416.754 6.78293H409.619V13.9179H416.754V6.78293Z" fill="black"/>
<path d="M423.889 6.78293H416.754V13.9179H423.889V6.78293Z" fill="#FCC342"/>
<path d="M431.024 6.78293H423.889V13.9179H431.024V6.78293Z" fill="#FCC342"/>
<path d="M438.164 6.78293H431.03V13.9179H438.164V6.78293Z" fill="#FCC342"/>
<path d="M445.299 6.78293H438.164V13.9179H445.299V6.78293Z" fill="#FCC342"/>
<path d="M452.434 6.78293H445.299V13.9179H452.434V6.78293Z" fill="#FCC342"/>
<path d="M459.569 6.78293H452.434V13.9179H459.569V6.78293Z" fill="#FCC342"/>
<path d="M466.704 6.78293H459.569V13.9179H466.704V6.78293Z" fill="#FCC342"/>
<path d="M409.619 28.1878H402.484V35.3228H409.619V28.1878Z" fill="#FCC342"/>
<path d="M409.619 21.0529H402.484V28.1878H409.619V21.0529Z" fill="#FCC342"/>
<path d="M416.754 13.9179H409.619V21.0529H416.754V13.9179Z" fill="#FCC342"/>
<path d="M452.434 49.5985H445.299V56.7334H452.434V49.5985Z" fill="black"/>
<path d="M452.434 42.4635H445.299V49.5985H452.434V42.4635Z" fill="black"/>
<path d="M452.434 35.3286H445.299V42.4635H452.434V35.3286Z" fill="black"/>
<path d="M459.569 28.1878H452.434V35.3228H459.569V28.1878Z" fill="black"/>
<path d="M459.569 21.0529H452.434V28.1878H459.569V21.0529Z" fill="black"/>
<path d="M466.704 13.9179H459.569V21.0529H466.704V13.9179Z" fill="black"/>
<path d="M473.839 6.78293H466.704V13.9179H473.839V6.78293Z" fill="black"/>
<path d="M409.619 56.7334H402.484V63.8684H409.619V56.7334Z" fill="black"/>
<path d="M416.754 56.7334H409.619V63.8684H416.754V56.7334Z" fill="black"/>
<path d="M423.889 56.7334H416.754V63.8684H423.889V56.7334Z" fill="black"/>
<path d="M423.889 85.2791H416.754V92.414H423.889V85.2791Z" fill="black"/>
<path d="M416.754 85.2791H409.619V92.414H416.754V85.2791Z" fill="black"/>
<path d="M416.754 92.414H409.619V99.549H416.754V92.414Z" fill="#E19A81"/>
<path d="M409.619 92.414H402.484V99.549H409.619V92.414Z" fill="#E19A81"/>
<path d="M409.619 85.2791H402.484V92.414H409.619V85.2791Z" fill="#E19A81"/>
<path d="M402.484 85.2791H395.349V92.414H402.484V85.2791Z" fill="#E19A81"/>
<path d="M395.343 85.2791H388.208V92.414H395.343V85.2791Z" fill="#E19A81"/>
<path d="M388.208 85.2791H381.073V92.414H388.208V85.2791Z" fill="#E19A81"/>
<path d="M423.889 92.414H416.754V99.549H423.889V92.414Z" fill="#E19A81"/>
<path d="M423.889 99.549H416.754V106.684H423.889V99.549Z" fill="#E19A81"/>
<path d="M445.299 85.2791H438.164V92.414H445.299V85.2791Z" fill="black"/>
<path d="M452.434 85.2791H445.299V92.414H452.434V85.2791Z" fill="black"/>
<path d="M452.434 78.1441H445.299V85.2791H452.434V78.1441Z" fill="black"/>
<path d="M459.569 78.1441H452.434V85.2791H459.569V78.1441Z" fill="black"/>
<path d="M466.704 78.1441H459.569V85.2791H466.704V78.1441Z" fill="black"/>
<path d="M466.704 99.549H459.569V106.684H466.704V99.549Z" fill="black"/>
<path d="M466.704 106.684H459.569V113.819H466.704V106.684Z" fill="black"/>
<path d="M473.839 99.549H466.704V106.684H473.839V99.549Z" fill="white"/>
<path d="M480.98 99.549H473.845V106.684H480.98V99.549Z" fill="white"/>
<path d="M488.115 99.549H480.98V106.684H488.115V99.549Z" fill="white"/>
<path d="M473.839 106.684H466.704V113.819H473.839V106.684Z" fill="white"/>
<path d="M480.98 106.684H473.845V113.819H480.98V106.684Z" fill="white"/>
<path d="M459.569 99.549H452.434V106.684H459.569V99.549Z" fill="black"/>
<path d="M459.569 106.684H452.434V113.819H459.569V106.684Z" fill="black"/>
<path d="M473.839 78.1441H466.704V85.2791H473.839V78.1441Z" fill="black"/>
<path d="M480.98 78.1441H473.845V85.2791H480.98V78.1441Z" fill="black"/>
<path d="M452.434 92.414H445.299V99.549H452.434V92.414Z" fill="#E19A81"/>
<path d="M445.299 92.414H438.164V99.549H445.299V92.414Z" fill="#E19A81"/>
<path d="M452.434 99.549H445.299V106.684H452.434V99.549Z" fill="#E19A81"/>
<path d="M459.569 85.2791H452.434V92.414H459.569V85.2791Z" fill="#E19A81"/>
<path d="M459.569 92.414H452.434V99.549H459.569V92.414Z" fill="#E19A81"/>
<path d="M466.704 85.2791H459.569V92.414H466.704V85.2791Z" fill="#E19A81"/>
<path d="M473.839 85.2791H466.704V92.414H473.839V85.2791Z" fill="#E19A81"/>
<path d="M480.98 85.2791H473.845V92.414H480.98V85.2791Z" fill="#E19A81"/>
<path d="M416.754 78.1441H409.619V85.2791H416.754V78.1441Z" fill="black"/>
<path d="M409.619 78.1441H402.484V85.2791H409.619V78.1441Z" fill="black"/>
<path d="M402.484 78.1441H395.349V85.2791H402.484V78.1441Z" fill="black"/>
<path d="M402.484 99.549H395.349V106.684H402.484V99.549Z" fill="black"/>
<path d="M402.484 106.684H395.349V113.819H402.484V106.684Z" fill="black"/>
<path d="M395.343 99.549H388.208V106.684H395.343V99.549Z" fill="black"/>
<path d="M388.208 99.549H381.073V106.684H388.208V99.549Z" fill="white"/>
<path d="M395.343 106.684H388.208V113.819H395.343V106.684Z" fill="black"/>
<path d="M409.619 99.549H402.484V106.684H409.619V99.549Z" fill="white"/>
<path d="M409.619 106.684H402.484V113.819H409.619V106.684Z" fill="white"/>
<path d="M416.754 99.549H409.619V106.684H416.754V99.549Z" fill="white"/>
<path d="M416.754 106.684H409.619V113.819H416.754V106.684Z" fill="white"/>
<path d="M431.024 120.96H423.889V128.095H431.024V120.96Z" fill="black"/>
<path d="M438.164 120.96H431.03V128.095H438.164V120.96Z" fill="black"/>
<path d="M445.299 120.96H438.164V128.095H445.299V120.96Z" fill="#E19A81"/>
<path d="M395.343 78.1441H388.208V85.2791H395.343V78.1441Z" fill="black"/>
<path d="M388.208 78.1441H381.073V85.2791H388.208V78.1441Z" fill="black"/>
<path d="M431.024 56.7334H423.889V63.8684H431.024V56.7334Z" fill="black"/>
<path d="M438.164 56.7334H431.03V63.8684H438.164V56.7334Z" fill="black"/>
<path d="M445.299 56.7334H438.164V63.8684H445.299V56.7334Z" fill="black"/>
<path d="M452.434 56.7334H445.299V63.8684H452.434V56.7334Z" fill="black"/>
<path d="M459.569 56.7334H452.434V63.8684H459.569V56.7334Z" fill="black"/>
<path d="M466.704 56.7334H459.569V63.8684H466.704V56.7334Z" fill="black"/>
<path d="M473.839 56.7334H466.704V63.8684H473.839V56.7334Z" fill="black"/>
<path d="M381.073 71.0034H373.938V78.1383H381.073V71.0034Z" fill="black"/>
<path d="M388.208 71.0034H381.073V78.1383H388.208V71.0034Z" fill="black"/>
<path d="M395.343 71.0034H388.208V78.1383H395.343V71.0034Z" fill="black"/>
<path d="M402.484 71.0034H395.349V78.1383H402.484V71.0034Z" fill="black"/>
<path d="M409.619 71.0034H402.484V78.1383H409.619V71.0034Z" fill="black"/>
<path d="M416.754 71.0034H409.619V78.1383H416.754V71.0034Z" fill="black"/>
<path d="M423.889 71.0034H416.754V78.1383H423.889V71.0034Z" fill="black"/>
<path d="M431.024 71.0034H423.889V78.1383H431.024V71.0034Z" fill="black"/>
<path d="M438.164 71.0034H431.03V78.1383H438.164V71.0034Z" fill="black"/>
<path d="M445.299 71.0034H438.164V78.1383H445.299V71.0034Z" fill="black"/>
<path d="M452.434 71.0034H445.299V78.1383H452.434V71.0034Z" fill="black"/>
<path d="M459.569 71.0034H452.434V78.1383H459.569V71.0034Z" fill="black"/>
<path d="M466.704 71.0034H459.569V78.1383H466.704V71.0034Z" fill="black"/>
<path d="M473.839 71.0034H466.704V78.1383H473.839V71.0034Z" fill="black"/>
<path d="M381.073 63.8684H373.938V71.0034H381.073V63.8684Z" fill="white"/>
<path d="M373.938 63.8684H366.803V71.0034H373.938V63.8684Z" fill="white"/>
<path d="M388.208 63.8684H381.073V71.0034H388.208V63.8684Z" fill="white"/>
<path d="M395.343 63.8684H388.208V71.0034H395.343V63.8684Z" fill="white"/>
<path d="M402.484 63.8684H395.349V71.0034H402.484V63.8684Z" fill="white"/>
<path d="M409.619 63.8684H402.484V71.0034H409.619V63.8684Z" fill="white"/>
<path d="M416.754 63.8684H409.619V71.0034H416.754V63.8684Z" fill="white"/>
<path d="M423.889 63.8684H416.754V71.0034H423.889V63.8684Z" fill="white"/>
<path d="M431.024 63.8684H423.889V71.0034H431.024V63.8684Z" fill="white"/>
<path d="M438.164 63.8684H431.03V71.0034H438.164V63.8684Z" fill="white"/>
<path d="M445.299 63.8684H438.164V71.0034H445.299V63.8684Z" fill="white"/>
<path d="M452.434 63.8684H445.299V71.0034H452.434V63.8684Z" fill="white"/>
<path d="M459.569 63.8684H452.434V71.0034H459.569V63.8684Z" fill="white"/>
<path d="M466.704 63.8684H459.569V71.0034H466.704V63.8684Z" fill="white"/>
<path d="M473.839 63.8684H466.704V71.0034H473.839V63.8684Z" fill="white"/>
<path d="M480.98 63.8684H473.845V71.0034H480.98V63.8684Z" fill="black"/>
<path d="M488.115 63.8684H480.98V71.0034H488.115V63.8684Z" fill="black"/>
<path d="M495.25 71.0034H488.115V78.1383H495.25V71.0034Z" fill="black"/>
<path d="M502.385 78.1441H495.25V85.2791H502.385V78.1441Z" fill="black"/>
<path d="M509.52 85.2791H502.385V92.414H509.52V85.2791Z" fill="black"/>
<path d="M373.938 56.7334H366.803V63.8684H373.938V56.7334Z" fill="#C6CACD"/>
<path d="M381.073 49.5985H373.938V56.7334H381.073V49.5985Z" fill="#C6CACD"/>
<path d="M388.208 49.5985H381.073V56.7334H388.208V49.5985Z" fill="#C6CACD"/>
<path d="M402.484 49.5985H395.349V56.7334H402.484V49.5985Z" fill="#DD4017"/>
<path d="M409.619 49.5985H402.484V56.7334H409.619V49.5985Z" fill="#DD4017"/>
<path d="M416.754 49.5985H409.619V56.7334H416.754V49.5985Z" fill="#DD4017"/>
<path d="M423.889 49.5985H416.754V56.7334H423.889V49.5985Z" fill="#DD4017"/>
<path d="M431.024 49.5985H423.889V56.7334H431.024V49.5985Z" fill="#DD4017"/>
<path d="M438.164 49.5985H431.03V56.7334H438.164V49.5985Z" fill="#DD4017"/>
<path d="M445.299 49.5985H438.164V56.7334H445.299V49.5985Z" fill="#DD4017"/>
<path d="M459.569 49.5985H452.434V56.7334H459.569V49.5985Z" fill="#C6CACD"/>
<path d="M466.704 49.5985H459.569V56.7334H466.704V49.5985Z" fill="#C6CACD"/>
<path d="M473.839 49.5985H466.704V56.7334H473.839V49.5985Z" fill="#C6CACD"/>
<path d="M480.98 56.7334H473.845V63.8684H480.98V56.7334Z" fill="#C6CACD"/>
<path d="M488.115 56.7334H480.98V63.8684H488.115V56.7334Z" fill="#C6CACD"/>
<path d="M495.25 63.8684H488.115V71.0034H495.25V63.8684Z" fill="#C6CACD"/>
<path d="M502.385 71.0034H495.25V78.1383H502.385V71.0034Z" fill="#C6CACD"/>
<path d="M509.52 78.1441H502.385V85.2791H509.52V78.1441Z" fill="#C6CACD"/>
<path d="M516.661 85.2791H509.526V92.414H516.661V85.2791Z" fill="#C6CACD"/>
<path d="M523.796 92.414H516.661V99.549H523.796V92.414Z" fill="#C6CACD"/>
<path d="M523.796 99.549H516.661V106.684H523.796V99.549Z" fill="#C6CACD"/>
<path d="M523.796 106.684H516.661V113.819H523.796V106.684Z" fill="#C6CACD"/>
<path d="M523.796 113.819H516.661V120.954H523.796V113.819Z" fill="#C6CACD"/>
<path d="M523.796 120.96H516.661V128.095H523.796V120.96Z" fill="#C6CACD"/>
<path d="M523.796 128.095H516.661V135.23H523.796V128.095Z" fill="#C6CACD"/>
<path d="M530.82 99.549H523.686V106.684H530.82V99.549Z" fill="#C6CACD"/>
<path d="M530.82 106.684H523.686V113.819H530.82V106.684Z" fill="#C6CACD"/>
<path d="M530.82 113.819H523.686V120.954H530.82V113.819Z" fill="#C6CACD"/>
<path d="M530.82 120.96H523.686V128.095H530.82V120.96Z" fill="#C6CACD"/>
<path d="M530.82 128.095H523.686V135.23H530.82V128.095Z" fill="#C6CACD"/>
<path d="M523.796 135.23H516.661V142.365H523.796V135.23Z" fill="#C6CACD"/>
<path d="M516.661 92.414H509.526V99.549H516.661V92.414Z" fill="black"/>
<path d="M373.938 106.684H366.803V113.819H373.938V106.684Z" fill="black"/>
<path d="M373.938 113.819H366.803V120.954H373.938V113.819Z" fill="black"/>
<path d="M373.938 120.96H366.803V128.095H373.938V120.96Z" fill="black"/>
<path d="M381.073 120.96H373.938V128.095H381.073V120.96Z" fill="white"/>
<path d="M388.208 128.095H381.073V135.23H388.208V128.095Z" fill="white"/>
<path d="M395.343 128.095H388.208V135.23H395.343V128.095Z" fill="white"/>
<path d="M402.484 128.095H395.349V135.23H402.484V128.095Z" fill="white"/>
<path d="M409.619 128.095H402.484V135.23H409.619V128.095Z" fill="white"/>
<path d="M416.754 128.095H409.619V135.23H416.754V128.095Z" fill="white"/>
<path d="M423.889 128.095H416.754V135.23H423.889V128.095Z" fill="white"/>
<path d="M431.024 128.095H423.889V135.23H431.024V128.095Z" fill="white"/>
<path d="M438.164 128.095H431.03V135.23H438.164V128.095Z" fill="white"/>
<path d="M445.299 128.095H438.164V135.23H445.299V128.095Z" fill="white"/>
<path d="M452.434 128.095H445.299V135.23H452.434V128.095Z" fill="white"/>
<path d="M459.569 128.095H452.434V135.23H459.569V128.095Z" fill="white"/>
<path d="M466.704 128.095H459.569V135.23H466.704V128.095Z" fill="white"/>
<path d="M473.839 128.095H466.704V135.23H473.839V128.095Z" fill="white"/>
<path d="M480.98 128.095H473.845V135.23H480.98V128.095Z" fill="white"/>
<path d="M480.98 135.23H473.845V142.365H480.98V135.23Z" fill="white"/>
<path d="M480.98 142.365H473.845V149.5H480.98V142.365Z" fill="white"/>
<path d="M480.98 149.499H473.845V156.634H480.98V149.499Z" fill="white"/>
<path d="M488.115 149.499H480.98V156.634H488.115V149.499Z" fill="white"/>
<path d="M495.25 149.499H488.115V156.634H495.25V149.499Z" fill="white"/>
<path d="M480.98 156.64H473.845V163.775H480.98V156.64Z" fill="white"/>
<path d="M473.839 156.64H466.704V163.775H473.839V156.64Z" fill="white"/>
<path d="M466.704 156.64H459.569V163.775H466.704V156.64Z" fill="white"/>
<path d="M459.569 156.64H452.434V163.775H459.569V156.64Z" fill="white"/>
<path d="M452.434 156.64H445.299V163.775H452.434V156.64Z" fill="white"/>
<path d="M445.299 156.64H438.164V163.775H445.299V156.64Z" fill="white"/>
<path d="M438.164 156.64H431.03V163.775H438.164V156.64Z" fill="white"/>
<path d="M431.024 156.64H423.889V163.775H431.024V156.64Z" fill="white"/>
<path d="M423.889 156.64H416.754V163.775H423.889V156.64Z" fill="white"/>
<path d="M416.754 156.64H409.619V163.775H416.754V156.64Z" fill="white"/>
<path d="M409.619 156.64H402.484V163.775H409.619V156.64Z" fill="white"/>
<path d="M402.484 156.64H395.349V163.775H402.484V156.64Z" fill="white"/>
<path d="M402.484 149.499H395.349V156.634H402.484V149.499Z" fill="white"/>
<path d="M395.343 149.499H388.208V156.634H395.343V149.499Z" fill="white"/>
<path d="M388.208 149.499H381.073V156.634H388.208V149.499Z" fill="white"/>
<path d="M388.208 142.365H381.073V149.5H388.208V142.365Z" fill="white"/>
<path d="M381.073 142.365H373.938V149.5H381.073V142.365Z" fill="white"/>
<path d="M388.208 135.23H381.073V142.365H388.208V135.23Z" fill="white"/>
<path d="M402.484 142.365H395.349V149.5H402.484V142.365Z" fill="white"/>
<path d="M402.484 135.23H395.349V142.365H402.484V135.23Z" fill="white"/>
<path d="M488.115 128.095H480.98V135.23H488.115V128.095Z" fill="white"/>
<path d="M495.25 128.095H488.115V135.23H495.25V128.095Z" fill="white"/>
<path d="M502.385 128.095H495.25V135.23H502.385V128.095Z" fill="white"/>
<path d="M509.52 120.96H502.385V128.095H509.52V120.96Z" fill="white"/>
<path d="M502.385 135.23H495.25V142.365H502.385V135.23Z" fill="white"/>
<path d="M373.938 128.095H366.803V135.23H373.938V128.095Z" fill="black"/>
<path d="M366.803 99.549H359.668V106.684H366.803V99.549Z" fill="#C6CACD"/>
<path d="M366.803 92.414H359.668V99.549H366.803V92.414Z" fill="#C6CACD"/>
<path d="M366.803 85.2791H359.668V92.414H366.803V85.2791Z" fill="#C6CACD"/>
<path d="M366.803 78.1441H359.668V85.2791H366.803V78.1441Z" fill="#C6CACD"/>
<path d="M366.803 71.0034H359.668V78.1383H366.803V71.0034Z" fill="#C6CACD"/>
<path d="M366.803 63.8684H359.668V71.0034H366.803V63.8684Z" fill="#C6CACD"/>
<path d="M366.803 106.684H359.668V113.819H366.803V106.684Z" fill="#C6CACD"/>
<path d="M366.803 113.819H359.668V120.954H366.803V113.819Z" fill="#C6CACD"/>
<path d="M366.803 120.96H359.668V128.095H366.803V120.96Z" fill="#C6CACD"/>
<path d="M366.803 128.095H359.668V135.23H366.803V128.095Z" fill="#C6CACD"/>
<path d="M373.938 135.23H366.803V142.365H373.938V135.23Z" fill="black"/>
<path d="M373.938 142.365H366.803V149.5H373.938V142.365Z" fill="black"/>
<path d="M388.208 156.64H381.073V163.775H388.208V156.64Z" fill="black"/>
<path d="M381.073 149.499H373.938V156.634H381.073V149.499Z" fill="black"/>
<path d="M395.343 156.64H388.208V163.775H395.343V156.64Z" fill="black"/>
<path d="M402.484 163.775H395.349V170.91H402.484V163.775Z" fill="black"/>
<path d="M409.619 163.775H402.484V170.91H409.619V163.775Z" fill="black"/>
<path d="M416.754 163.775H409.619V170.91H416.754V163.775Z" fill="black"/>
<path d="M423.889 163.775H416.754V170.91H423.889V163.775Z" fill="black"/>
<path d="M431.024 163.775H423.889V170.91H431.024V163.775Z" fill="black"/>
<path d="M438.164 163.775H431.03V170.91H438.164V163.775Z" fill="black"/>
<path d="M445.299 163.775H438.164V170.91H445.299V163.775Z" fill="black"/>
<path d="M452.434 163.775H445.299V170.91H452.434V163.775Z" fill="black"/>
<path d="M431.024 142.365H423.889V149.5H431.024V142.365Z" fill="black"/>
<path d="M438.164 142.365H431.03V149.5H438.164V142.365Z" fill="black"/>
<path d="M445.299 142.365H438.164V149.5H445.299V142.365Z" fill="black"/>
<path d="M452.434 142.365H445.299V149.5H452.434V142.365Z" fill="black"/>
<path d="M459.569 142.365H452.434V149.5H459.569V142.365Z" fill="black"/>
<path d="M459.569 163.775H452.434V170.91H459.569V163.775Z" fill="black"/>
<path d="M466.704 163.775H459.569V170.91H466.704V163.775Z" fill="black"/>
<path d="M473.839 163.775H466.704V170.91H473.839V163.775Z" fill="black"/>
<path d="M480.98 163.775H473.845V170.91H480.98V163.775Z" fill="black"/>
<path d="M488.115 156.64H480.98V163.775H488.115V156.64Z" fill="black"/>
<path d="M495.25 156.64H488.115V163.775H495.25V156.64Z" fill="black"/>
<path d="M502.385 149.499H495.25V156.634H502.385V149.499Z" fill="black"/>
<path d="M502.385 142.365H495.25V149.5H502.385V142.365Z" fill="white"/>
<path d="M509.52 142.365H502.385V149.5H509.52V142.365Z" fill="white"/>
<path d="M509.52 135.23H502.385V142.365H509.52V135.23Z" fill="white"/>
<path d="M516.661 135.23H509.526V142.365H516.661V135.23Z" fill="black"/>
<path d="M366.803 63.8684H359.668V71.0034H366.803V63.8684Z" fill="black"/>
<path d="M373.938 56.7334H366.803V63.8684H373.938V56.7334Z" fill="black"/>
<path d="M359.778 185.18H366.913V178.045H359.778V185.18Z" fill="#DD4017"/>
<path d="M352.637 192.321H359.772V185.186H352.637V192.321Z" fill="#DD4017"/>
<path d="M352.637 199.456H359.772V192.321H352.637V199.456Z" fill="#DD4017"/>
<path d="M345.508 206.585H352.643V199.45H345.508V206.585Z" fill="#DD4017"/>
<path d="M345.508 213.726H352.643V206.591H345.508V213.726Z" fill="#DD4017"/>
<path d="M338.373 220.861H345.508V213.726H338.373V220.861Z" fill="#DD4017"/>
<path d="M331.233 327.902H338.368V320.767H331.233V327.902Z" fill="#DD4017"/>
<path d="M338.373 320.762H345.508V313.627H338.373V320.762Z" fill="#DD4017"/>
<path d="M316.963 335.037H324.098V327.902H316.963V335.037Z" fill="#DD4017"/>
<path d="M309.828 335.037H316.963V327.902H309.828V335.037Z" fill="#DD4017"/>
<path d="M302.693 335.037H309.828V327.902H302.693V335.037Z" fill="#DD4017"/>
<path d="M295.552 335.037H302.687V327.902H295.552V335.037Z" fill="#DD4017"/>
<path d="M295.552 327.902H302.687V320.767H295.552V327.902Z" fill="#DD4017"/>
<path d="M324.098 335.037H331.233V327.902H324.098V335.037Z" fill="#DD4017"/>
<path d="M502.391 163.769H509.526V156.634H502.391V163.769Z" fill="#DD4017"/>
<path d="M495.256 163.769H502.391V156.634H495.256V163.769Z" fill="#DD4017"/>
<path d="M488.115 170.91H495.25V163.775H488.115V170.91Z" fill="#DD4017"/>
<path d="M480.98 170.91H488.115V163.775H480.98V170.91Z" fill="#DD4017"/>
<path d="M473.839 178.045H480.974V170.91H473.839V178.045Z" fill="#DD4017"/>
<path d="M466.71 178.045H473.845V170.91H466.71V178.045Z" fill="#DD4017"/>
<path d="M488.115 199.456H495.25V192.321H488.115V199.456Z" fill="#DD4017"/>
<path d="M480.98 199.456H488.115V192.321H480.98V199.456Z" fill="#DD4017"/>
<path d="M473.839 199.456H480.974V192.321H473.839V199.456Z" fill="#DD4017"/>
<path d="M466.71 199.456H473.845V192.321H466.71V199.456Z" fill="#DD4017"/>
<path d="M459.575 178.045H466.71V170.91H459.575V178.045Z" fill="#DD4017"/>
<path d="M338.373 170.91H345.508V163.775H338.373V170.91Z" fill="#DD4017"/>
<path d="M345.508 170.91H352.643V163.775H345.508V170.91Z" fill="#DD4017"/>
<path d="M352.637 163.769H359.772V156.634H352.637V163.769Z" fill="#DD4017"/>
<path d="M345.398 113.848H352.533V106.713H345.398V113.848Z" fill="#FCC342"/>
<path d="M338.368 113.848H345.503V106.713H338.368V113.848Z" fill="#FCC342"/>
<path d="M416.754 178.045H445.299V170.91H416.754V178.045Z" fill="#E19A81"/>
<path d="M288.417 306.492H281.282V342.172H288.417V349.307H324.098V342.172H295.552V335.037H288.417V306.492Z" fill="#333333"/>
<path d="M302.687 299.357H295.552V306.492H302.687V299.357Z" fill="white"/>
<path d="M338.368 320.767H331.233V327.902H338.368V320.767Z" fill="white"/>
<path d="M260.63 135.235H303.167L303.196 163.764H310.308V185.169H303.167L303.196 192.309H274.749L267.66 192.321L260.525 185.169L260.63 135.235Z" fill="#8F95B8"/>
<path d="M317.408 163.764H310.273V170.899H317.408V163.764Z" fill="black"/>
<path d="M317.408 170.899H310.273V178.034H317.408V170.899Z" fill="black"/>
<path d="M317.408 178.034H310.273V185.169H317.408V178.034Z" fill="black"/>
<path d="M310.302 185.169H303.167V192.303H310.302V185.169Z" fill="black"/>
<path d="M303.196 192.309H296.061V199.444H303.196V192.309Z" fill="black"/>
<path d="M296.125 192.309H288.99V199.444H296.125V192.309Z" fill="black"/>
<path d="M289.233 192.309H281.531V199.444H289.233V192.309Z" fill="black"/>
<path d="M310.302 149.494H303.167V156.629H310.302V149.494Z" fill="black"/>
<path d="M310.302 156.629H303.167V163.764H310.302V156.629Z" fill="black"/>
<path d="M303.196 156.629H296.061V163.764H303.196V156.629Z" fill="black"/>
<path d="M296.125 163.764H288.99V170.899H296.125V163.764Z" fill="black"/>
<path d="M303.196 170.899H296.061V178.034H303.196V170.899Z" fill="black"/>
<path d="M310.302 142.353H303.167V149.488H310.302V142.353Z" fill="black"/>
<path d="M310.302 135.235H303.167V142.37H310.302V135.235Z" fill="black"/>
<path d="M296.125 149.494H288.99V156.629H296.125V149.494Z" fill="black"/>
<path d="M303.196 142.37H296.061V149.505H303.196V142.37Z" fill="black"/>
<path d="M274.795 192.321H267.66V199.456H274.795V192.321Z" fill="black"/>
<path d="M267.66 185.169H260.525V192.303H267.66V185.169Z" fill="black"/>
<path d="M267.614 192.309H274.749V185.174H267.614V192.309Z" fill="#5C628E"/>
<path d="M274.743 192.309H281.878V185.174H274.743V192.309Z" fill="#5C628E"/>
<path d="M296.061 192.309H303.196V185.174H296.061V192.309Z" fill="#5C628E"/>
<path d="M296.061 185.174H303.196V178.039H296.061V185.174Z" fill="#5C628E"/>
<path d="M288.99 163.764H296.125V156.629H288.99V163.764Z" fill="#5C628E"/>
<path d="M296.061 156.623H303.196V149.488H296.061V156.623Z" fill="#5C628E"/>
<path d="M281.82 170.916H288.955V163.781H281.82V170.916Z" fill="#5C628E"/>
<path d="M288.99 178.034H296.125V170.899H288.99V178.034Z" fill="#5C628E"/>
<path d="M303.173 185.174H310.308V178.039H303.173V185.174Z" fill="#5C628E"/>
<path d="M260.525 185.174H267.66V178.039H260.525V185.174Z" fill="#5C628E"/>
<path d="M260.525 178.034H267.66V170.899H260.525V178.034Z" fill="#5C628E"/>
<path d="M281.884 192.309H274.749V199.444H281.884V192.309Z" fill="black"/>
<path d="M260.63 149.494H253.495V156.629H260.63V149.494Z" fill="black"/>
<path d="M260.63 156.629H253.495V163.764H260.63V156.629Z" fill="black"/>
<path d="M260.63 163.764H253.495V170.899H260.63V163.764Z" fill="black"/>
<path d="M260.63 170.899H253.495V178.034H260.63V170.899Z" fill="black"/>
<path d="M260.63 178.034H253.495V185.169H260.63V178.034Z" fill="black"/>
<path d="M260.63 142.353H253.495V149.488H260.63V142.353Z" fill="black"/>
<path d="M260.63 135.235H253.495V142.37H260.63V135.235Z" fill="black"/>
<path d="M303.196 128.124H296.061V135.259H303.196V128.124Z" fill="black"/>
<path d="M296.125 128.124H288.99V135.259H296.125V128.124Z" fill="black"/>
<path d="M289.019 135.235H281.884V142.37H289.019V135.235Z" fill="black"/>
<path d="M289.019 142.37H281.884V149.505H289.019V142.37Z" fill="black"/>
<path d="M281.884 149.505H274.749V156.64H281.884V149.505Z" fill="black"/>
<path d="M289.019 128.124H281.884V135.259H289.019V128.124Z" fill="black"/>
<path d="M281.884 128.124H274.749V135.259H281.884V128.124Z" fill="black"/>
<path d="M274.795 135.235H267.66V142.37H274.795V135.235Z" fill="black"/>
<path d="M274.795 142.37H267.66V149.505H274.795V142.37Z" fill="black"/>
<path d="M267.66 149.505H260.525V156.64H267.66V149.505Z" fill="black"/>
<path d="M274.795 128.124H267.66V135.259H274.795V128.124Z" fill="black"/>
<path d="M267.66 128.124H260.525V135.259H267.66V128.124Z" fill="black"/>
<path d="M317.443 185.169H310.308V192.303H317.443V185.169Z" fill="black"/>
</g>
<defs>
<clipPath id="clip0_3_2">
<rect width="808" height="464" fill="white"/>
</clipPath>
</defs>
</svg>
