<svg width="1153" height="346" viewBox="0 0 1153 346" fill="none" xmlns="http://www.w3.org/2000/svg">
<path d="M291.25 142.404V135.623H284.464V128.837H270.898V47.4734H264.134V40.6875H257.348V27.1214H250.563V20.341H243.782V13.5552H237.002V6.77483H216.65V0.00549316H128.5V6.77483H114.934V13.5552H108.153V20.341H101.368V33.9072H94.5983V94.9358H81.1366V101.738H74.3508V108.518H67.5704V115.299H60.7846V122.085H54.0043V128.854H47.7078V122.085H7.15226V128.854H0.470886V176.305H7.15226V183.086H13.9216L13.9381 183.102V189.872H47.7078V183.46H54.4607V183.102H60.7846V176.322L60.8011 176.305H77.7712H81.1366H87.917V189.872H81.1366V203.438H74.3508V217.004H67.5704V244.12H74.3508V250.906H67.5704V257.686H60.7846V264.472H47.2349V271.252H40.4491V278.038H33.6687V284.818H26.8829V291.588H20.1025V325.5H26.8829V332.286H33.6687V339.067H67.5704V332.286H74.3508V318.72H81.1366V311.94H87.917V305.154H101.483V298.368H108.263V291.588H111.832H115.033H135.385V339.056H142.165V345.836H196.419V339.056H203.199V325.489H196.419V264.455H189.633V257.686H182.853V250.79H189.534V244.12H193.746H196.419H257.348V237.339H264.134V230.57H270.898V223.784H277.684V217.004H284.464V196.657H291.25V189.872H298.031V142.404H291.25Z" fill="black"/>
<path d="M85.8493 216.998H146.883V223.779H160.444V230.565H167.224V237.345H174.005V244.125H126.537V250.906H119.756V257.686L112.976 257.68V264.461H106.196V257.68L99.41 257.686V250.906L92.6297 250.9V244.12L85.8493 244.125V216.998Z" fill="white"/>
<path d="M173.9 230.565H201.027V244.015H194.247V250.796H187.466V244.015L180.686 244.125V237.345H174.005L173.9 230.565Z" fill="white"/>
<path d="M92.6297 250.906H85.8494V257.686L79.069 257.68V264.461L72.2887 264.472V271.252H79.069V278.033H85.8494V284.813H92.6297V291.593H99.41V298.379H106.091L112.976 298.368L119.757 291.588V284.813H126.537V278.027L112.872 271.252L106.196 271.247V264.461L99.41 264.433V257.653L92.6297 257.686V250.906Z" fill="#F8C5AF"/>
<path d="M126.537 250.906H174.005V244.125L180.785 244.12V250.9H187.571V257.68H194.351V264.461H201.132V284.807H140.098V278.033L126.537 278.027V271.247H112.976V264.461L119.757 264.472V257.686H126.537V250.906Z" fill="#F8C5AF"/>
<path d="M180.681 244.125H173.9V250.906H180.681V244.125Z" fill="black"/>
<path d="M180.681 237.345H173.9V244.125H180.681V237.345Z" fill="black"/>
<path d="M174.005 230.565H167.224V237.345H174.005V230.565Z" fill="black"/>
<path d="M187.565 244.12H180.686V250.9H187.565V244.12Z" fill="black"/>
<path d="M119.757 257.686H112.976V264.466H119.757V257.686Z" fill="black"/>
<path d="M126.537 250.906H119.756V257.686H126.537V250.906Z" fill="black"/>
<path d="M133.317 244.125H126.537V250.906H133.317V244.125Z" fill="black"/>
<path d="M140.098 244.125H133.317V250.906H140.098V244.125Z" fill="black"/>
<path d="M146.878 244.125H140.098V250.906H146.878V244.125Z" fill="black"/>
<path d="M153.664 244.125H146.883V250.906H153.664V244.125Z" fill="black"/>
<path d="M160.444 244.125H153.664V250.906H160.444V244.125Z" fill="black"/>
<path d="M167.224 244.125H160.444V250.906H167.224V244.125Z" fill="black"/>
<path d="M174.005 244.125H167.224V250.906H174.005V244.125Z" fill="black"/>
<path d="M194.346 250.9H187.565V257.68H194.346V250.9Z" fill="black"/>
<path d="M207.912 264.461H201.132V271.241H207.912V264.461Z" fill="black"/>
<path d="M207.912 278.027H201.132V284.807H207.912V278.027Z" fill="black"/>
<path d="M207.912 271.247H201.132V278.027H207.912V271.247Z" fill="black"/>
<path d="M207.912 284.807H201.132V291.588H207.912V284.807Z" fill="black"/>
<path d="M207.912 291.588H201.132V298.368H207.912V291.588Z" fill="black"/>
<path d="M207.912 298.368H201.132V305.148H207.912V298.368Z" fill="black"/>
<path d="M207.912 305.148H201.132V311.929H207.912V305.148Z" fill="black"/>
<path d="M207.912 311.934H201.132V318.715H207.912V311.934Z" fill="black"/>
<path d="M201.132 284.807H194.351V291.588H201.132V284.807Z" fill="black"/>
<path d="M194.351 284.807H187.571V291.588H194.351V284.807Z" fill="black"/>
<path d="M187.571 284.807H180.791V291.588H187.571V284.807Z" fill="black"/>
<path d="M180.785 284.813H174.005V291.593H180.785V284.813Z" fill="black"/>
<path d="M174.005 284.807H167.224V291.588H174.005V284.807Z" fill="black"/>
<path d="M167.224 284.807H160.444V291.588H167.224V284.807Z" fill="black"/>
<path d="M160.444 284.813H153.664V291.593H160.444V284.813Z" fill="black"/>
<path d="M153.664 291.588H146.883V298.368H153.664V291.588Z" fill="black"/>
<path d="M153.664 284.813H146.883V291.593H153.664V284.813Z" fill="black"/>
<path d="M140.098 278.032H133.317V284.813H140.098V278.032Z" fill="black"/>
<path d="M146.878 284.807H140.098V291.588H146.878V284.807Z" fill="black"/>
<path d="M133.317 278.027H126.537V284.807H133.317V278.027Z" fill="black"/>
<path d="M126.537 271.247H119.756V278.027H126.537V271.247Z" fill="black"/>
<path d="M119.757 271.247H112.976V278.027H119.757V271.247Z" fill="black"/>
<path d="M112.976 264.461H106.196V271.241H112.976V264.461Z" fill="black"/>
<path d="M106.19 257.68H99.4099V264.461H106.19V257.68Z" fill="black"/>
<path d="M99.41 250.9H92.6297V257.68H99.41V250.9Z" fill="black"/>
<path d="M92.6297 244.12H85.8493V250.9H92.6297V244.12Z" fill="black"/>
<path d="M153.664 298.368H146.883V305.148H153.664V298.368Z" fill="black"/>
<path d="M153.664 305.148H146.883V311.929H153.664V305.148Z" fill="black"/>
<path d="M153.664 311.934H146.883V318.715H153.664V311.934Z" fill="black"/>
<path d="M153.664 318.715H146.883V325.495H153.664V318.715Z" fill="black"/>
<path d="M160.444 318.715H153.664V325.495H160.444V318.715Z" fill="black"/>
<path d="M167.224 318.715H160.444V325.495H167.224V318.715Z" fill="black"/>
<path d="M174.005 318.715H167.224V325.495H174.005V318.715Z" fill="black"/>
<path d="M180.785 318.715H174.005V325.495H180.785V318.715Z" fill="black"/>
<path d="M187.571 318.715H180.791V325.495H187.571V318.715Z" fill="black"/>
<path d="M194.351 318.715H187.571V325.495H194.351V318.715Z" fill="black"/>
<path d="M201.132 318.715H194.351V325.495H201.132V318.715Z" fill="black"/>
<path d="M207.912 318.715H201.132V325.495H207.912V318.715Z" fill="black"/>
<path d="M153.664 332.286H160.444V325.506H153.664V332.286Z" fill="#333333"/>
<path d="M160.444 332.286H167.224V325.506H160.444V332.286Z" fill="#333333"/>
<path d="M167.23 332.286H174.01V325.506H167.23V332.286Z" fill="#333333"/>
<path d="M174.01 332.286H180.791V325.506H174.01V332.286Z" fill="#333333"/>
<path d="M180.785 332.286H187.565V325.506H180.785V332.286Z" fill="#333333"/>
<path d="M187.571 332.286H194.351V325.506H187.571V332.286Z" fill="#333333"/>
<path d="M194.351 332.286H201.132V325.506H194.351V332.286Z" fill="#333333"/>
<path d="M201.132 332.286H207.912V325.506H201.132V332.286Z" fill="#333333"/>
<path d="M153.664 339.072H160.444V332.292H153.664V339.072Z" fill="#333333"/>
<path d="M160.444 339.072H167.224V332.292H160.444V339.072Z" fill="#333333"/>
<path d="M167.23 339.072H174.01V332.292H167.23V339.072Z" fill="#333333"/>
<path d="M174.01 339.072H180.791V332.292H174.01V339.072Z" fill="#333333"/>
<path d="M180.785 339.072H187.565V332.292H180.785V339.072Z" fill="#333333"/>
<path d="M187.571 339.072H194.351V332.292H187.571V339.072Z" fill="#333333"/>
<path d="M194.351 339.072H201.132V332.292H194.351V339.072Z" fill="#333333"/>
<path d="M201.132 339.072H207.912V332.292H201.132V339.072Z" fill="#333333"/>
<path d="M214.692 325.495H207.912V332.275H214.692V325.495Z" fill="black"/>
<path d="M153.664 325.495H146.883V332.275H153.664V325.495Z" fill="black"/>
<path d="M160.444 339.056H153.664V345.836H160.444V339.056Z" fill="black"/>
<path d="M153.664 332.275H146.883V339.056H153.664V332.275Z" fill="black"/>
<path d="M167.224 339.056H160.444V345.836H167.224V339.056Z" fill="black"/>
<path d="M174.005 339.056H167.224V345.836H174.005V339.056Z" fill="black"/>
<path d="M180.785 339.056H174.005V345.836H180.785V339.056Z" fill="black"/>
<path d="M187.571 339.056H180.791V345.836H187.571V339.056Z" fill="black"/>
<path d="M194.351 339.056H187.571V345.836H194.351V339.056Z" fill="black"/>
<path d="M201.132 339.056H194.351V345.836H201.132V339.056Z" fill="black"/>
<path d="M207.912 339.056H201.132V345.836H207.912V339.056Z" fill="black"/>
<path d="M214.692 332.275H207.912V339.056H214.692V332.275Z" fill="black"/>
<path d="M201.132 257.68H194.351V264.461H201.132V257.68Z" fill="black"/>
<path d="M160.444 291.588L153.664 291.593V318.715H201.132V291.593H160.444V291.588Z" fill="#1354C9"/>
<path d="M194.351 311.934H201.132V305.154H194.351V311.934Z" fill="#230F7A"/>
<path d="M160.444 291.593H153.664V298.373H160.444V291.593Z" fill="white"/>
<path d="M153.664 305.143H160.444V298.362H153.664V305.143Z" fill="#C9DAF8"/>
<path d="M167.224 298.362H160.444V305.143H167.224V298.362Z" fill="white"/>
<path d="M174.005 298.362H167.224V305.143H174.005V298.362Z" fill="white"/>
<path d="M180.785 298.362H174.005V305.143H180.785V298.362Z" fill="white"/>
<path d="M187.571 298.362H180.791V305.143H187.571V298.362Z" fill="white"/>
<path d="M194.351 298.362H187.571V305.143H194.351V298.362Z" fill="white"/>
<path d="M201.132 298.362H194.351V305.143H201.132V298.362Z" fill="white"/>
<path d="M153.664 311.94H160.444V305.159H153.664V311.94Z" fill="#C9DAF8"/>
<path d="M153.664 318.72H160.444V311.94H153.664V318.72Z" fill="#C9DAF8"/>
<path d="M194.351 318.709H201.132V311.929H194.351V318.709Z" fill="#230F7A"/>
<path d="M187.571 318.709H194.351V311.929H187.571V318.709Z" fill="#230F7A"/>
<path d="M180.785 318.709H187.565V311.929H180.785V318.709Z" fill="#230F7A"/>
<path d="M194.351 298.368H201.132V291.588H194.351V298.368Z" fill="#230F7A"/>
<path d="M72.2886 271.252H58.7224V278.033H51.9421V284.813H45.1617V291.593H51.9421V318.72H85.8493V311.94H92.6296V305.159H99.41V298.379H92.6296V291.593H85.8493V284.813H79.0689V278.033H72.2886V271.252Z" fill="#1354C9"/>
<path d="M207.807 183.091H180.686L180.785 216.998H187.466V223.779H214.593V196.657H207.807V183.091Z" fill="#8F95B8"/>
<path d="M275.622 189.877H255.281V196.657H221.374V237.345H268.842V230.565H275.622V223.779H282.402V216.998H289.183V196.657H275.622V189.877Z" fill="#F8C5AF"/>
<path d="M85.8493 122.063V135.629H79.069V155.97H85.8493V162.75H79.069V169.536L72.2887 176.316L65.5028 183.097H38.3814V176.316H31.6011V155.97H38.3814V149.189H45.1618V142.409H51.9421V135.629H65.5028V128.848H79.069V122.063H85.8493Z" fill="#F8C5AF"/>
<path d="M268.842 135.623H295.968V142.404H302.749V189.877H275.622V183.091H248.495V176.311H241.715V189.877H214.593V183.091H207.807V176.311H180.686V183.091H174.005V216.998H146.883V210.218H92.6297V203.438H99.41V189.877H106.196V176.311H112.976V169.531H106.196V162.75H112.976V155.97H106.196V162.569V162.75H92.6297V149.19H85.8493V128.843H92.6297V108.496V101.716H99.41H106.091V128.843H112.976L112.872 135.623H119.652V142.404H133.213V149.19H146.779V155.97H160.34V169.531H167.12V176.311H194.247V169.531H201.027V162.75H241.715V155.97H255.281V149.19H262.061V142.404H268.842V135.623Z" fill="#1354C9"/>
<path d="M180.686 176.311H146.779V210.218H153.664V216.998L160.444 223.779H174.005V214.496V183.091H180.686V176.311Z" fill="#C16B2D"/>
<path d="M106.19 94.9358H99.4099V101.716H106.19V94.9358Z" fill="black"/>
<path d="M99.41 94.9358H92.6297V101.716H99.41V94.9358Z" fill="black"/>
<path d="M92.6242 101.738H85.8438V108.518H92.6242V101.738Z" fill="black"/>
<path d="M85.8438 108.518H79.0634V115.299H85.8438V108.518Z" fill="black"/>
<path d="M79.0635 115.304H72.2831V122.085H79.0635V115.304Z" fill="black"/>
<path d="M72.2831 122.085H65.5027V128.865H72.2831V122.085Z" fill="black"/>
<path d="M65.5028 128.849H58.7224V135.629H65.5028V128.849Z" fill="black"/>
<path d="M58.7225 128.849H51.9421V135.629H58.7225V128.849Z" fill="black"/>
<path d="M51.9421 135.629H45.1617V142.409H51.9421V135.629Z" fill="black"/>
<path d="M45.1617 142.409H38.3813V149.19H45.1617V142.409Z" fill="black"/>
<path d="M72.2831 128.87H79.0634V122.09H72.2831V128.87Z" fill="#FFE4DD"/>
<path d="M72.2886 135.623H79.0689V128.843H72.2886V135.623Z" fill="#FFE4DD"/>
<path d="M65.5083 135.623H72.2887V128.843H65.5083V135.623Z" fill="#FFE4DD"/>
<path d="M58.728 142.409H65.5083V135.629H58.728V142.409Z" fill="#FFE4DD"/>
<path d="M51.9421 142.409H58.7224V135.629H51.9421V142.409Z" fill="#FFE4DD"/>
<path d="M45.1617 149.19H51.9421V142.409H45.1617V149.19Z" fill="#FFE4DD"/>
<path d="M38.3814 155.97H45.1617V149.19H38.3814V155.97Z" fill="#FFE4DD"/>
<path d="M79.069 169.52H72.2887V176.3H79.069V169.52Z" fill="black"/>
<path d="M85.8493 169.52H79.0689V176.3H85.8493V169.52Z" fill="black"/>
<path d="M92.6297 169.52H85.8493V176.3H92.6297V169.52Z" fill="black"/>
<path d="M72.2886 169.536H79.0689V162.756H72.2886V169.536Z" fill="#E19A81"/>
<path d="M65.5083 176.311H72.2887V169.531H65.5083V176.311Z" fill="#E19A81"/>
<path d="M79.069 169.536H85.8493V162.756H79.069V169.536Z" fill="#E19A81"/>
<path d="M85.8493 169.536H92.6297V162.756H85.8493V169.536Z" fill="#E19A81"/>
<path d="M79.069 162.756H85.8493V155.975H79.069V162.756Z" fill="#E19A81"/>
<path d="M92.6297 155.97H85.8493V162.75H92.6297V155.97Z" fill="black"/>
<path d="M92.6297 149.19H85.8493V155.97H92.6297V149.19Z" fill="white"/>
<path d="M85.8493 149.19H79.0689V155.97H85.8493V149.19Z" fill="black"/>
<path d="M85.8493 142.409H79.0689V149.19H85.8493V142.409Z" fill="black"/>
<path d="M85.8493 135.629H79.0689V142.409H85.8493V135.629Z" fill="black"/>
<path d="M85.8493 128.849H79.0689V135.629H85.8493V128.849Z" fill="black"/>
<path d="M85.8438 122.085H79.0634V128.865H85.8438V122.085Z" fill="black"/>
<path d="M85.8438 115.304H79.0634V122.085H85.8438V115.304Z" fill="black"/>
<path d="M99.41 162.75H92.6297V169.531H99.41V162.75Z" fill="black"/>
<path d="M106.19 162.75H99.4099V169.531H106.19V162.75Z" fill="black"/>
<path d="M112.976 155.97H106.196V162.75H112.976V155.97Z" fill="black"/>
<path d="M112.976 169.531H106.196V176.311H112.976V169.531Z" fill="black"/>
<path d="M106.19 176.311H99.4099V183.091H106.19V176.311Z" fill="black"/>
<path d="M106.19 183.091H99.4099V189.872H106.19V183.091Z" fill="black"/>
<path d="M99.41 189.877H92.6297V196.657H99.41V189.877Z" fill="black"/>
<path d="M99.41 196.657H92.6297V203.438H99.41V196.657Z" fill="black"/>
<path d="M92.6297 203.438H85.8493V210.218H92.6297V203.438Z" fill="black"/>
<path d="M92.6297 210.218H85.8493V216.998H92.6297V210.218Z" fill="black"/>
<path d="M85.8493 216.998H79.0689V223.779H85.8493V216.998Z" fill="black"/>
<path d="M85.8493 223.784H79.0689V230.565H85.8493V223.784Z" fill="black"/>
<path d="M85.8493 230.565H79.0689V237.345H85.8493V230.565Z" fill="black"/>
<path d="M85.8493 237.345H79.0689V244.125H85.8493V237.345Z" fill="black"/>
<path d="M92.6297 216.998H85.8493V223.779H92.6297V216.998Z" fill="#C6CACD"/>
<path d="M99.41 216.998H92.6297V223.779H99.41V216.998Z" fill="#C6CACD"/>
<path d="M92.6297 223.784H85.8493V230.565H92.6297V223.784Z" fill="#C6CACD"/>
<path d="M92.6297 230.565H85.8493V237.345H92.6297V230.565Z" fill="#C6CACD"/>
<path d="M92.6297 237.345H85.8493V244.125H92.6297V237.345Z" fill="#C6CACD"/>
<path d="M99.41 230.565H92.6297V237.345H99.41V230.565Z" fill="#C6CACD"/>
<path d="M99.41 237.345H92.6297V244.125H99.41V237.345Z" fill="#C6CACD"/>
<path d="M201.027 230.565H194.247V237.345H201.027V230.565Z" fill="#C6CACD"/>
<path d="M201.132 237.345H194.351V244.125H201.132V237.345Z" fill="#C6CACD"/>
<path d="M187.466 237.345H180.686V244.125H187.466V237.345Z" fill="#C6CACD"/>
<path d="M194.346 244.12H187.565V250.9H194.346V244.12Z" fill="#C6CACD"/>
<path d="M99.41 244.12H92.6297V250.9H99.41V244.12Z" fill="#C6CACD"/>
<path d="M106.19 244.12H99.4099V250.9H106.19V244.12Z" fill="#C6CACD"/>
<path d="M106.19 250.906H99.4099V257.686H106.19V250.906Z" fill="#C6CACD"/>
<path d="M112.976 250.906H106.196V257.686H112.976V250.906Z" fill="#C6CACD"/>
<path d="M112.976 257.68H106.196V264.461H112.976V257.68Z" fill="#C6CACD"/>
<path d="M112.976 271.247H119.756V264.466H112.976V271.247Z" fill="#E19A81"/>
<path d="M119.757 271.247H126.537V264.466H119.757V271.247Z" fill="#E19A81"/>
<path d="M126.537 271.247H133.317V264.466H126.537V271.247Z" fill="#E19A81"/>
<path d="M126.537 278.021H133.317V271.241H126.537V278.021Z" fill="#E19A81"/>
<path d="M133.323 278.021H140.103V271.241H133.323V278.021Z" fill="#E19A81"/>
<path d="M139.999 278.021H146.779V271.241H139.999V278.021Z" fill="#E19A81"/>
<path d="M140.103 284.807H146.883V278.027H140.103V284.807Z" fill="#E19A81"/>
<path d="M85.8493 250.906H79.0689V257.686H85.8493V250.906Z" fill="black"/>
<path d="M79.069 257.68H72.2887V264.461H79.069V257.68Z" fill="black"/>
<path d="M72.2831 264.472H65.5027V271.252H72.2831V264.472Z" fill="black"/>
<path d="M79.069 271.252H72.2887V278.033H79.069V271.252Z" fill="black"/>
<path d="M85.8493 278.032H79.0689V284.813H85.8493V278.032Z" fill="black"/>
<path d="M92.6297 284.813H85.8493V291.593H92.6297V284.813Z" fill="black"/>
<path d="M99.41 291.593H92.6297V298.373H99.41V291.593Z" fill="black"/>
<path d="M65.5028 264.472H58.7224V271.252H65.5028V264.472Z" fill="black"/>
<path d="M58.7225 271.252H51.9421V278.033H58.7225V271.252Z" fill="black"/>
<path d="M65.5028 291.593H58.7224V298.373H65.5028V291.593Z" fill="white"/>
<path d="M72.2831 298.379H65.5027V305.159H72.2831V298.379Z" fill="white"/>
<path d="M79.069 305.159H72.2887V311.94H79.069V305.159Z" fill="white"/>
<path d="M85.8493 305.159H79.0689V311.94H85.8493V305.159Z" fill="white"/>
<path d="M51.9421 278.032H45.1617V284.813H51.9421V278.032Z" fill="black"/>
<path d="M65.5083 278.032H72.2887V271.252H65.5083V278.032Z" fill="#C9DAF8"/>
<path d="M58.728 278.032H65.5083V271.252H58.728V278.032Z" fill="#C9DAF8"/>
<path d="M51.9421 284.813H58.7224V278.032H51.9421V284.813Z" fill="#C9DAF8"/>
<path d="M45.1617 291.593H51.9421V284.813H45.1617V291.593Z" fill="#C9DAF8"/>
<path d="M45.1617 284.813H38.3813V291.593H45.1617V284.813Z" fill="black"/>
<path d="M38.3814 291.593H31.6011V298.373H38.3814V291.593Z" fill="black"/>
<path d="M38.3814 298.379H31.6011V305.159H38.3814V298.379Z" fill="black"/>
<path d="M38.3814 305.159H31.6011V311.94H38.3814V305.159Z" fill="black"/>
<path d="M38.3814 311.94H31.6011V318.72H38.3814V311.94Z" fill="black"/>
<path d="M38.3814 318.72H31.6011V325.5H38.3814V318.72Z" fill="black"/>
<path d="M45.1617 325.5H38.3813V332.281H45.1617V325.5Z" fill="black"/>
<path d="M51.9421 332.281H45.1617V339.061H51.9421V332.281Z" fill="black"/>
<path d="M58.7225 332.281H51.9421V339.061H58.7225V332.281Z" fill="black"/>
<path d="M65.5028 332.281H58.7224V339.061H65.5028V332.281Z" fill="black"/>
<path d="M72.2831 332.281H65.5027V339.061H72.2831V332.281Z" fill="black"/>
<path d="M79.069 332.281H72.2887V339.061H79.069V332.281Z" fill="black"/>
<path d="M85.8493 325.5H79.0689V332.281H85.8493V325.5Z" fill="black"/>
<path d="M85.8493 318.72H79.0689V325.5H85.8493V318.72Z" fill="black"/>
<path d="M92.6297 311.94H85.8493V318.72H92.6297V311.94Z" fill="black"/>
<path d="M106.19 298.379H99.4099V305.159H106.19V298.379Z" fill="black"/>
<path d="M112.976 298.368H106.196V305.148H112.976V298.368Z" fill="black"/>
<path d="M119.757 291.588H112.976V298.368H119.757V291.588Z" fill="black"/>
<path d="M126.537 284.813H119.756V291.593H126.537V284.813Z" fill="black"/>
<path d="M99.41 305.159H92.6297V311.94H99.41V305.159Z" fill="black"/>
<path d="M79.069 318.72H72.2887V325.5H79.069V318.72Z" fill="black"/>
<path d="M72.2831 318.72H65.5027V325.5H72.2831V318.72Z" fill="black"/>
<path d="M65.5028 318.72H58.7224V325.5H65.5028V318.72Z" fill="black"/>
<path d="M58.7225 318.72H51.9421V325.5H58.7225V318.72Z" fill="black"/>
<path d="M51.9421 311.94H45.1617V318.72H51.9421V311.94Z" fill="black"/>
<path d="M51.9421 305.159H45.1617V311.94H51.9421V305.159Z" fill="black"/>
<path d="M51.9421 298.379H45.1617V305.159H51.9421V298.379Z" fill="black"/>
<path d="M51.9421 291.593H45.1617V298.373H51.9421V291.593Z" fill="black"/>
<path d="M167.224 223.784H160.444V230.565H167.224V223.784Z" fill="black"/>
<path d="M207.912 230.565H201.132V237.345H207.912V230.565Z" fill="black"/>
<path d="M207.912 237.345H201.132V244.125H207.912V237.345Z" fill="black"/>
<path d="M201.132 244.12H194.351V250.9H201.132V244.12Z" fill="black"/>
<path d="M99.41 210.218H92.6297V216.998H99.41V210.218Z" fill="black"/>
<path d="M106.19 210.218H99.4099V216.998H106.19V210.218Z" fill="black"/>
<path d="M112.976 210.218H106.196V216.998H112.976V210.218Z" fill="black"/>
<path d="M119.757 210.218H112.976V216.998H119.757V210.218Z" fill="black"/>
<path d="M126.537 210.218H119.756V216.998H126.537V210.218Z" fill="black"/>
<path d="M133.317 210.218H126.537V216.998H133.317V210.218Z" fill="black"/>
<path d="M140.098 210.218H133.317V216.998H140.098V210.218Z" fill="black"/>
<path d="M99.4155 210.218H106.196V203.438H99.4155V210.218Z" fill="#230F7A"/>
<path d="M106.19 210.218H112.971V203.438H106.19V210.218Z" fill="#230F7A"/>
<path d="M112.976 210.218H119.756V203.438H112.976V210.218Z" fill="#230F7A"/>
<path d="M119.757 210.218H126.537V203.438H119.757V210.218Z" fill="#230F7A"/>
<path d="M126.537 210.218H133.317V203.438H126.537V210.218Z" fill="#230F7A"/>
<path d="M133.323 210.218H140.103V203.438H133.323V210.218Z" fill="#230F7A"/>
<path d="M146.878 210.218H140.098V216.998H146.878V210.218Z" fill="black"/>
<path d="M153.664 216.998H146.883V223.779H153.664V216.998Z" fill="black"/>
<path d="M160.444 216.998H153.664V223.779H160.444V216.998Z" fill="black"/>
<path d="M174.005 223.784H167.224V230.565H174.005V223.784Z" fill="black"/>
<path d="M180.681 223.784H173.9V230.565H180.681V223.784Z" fill="black"/>
<path d="M187.45 223.784H180.67V230.565H187.45V223.784Z" fill="black"/>
<path d="M214.588 223.784H207.807V230.565H214.588V223.784Z" fill="black"/>
<path d="M207.807 223.784H201.027V230.565H207.807V223.784Z" fill="black"/>
<path d="M201.027 223.784H194.247V230.565H201.027V223.784Z" fill="black"/>
<path d="M194.247 223.784H187.466V230.565H194.247V223.784Z" fill="black"/>
<path d="M187.466 216.998H180.686V223.779H187.466V216.998Z" fill="black"/>
<path d="M207.813 223.784H214.593V217.004H207.813V223.784Z" fill="#5C628E"/>
<path d="M201.027 223.784H207.807V217.004H201.027V223.784Z" fill="#5C628E"/>
<path d="M194.247 223.784H201.027V217.004H194.247V223.784Z" fill="#5C628E"/>
<path d="M187.466 223.784H194.247V217.004H187.466V223.784Z" fill="#5C628E"/>
<path d="M187.466 217.004H194.247V210.224H187.466V217.004Z" fill="#5C628E"/>
<path d="M180.681 217.004H187.461V210.224H180.681V217.004Z" fill="#5C628E"/>
<path d="M180.681 203.438H187.461V196.657H180.681V203.438Z" fill="#5C628E"/>
<path d="M180.785 216.998H174.005V223.779H180.785V216.998Z" fill="black"/>
<path d="M180.785 210.218H174.005V216.998H180.785V210.218Z" fill="black"/>
<path d="M180.785 203.438H174.005V210.218H180.785V203.438Z" fill="black"/>
<path d="M180.785 196.657H174.005V203.438H180.785V196.657Z" fill="black"/>
<path d="M180.785 189.877H174.005V196.657H180.785V189.877Z" fill="black"/>
<path d="M180.785 183.091H174.005V189.872H180.785V183.091Z" fill="black"/>
<path d="M187.571 189.877H180.791V196.657H187.571V189.877Z" fill="black"/>
<path d="M194.351 189.877H187.571V196.657H194.351V189.877Z" fill="black"/>
<path d="M187.571 203.438H180.791V210.218H187.571V203.438Z" fill="black"/>
<path d="M194.351 203.438H187.571V210.218H194.351V203.438Z" fill="black"/>
<path d="M187.466 176.311H180.686V183.091H187.466V176.311Z" fill="black"/>
<path d="M194.247 176.311H187.466V183.091H194.247V176.311Z" fill="black"/>
<path d="M201.027 176.311H194.247V183.091H201.027V176.311Z" fill="black"/>
<path d="M207.807 176.311H201.027V183.091H207.807V176.311Z" fill="black"/>
<path d="M214.588 183.091H207.807V189.872H214.588V183.091Z" fill="black"/>
<path d="M214.588 189.877H207.807V196.657H214.588V189.877Z" fill="black"/>
<path d="M282.402 128.843H275.622V135.623H282.402V128.843Z" fill="black"/>
<path d="M289.183 128.843H282.402V135.623H289.183V128.843Z" fill="black"/>
<path d="M295.963 128.843H289.183V135.623H295.963V128.843Z" fill="black"/>
<path d="M302.749 135.623H295.968V142.404H302.749V135.623Z" fill="black"/>
<path d="M309.529 142.404H302.749V149.184H309.529V142.404Z" fill="black"/>
<path d="M309.529 149.19H302.749V155.97H309.529V149.19Z" fill="black"/>
<path d="M309.529 155.97H302.749V162.75H309.529V155.97Z" fill="black"/>
<path d="M309.529 162.75H302.749V169.531H309.529V162.75Z" fill="black"/>
<path d="M309.529 169.531H302.749V176.311H309.529V169.531Z" fill="black"/>
<path d="M309.529 176.311H302.749V183.091H309.529V176.311Z" fill="black"/>
<path d="M309.529 183.091H302.749V189.872H309.529V183.091Z" fill="black"/>
<path d="M302.749 189.877H295.968V196.657H302.749V189.877Z" fill="black"/>
<path d="M295.963 189.877H289.183V196.657H295.963V189.877Z" fill="black"/>
<path d="M295.963 196.657H289.183V203.438H295.963V196.657Z" fill="black"/>
<path d="M295.963 203.438H289.183V210.218H295.963V203.438Z" fill="black"/>
<path d="M295.963 210.218H289.183V216.998H295.963V210.218Z" fill="black"/>
<path d="M289.183 216.998H282.402V223.779H289.183V216.998Z" fill="black"/>
<path d="M282.402 223.784H275.622V230.565H282.402V223.784Z" fill="black"/>
<path d="M275.622 230.565H268.842V237.345H275.622V230.565Z" fill="black"/>
<path d="M268.842 237.345H262.061V244.125H268.842V237.345Z" fill="black"/>
<path d="M262.061 237.345H255.281V244.125H262.061V237.345Z" fill="black"/>
<path d="M255.275 237.345H248.495V244.125H255.275V237.345Z" fill="black"/>
<path d="M248.495 237.345H241.715V244.125H248.495V237.345Z" fill="black"/>
<path d="M241.715 237.345H234.934V244.125H241.715V237.345Z" fill="black"/>
<path d="M234.934 237.345H228.154V244.125H234.934V237.345Z" fill="black"/>
<path d="M228.154 237.345H221.374V244.125H228.154V237.345Z" fill="black"/>
<path d="M282.408 217.004H289.188V210.224H282.408V217.004Z" fill="#E19A81"/>
<path d="M275.622 223.784H282.402V217.004H275.622V223.784Z" fill="#E19A81"/>
<path d="M268.842 230.559H275.622V223.779H268.842V230.559Z" fill="#E19A81"/>
<path d="M262.061 237.345H268.842V230.565H262.061V237.345Z" fill="#E19A81"/>
<path d="M255.275 237.345H262.056V230.565H255.275V237.345Z" fill="#E19A81"/>
<path d="M248.501 237.345H255.281V230.565H248.501V237.345Z" fill="#E19A81"/>
<path d="M241.72 237.345H248.5V230.565H241.72V237.345Z" fill="#E19A81"/>
<path d="M234.934 237.345H241.715V230.565H234.934V237.345Z" fill="#E19A81"/>
<path d="M228.154 237.345H234.934V230.565H228.154V237.345Z" fill="#E19A81"/>
<path d="M221.368 237.345H228.149V230.565H221.368V237.345Z" fill="#E19A81"/>
<path d="M248.501 203.438H255.281V196.657H248.501V203.438Z" fill="#FFE4DD"/>
<path d="M241.72 203.438H248.5V196.657H241.72V203.438Z" fill="#FFE4DD"/>
<path d="M234.934 203.438H241.715V196.657H234.934V203.438Z" fill="#FFE4DD"/>
<path d="M228.154 203.438H234.934V196.657H228.154V203.438Z" fill="#FFE4DD"/>
<path d="M221.368 203.438H228.149V196.657H221.368V203.438Z" fill="#FFE4DD"/>
<path d="M221.368 230.565H214.588V237.345H221.368V230.565Z" fill="black"/>
<path d="M221.368 223.784H214.588V230.565H221.368V223.784Z" fill="black"/>
<path d="M221.368 216.998H214.588V223.779H221.368V216.998Z" fill="black"/>
<path d="M221.368 210.218H214.588V216.998H221.368V210.218Z" fill="black"/>
<path d="M221.368 203.438H214.588V210.218H221.368V203.438Z" fill="black"/>
<path d="M221.368 196.657H214.588V203.438H221.368V196.657Z" fill="black"/>
<path d="M221.368 189.877H214.588V196.657H221.368V189.877Z" fill="black"/>
<path d="M228.154 189.877H221.374V196.657H228.154V189.877Z" fill="black"/>
<path d="M234.934 189.877H228.154V196.657H234.934V189.877Z" fill="black"/>
<path d="M241.715 189.877H234.934V196.657H241.715V189.877Z" fill="black"/>
<path d="M248.495 189.877H241.715V196.657H248.495V189.877Z" fill="black"/>
<path d="M248.495 183.091H241.715V189.872H248.495V183.091Z" fill="black"/>
<path d="M248.495 176.311H241.715V183.091H248.495V176.311Z" fill="black"/>
<path d="M255.275 189.877H248.495V196.657H255.275V189.877Z" fill="black"/>
<path d="M255.275 183.091H248.495V189.872H255.275V183.091Z" fill="black"/>
<path d="M262.061 183.091H255.281V189.872H262.061V183.091Z" fill="black"/>
<path d="M268.842 183.091H262.061V189.872H268.842V183.091Z" fill="black"/>
<path d="M275.622 183.091H268.842V189.872H275.622V183.091Z" fill="black"/>
<path d="M289.183 189.877H282.402V196.657H289.183V189.877Z" fill="black"/>
<path d="M282.402 189.877H275.622V196.657H282.402V189.877Z" fill="black"/>
<path d="M302.749 183.091H295.968V189.872H302.749V183.091Z" fill="white"/>
<path d="M295.963 183.091H289.183V189.872H295.963V183.091Z" fill="white"/>
<path d="M255.275 176.311H248.495V183.091H255.275V176.311Z" fill="white"/>
<path d="M262.061 176.311H255.281V183.091H262.061V176.311Z" fill="white"/>
<path d="M268.842 176.311H262.061V183.091H268.842V176.311Z" fill="white"/>
<path d="M275.622 176.311H268.842V183.091H275.622V176.311Z" fill="white"/>
<path d="M289.183 183.091H282.402V189.872H289.183V183.091Z" fill="white"/>
<path d="M282.402 183.091H275.622V189.872H282.402V183.091Z" fill="white"/>
<path d="M275.622 142.409H282.402V135.629H275.622V142.409Z" fill="#C9DAF8"/>
<path d="M282.408 142.409H289.188V135.629H282.408V142.409Z" fill="#C9DAF8"/>
<path d="M289.188 142.409H295.968V135.629H289.188V142.409Z" fill="#C9DAF8"/>
<path d="M295.963 149.19H302.743V142.409H295.963V149.19Z" fill="#C9DAF8"/>
<path d="M268.842 142.409H275.622V135.629H268.842V142.409Z" fill="#C9DAF8"/>
<path d="M126.432 142.404H119.652V149.184H126.432V142.404Z" fill="white"/>
<path d="M126.432 149.19H119.652V155.97H126.432V149.19Z" fill="white"/>
<path d="M119.757 149.19H112.976V155.97H119.757V149.19Z" fill="white"/>
<path d="M92.6297 142.404H85.8493V149.184H92.6297V142.404Z" fill="white"/>
<path d="M92.6297 135.623H85.8493V142.404H92.6297V135.623Z" fill="white"/>
<path d="M92.6297 128.843H85.8493V135.623H92.6297V128.843Z" fill="white"/>
<path d="M92.6242 122.085H85.8438V128.865H92.6242V122.085Z" fill="white"/>
<path d="M92.6242 115.304H85.8438V122.085H92.6242V115.304Z" fill="white"/>
<path d="M92.6242 108.518H85.8438V115.299H92.6242V108.518Z" fill="white"/>
<path d="M119.757 155.97H112.976V162.75H119.757V155.97Z" fill="white"/>
<path d="M119.757 162.75H112.976V169.531H119.757V162.75Z" fill="white"/>
<path d="M112.976 162.75H106.196V169.531H112.976V162.75Z" fill="white"/>
<path d="M262.061 142.404H255.281V149.184H262.061V142.404Z" fill="black"/>
<path d="M167.12 162.75H160.34V169.531H167.12V162.75Z" fill="black"/>
<path d="M160.34 155.97H153.559V162.75H160.34V155.97Z" fill="white"/>
<path d="M160.34 162.75H153.559V169.531H160.34V162.75Z" fill="white"/>
<path d="M173.9 169.531H167.12V176.311H173.9V169.531Z" fill="black"/>
<path d="M167.12 169.531H160.34V176.311H167.12V169.531Z" fill="black"/>
<path d="M160.34 169.531H153.559V176.311H160.34V169.531Z" fill="black"/>
<path d="M153.559 169.531H146.779V176.311H153.559V169.531Z" fill="black"/>
<path d="M146.773 169.531H139.993V176.311H146.773V169.531Z" fill="black"/>
<path d="M160.235 183.091H153.455V189.872H160.235V183.091Z" fill="white"/>
<path d="M167.12 189.877H160.34V196.657H167.12V189.877Z" fill="white"/>
<path d="M174.005 196.657H167.224V203.438H174.005V196.657Z" fill="white"/>
<path d="M146.773 176.311H139.993V183.091H146.773V176.311Z" fill="black"/>
<path d="M146.773 183.091H139.993V189.872H146.773V183.091Z" fill="black"/>
<path d="M146.773 189.877H139.993V196.657H146.773V189.877Z" fill="black"/>
<path d="M146.773 196.657H139.993V203.438H146.773V196.657Z" fill="black"/>
<path d="M146.773 203.438H139.993V210.218H146.773V203.438Z" fill="black"/>
<path d="M153.664 210.218H146.883V216.998H153.664V210.218Z" fill="black"/>
<path d="M167.224 216.998H160.444V223.779H167.224V216.998Z" fill="#A04C22"/>
<path d="M160.444 210.218H153.664V216.998H160.444V210.218Z" fill="#A04C22"/>
<path d="M174.005 216.998H167.224V223.779H174.005V216.998Z" fill="#A04C22"/>
<path d="M153.559 203.438H146.779V210.218H153.559V203.438Z" fill="#A04C22"/>
<path d="M180.681 169.531H173.9V176.311H180.681V169.531Z" fill="black"/>
<path d="M187.466 169.531H180.686V176.311H187.466V169.531Z" fill="black"/>
<path d="M194.247 169.531H187.466V176.311H194.247V169.531Z" fill="black"/>
<path d="M201.027 162.75H194.247V169.531H201.027V162.75Z" fill="black"/>
<path d="M201.027 169.531H194.247V176.311H201.027V169.531Z" fill="white"/>
<path d="M207.807 162.75H201.027V169.531H207.807V162.75Z" fill="white"/>
<path d="M126.432 61.0286V142.404H133.213V149.19H146.779V155.97H228.154V149.19H241.715V142.404H255.281V88.1555H248.495V81.3751H241.715V74.5948H234.934V67.8089H221.374V61.0286H126.432Z" fill="#F8C5AF"/>
<path d="M255.281 122.063H126.432V142.404H133.213V149.189H146.779V155.97H228.154V149.189H241.715V142.404H255.281V122.063Z" fill="#E19A81"/>
<path d="M262.061 135.623H268.841V128.843H275.517L275.622 47.4679H268.841V40.6876H262.061V27.1214H255.281V20.341H248.495V13.5607H228.154V6.78036H139.998V13.5607H126.432V20.341H119.652V33.9072H112.872V128.843H119.652V61.0286H126.432V54.2483H221.374V61.0286H234.934V67.8089H241.715V74.5948H248.495V81.3751H255.281V88.1555H262.061V135.623Z" fill="white"/>
<path d="M167.12 6.78036V13.5607H160.34V20.3411H153.559V33.9072H146.779V54.2483H194.247V33.9072H201.027V20.3411H207.808V13.5607H214.593V6.78036H167.12Z" fill="#1354C9"/>
<path d="M112.872 33.9072H106.091V40.6876H112.872V33.9072Z" fill="black"/>
<path d="M119.652 27.1214H112.872V33.9017H119.652V27.1214Z" fill="black"/>
<path d="M119.652 20.341H112.872V27.1214H119.652V20.341Z" fill="black"/>
<path d="M126.432 13.5607H119.652V20.341H126.432V13.5607Z" fill="black"/>
<path d="M133.213 6.78036H126.432V13.5607H133.213V6.78036Z" fill="black"/>
<path d="M139.993 6.78036H133.213V13.5607H139.993V6.78036Z" fill="black"/>
<path d="M146.773 0H139.993V6.78033H146.773V0Z" fill="black"/>
<path d="M153.559 0H146.779V6.78033H153.559V0Z" fill="black"/>
<path d="M160.34 0H153.559V6.78033H160.34V0Z" fill="black"/>
<path d="M167.12 0H160.34V6.78033H167.12V0Z" fill="black"/>
<path d="M173.9 0H167.12V6.78033H173.9V0Z" fill="black"/>
<path d="M180.681 0H173.9V6.78033H180.681V0Z" fill="black"/>
<path d="M187.466 0H180.686V6.78033H187.466V0Z" fill="black"/>
<path d="M194.247 0H187.466V6.78033H194.247V0Z" fill="black"/>
<path d="M201.027 0H194.247V6.78033H201.027V0Z" fill="black"/>
<path d="M207.807 0H201.027V6.78033H207.807V0Z" fill="black"/>
<path d="M214.588 0H207.807V6.78033H214.588V0Z" fill="black"/>
<path d="M221.368 0H214.588V6.78033H221.368V0Z" fill="black"/>
<path d="M228.154 0H221.374V6.78033H228.154V0Z" fill="black"/>
<path d="M234.934 6.78036H228.154V13.5607H234.934V6.78036Z" fill="black"/>
<path d="M241.715 6.78036H234.934V13.5607H241.715V6.78036Z" fill="black"/>
<path d="M248.495 6.78036H241.715V13.5607H248.495V6.78036Z" fill="black"/>
<path d="M255.275 13.5607H248.495V20.341H255.275V13.5607Z" fill="black"/>
<path d="M262.061 20.341H255.281V27.1214H262.061V20.341Z" fill="black"/>
<path d="M268.842 27.1214H262.061V33.9017H268.842V27.1214Z" fill="black"/>
<path d="M268.842 33.9072H262.061V40.6876H268.842V33.9072Z" fill="black"/>
<path d="M275.622 40.6875H268.842V47.4679H275.622V40.6875Z" fill="black"/>
<path d="M282.402 47.4679H275.622V54.2483H282.402V47.4679Z" fill="black"/>
<path d="M282.402 54.2482H275.622V61.0286H282.402V54.2482Z" fill="black"/>
<path d="M282.402 61.0286H275.622V67.8089H282.402V61.0286Z" fill="black"/>
<path d="M282.402 67.8089H275.622V74.5893H282.402V67.8089Z" fill="black"/>
<path d="M282.402 74.5948H275.622V81.3751H282.402V74.5948Z" fill="black"/>
<path d="M282.402 81.3751H275.622V88.1555H282.402V81.3751Z" fill="black"/>
<path d="M282.402 88.1555H275.622V94.9358H282.402V88.1555Z" fill="black"/>
<path d="M282.402 94.9358H275.622V101.716H282.402V94.9358Z" fill="black"/>
<path d="M282.402 101.716H275.622V108.496H282.402V101.716Z" fill="black"/>
<path d="M282.402 108.496H275.622V115.277H282.402V108.496Z" fill="black"/>
<path d="M282.402 115.282H275.622V122.063H282.402V115.282Z" fill="black"/>
<path d="M282.402 122.063H275.622V128.843H282.402V122.063Z" fill="black"/>
<path d="M275.622 128.843H268.842V135.623H275.622V128.843Z" fill="black"/>
<path d="M268.842 135.623H262.061V142.404H268.842V135.623Z" fill="black"/>
<path d="M262.061 135.623H255.281V142.404H262.061V135.623Z" fill="black"/>
<path d="M255.275 142.404H248.495V149.184H255.275V142.404Z" fill="black"/>
<path d="M262.061 94.9358H255.281V101.716H262.061V94.9358Z" fill="black"/>
<path d="M262.061 101.716H255.281V108.496H262.061V101.716Z" fill="black"/>
<path d="M262.061 108.496H255.281V115.277H262.061V108.496Z" fill="black"/>
<path d="M262.061 115.282H255.281V122.063H262.061V115.282Z" fill="black"/>
<path d="M262.061 122.063H255.281V128.843H262.061V122.063Z" fill="black"/>
<path d="M112.872 40.6875H106.091V47.4679H112.872V40.6875Z" fill="black"/>
<path d="M112.872 47.4679H106.091V54.2483H112.872V47.4679Z" fill="black"/>
<path d="M112.872 54.2482H106.091V61.0286H112.872V54.2482Z" fill="black"/>
<path d="M112.872 61.0286H106.091V67.8089H112.872V61.0286Z" fill="black"/>
<path d="M112.872 67.8089H106.091V74.5893H112.872V67.8089Z" fill="black"/>
<path d="M112.872 74.5948H106.091V81.3751H112.872V74.5948Z" fill="black"/>
<path d="M112.872 81.3751H106.091V88.1555H112.872V81.3751Z" fill="black"/>
<path d="M112.872 88.1555H106.091V94.9358H112.872V88.1555Z" fill="black"/>
<path d="M112.872 94.9358H106.091V101.716H112.872V94.9358Z" fill="black"/>
<path d="M112.872 101.716H106.091V108.496H112.872V101.716Z" fill="black"/>
<path d="M112.872 108.496H106.091V115.277H112.872V108.496Z" fill="black"/>
<path d="M112.872 115.282H106.091V122.063H112.872V115.282Z" fill="black"/>
<path d="M112.872 122.063H106.091V128.843H112.872V122.063Z" fill="black"/>
<path d="M119.652 128.843H112.872V135.623H119.652V128.843Z" fill="black"/>
<path d="M126.432 94.9358H119.652V101.716H126.432V94.9358Z" fill="black"/>
<path d="M126.432 88.1555H119.652V94.9358H126.432V88.1555Z" fill="black"/>
<path d="M126.432 81.3751H119.652V88.1555H126.432V81.3751Z" fill="black"/>
<path d="M126.432 74.5948H119.652V81.3751H126.432V74.5948Z" fill="black"/>
<path d="M126.432 67.8089H119.652V74.5893H126.432V67.8089Z" fill="black"/>
<path d="M133.213 54.2482H126.432V61.0286H133.213V54.2482Z" fill="black"/>
<path d="M139.993 54.2482H133.213V61.0286H139.993V54.2482Z" fill="black"/>
<path d="M146.773 54.2482H139.993V61.0286H146.773V54.2482Z" fill="black"/>
<path d="M153.559 54.2482H146.779V61.0286H153.559V54.2482Z" fill="black"/>
<path d="M146.773 47.4679H139.993V54.2483H146.773V47.4679Z" fill="black"/>
<path d="M146.773 40.6875H139.993V47.4679H146.773V40.6875Z" fill="black"/>
<path d="M146.773 33.9072H139.993V40.6876H146.773V33.9072Z" fill="black"/>
<path d="M153.559 33.9072H146.779V40.6876H153.559V33.9072Z" fill="#C9DAF8"/>
<path d="M153.559 27.1214H146.779V33.9017H153.559V27.1214Z" fill="black"/>
<path d="M153.559 20.341H146.779V27.1214H153.559V20.341Z" fill="black"/>
<path d="M160.34 13.5607H153.559V20.341H160.34V13.5607Z" fill="black"/>
<path d="M167.12 6.78036H160.34V13.5607H167.12V6.78036Z" fill="black"/>
<path d="M173.9 6.78036H167.12V13.5607H173.9V6.78036Z" fill="#C9DAF8"/>
<path d="M180.681 6.78036H173.9V13.5607H180.681V6.78036Z" fill="#C9DAF8"/>
<path d="M187.466 6.78036H180.686V13.5607H187.466V6.78036Z" fill="#C9DAF8"/>
<path d="M194.247 6.78036H187.466V13.5607H194.247V6.78036Z" fill="#C9DAF8"/>
<path d="M201.027 6.78036H194.247V13.5607H201.027V6.78036Z" fill="#C9DAF8"/>
<path d="M207.807 6.78036H201.027V13.5607H207.807V6.78036Z" fill="#C9DAF8"/>
<path d="M214.588 6.78036H207.807V13.5607H214.588V6.78036Z" fill="#C9DAF8"/>
<path d="M160.34 27.1214H153.559V33.9017H160.34V27.1214Z" fill="#C9DAF8"/>
<path d="M160.34 20.341H153.559V27.1214H160.34V20.341Z" fill="#C9DAF8"/>
<path d="M167.12 13.5607H160.34V20.341H167.12V13.5607Z" fill="#C9DAF8"/>
<path d="M201.027 47.4679H194.247V54.2483H201.027V47.4679Z" fill="black"/>
<path d="M201.027 40.6875H194.247V47.4679H201.027V40.6875Z" fill="black"/>
<path d="M201.027 33.9072H194.247V40.6876H201.027V33.9072Z" fill="black"/>
<path d="M207.807 27.1214H201.027V33.9017H207.807V27.1214Z" fill="black"/>
<path d="M207.807 20.341H201.027V27.1214H207.807V20.341Z" fill="black"/>
<path d="M214.588 13.5607H207.807V20.341H214.588V13.5607Z" fill="black"/>
<path d="M221.368 6.78036H214.588V13.5607H221.368V6.78036Z" fill="black"/>
<path d="M160.34 54.2482H153.559V61.0286H160.34V54.2482Z" fill="black"/>
<path d="M167.12 54.2482H160.34V61.0286H167.12V54.2482Z" fill="black"/>
<path d="M173.9 54.2482H167.12V61.0286H173.9V54.2482Z" fill="black"/>
<path d="M173.9 81.3751H167.12V88.1555H173.9V81.3751Z" fill="black"/>
<path d="M167.12 81.3751H160.34V88.1555H167.12V81.3751Z" fill="black"/>
<path d="M167.12 88.1555H160.34V94.9358H167.12V88.1555Z" fill="#E19A81"/>
<path d="M160.34 88.1555H153.559V94.9358H160.34V88.1555Z" fill="#E19A81"/>
<path d="M160.34 81.3751H153.559V88.1555H160.34V81.3751Z" fill="#E19A81"/>
<path d="M153.559 81.3751H146.779V88.1555H153.559V81.3751Z" fill="#E19A81"/>
<path d="M146.773 81.3751H139.993V88.1555H146.773V81.3751Z" fill="#E19A81"/>
<path d="M139.993 81.3751H133.213V88.1555H139.993V81.3751Z" fill="#E19A81"/>
<path d="M173.9 88.1555H167.12V94.9358H173.9V88.1555Z" fill="#E19A81"/>
<path d="M173.9 94.9358H167.12V101.716H173.9V94.9358Z" fill="#E19A81"/>
<path d="M194.247 81.3751H187.466V88.1555H194.247V81.3751Z" fill="black"/>
<path d="M201.027 81.3751H194.247V88.1555H201.027V81.3751Z" fill="black"/>
<path d="M201.027 74.5948H194.247V81.3751H201.027V74.5948Z" fill="black"/>
<path d="M207.807 74.5948H201.027V81.3751H207.807V74.5948Z" fill="black"/>
<path d="M214.588 74.5948H207.807V81.3751H214.588V74.5948Z" fill="black"/>
<path d="M214.588 94.9358H207.807V101.716H214.588V94.9358Z" fill="black"/>
<path d="M214.588 101.716H207.807V108.496H214.588V101.716Z" fill="black"/>
<path d="M221.368 94.9358H214.588V101.716H221.368V94.9358Z" fill="white"/>
<path d="M228.154 94.9358H221.374V101.716H228.154V94.9358Z" fill="white"/>
<path d="M234.934 94.9358H228.154V101.716H234.934V94.9358Z" fill="white"/>
<path d="M221.368 101.716H214.588V108.496H221.368V101.716Z" fill="white"/>
<path d="M228.154 101.716H221.374V108.496H228.154V101.716Z" fill="white"/>
<path d="M207.807 94.9358H201.027V101.716H207.807V94.9358Z" fill="black"/>
<path d="M207.807 101.716H201.027V108.496H207.807V101.716Z" fill="black"/>
<path d="M221.368 74.5948H214.588V81.3751H221.368V74.5948Z" fill="black"/>
<path d="M228.154 74.5948H221.374V81.3751H228.154V74.5948Z" fill="black"/>
<path d="M201.027 88.1555H194.247V94.9358H201.027V88.1555Z" fill="#E19A81"/>
<path d="M194.247 88.1555H187.466V94.9358H194.247V88.1555Z" fill="#E19A81"/>
<path d="M201.027 94.9358H194.247V101.716H201.027V94.9358Z" fill="#E19A81"/>
<path d="M207.807 81.3751H201.027V88.1555H207.807V81.3751Z" fill="#E19A81"/>
<path d="M207.807 88.1555H201.027V94.9358H207.807V88.1555Z" fill="#E19A81"/>
<path d="M214.588 81.3751H207.807V88.1555H214.588V81.3751Z" fill="#E19A81"/>
<path d="M221.368 81.3751H214.588V88.1555H221.368V81.3751Z" fill="#E19A81"/>
<path d="M228.154 81.3751H221.374V88.1555H228.154V81.3751Z" fill="#E19A81"/>
<path d="M167.12 74.5948H160.34V81.3751H167.12V74.5948Z" fill="black"/>
<path d="M160.34 74.5948H153.559V81.3751H160.34V74.5948Z" fill="black"/>
<path d="M153.559 74.5948H146.779V81.3751H153.559V74.5948Z" fill="black"/>
<path d="M153.559 94.9358H146.779V101.716H153.559V94.9358Z" fill="black"/>
<path d="M153.559 101.716H146.779V108.496H153.559V101.716Z" fill="black"/>
<path d="M146.773 94.9358H139.993V101.716H146.773V94.9358Z" fill="black"/>
<path d="M139.993 94.9358H133.213V101.716H139.993V94.9358Z" fill="white"/>
<path d="M146.773 101.716H139.993V108.496H146.773V101.716Z" fill="black"/>
<path d="M160.34 94.9358H153.559V101.716H160.34V94.9358Z" fill="white"/>
<path d="M160.34 101.716H153.559V108.496H160.34V101.716Z" fill="white"/>
<path d="M167.12 94.9358H160.34V101.716H167.12V94.9358Z" fill="white"/>
<path d="M167.12 101.716H160.34V108.496H167.12V101.716Z" fill="white"/>
<path d="M180.681 115.282H173.9V122.063H180.681V115.282Z" fill="black"/>
<path d="M187.466 115.282H180.686V122.063H187.466V115.282Z" fill="black"/>
<path d="M194.247 115.282H187.466V122.063H194.247V115.282Z" fill="#E19A81"/>
<path d="M146.773 74.5948H139.993V81.3751H146.773V74.5948Z" fill="black"/>
<path d="M139.993 74.5948H133.213V81.3751H139.993V74.5948Z" fill="black"/>
<path d="M180.681 54.2482H173.9V61.0286H180.681V54.2482Z" fill="black"/>
<path d="M187.466 54.2482H180.686V61.0286H187.466V54.2482Z" fill="black"/>
<path d="M194.247 54.2482H187.466V61.0286H194.247V54.2482Z" fill="black"/>
<path d="M201.027 54.2482H194.247V61.0286H201.027V54.2482Z" fill="black"/>
<path d="M207.807 54.2482H201.027V61.0286H207.807V54.2482Z" fill="black"/>
<path d="M214.588 54.2482H207.807V61.0286H214.588V54.2482Z" fill="black"/>
<path d="M221.368 54.2482H214.588V61.0286H221.368V54.2482Z" fill="black"/>
<path d="M133.213 67.8089H126.432V74.5893H133.213V67.8089Z" fill="black"/>
<path d="M139.993 67.8089H133.213V74.5893H139.993V67.8089Z" fill="black"/>
<path d="M146.773 67.8089H139.993V74.5893H146.773V67.8089Z" fill="black"/>
<path d="M153.559 67.8089H146.779V74.5893H153.559V67.8089Z" fill="black"/>
<path d="M160.34 67.8089H153.559V74.5893H160.34V67.8089Z" fill="black"/>
<path d="M167.12 67.8089H160.34V74.5893H167.12V67.8089Z" fill="black"/>
<path d="M173.9 67.8089H167.12V74.5893H173.9V67.8089Z" fill="black"/>
<path d="M180.681 67.8089H173.9V74.5893H180.681V67.8089Z" fill="black"/>
<path d="M187.466 67.8089H180.686V74.5893H187.466V67.8089Z" fill="black"/>
<path d="M194.247 67.8089H187.466V74.5893H194.247V67.8089Z" fill="black"/>
<path d="M201.027 67.8089H194.247V74.5893H201.027V67.8089Z" fill="black"/>
<path d="M207.807 67.8089H201.027V74.5893H207.807V67.8089Z" fill="black"/>
<path d="M214.588 67.8089H207.807V74.5893H214.588V67.8089Z" fill="black"/>
<path d="M221.368 67.8089H214.588V74.5893H221.368V67.8089Z" fill="black"/>
<path d="M133.213 61.0286H126.432V67.8089H133.213V61.0286Z" fill="white"/>
<path d="M126.432 61.0286H119.652V67.8089H126.432V61.0286Z" fill="white"/>
<path d="M139.993 61.0286H133.213V67.8089H139.993V61.0286Z" fill="white"/>
<path d="M146.773 61.0286H139.993V67.8089H146.773V61.0286Z" fill="white"/>
<path d="M153.559 61.0286H146.779V67.8089H153.559V61.0286Z" fill="white"/>
<path d="M160.34 61.0286H153.559V67.8089H160.34V61.0286Z" fill="white"/>
<path d="M167.12 61.0286H160.34V67.8089H167.12V61.0286Z" fill="white"/>
<path d="M173.9 61.0286H167.12V67.8089H173.9V61.0286Z" fill="white"/>
<path d="M180.681 61.0286H173.9V67.8089H180.681V61.0286Z" fill="white"/>
<path d="M187.466 61.0286H180.686V67.8089H187.466V61.0286Z" fill="white"/>
<path d="M194.247 61.0286H187.466V67.8089H194.247V61.0286Z" fill="white"/>
<path d="M201.027 61.0286H194.247V67.8089H201.027V61.0286Z" fill="white"/>
<path d="M207.807 61.0286H201.027V67.8089H207.807V61.0286Z" fill="white"/>
<path d="M214.588 61.0286H207.807V67.8089H214.588V61.0286Z" fill="white"/>
<path d="M221.368 61.0286H214.588V67.8089H221.368V61.0286Z" fill="white"/>
<path d="M228.154 61.0286H221.374V67.8089H228.154V61.0286Z" fill="black"/>
<path d="M234.934 61.0286H228.154V67.8089H234.934V61.0286Z" fill="black"/>
<path d="M241.715 67.8089H234.934V74.5893H241.715V67.8089Z" fill="black"/>
<path d="M248.495 74.5948H241.715V81.3751H248.495V74.5948Z" fill="black"/>
<path d="M255.275 81.3751H248.495V88.1555H255.275V81.3751Z" fill="black"/>
<path d="M126.432 54.2482H119.652V61.0286H126.432V54.2482Z" fill="#C6CACD"/>
<path d="M133.213 47.4679H126.432V54.2483H133.213V47.4679Z" fill="#C6CACD"/>
<path d="M139.993 47.4679H133.213V54.2483H139.993V47.4679Z" fill="#C6CACD"/>
<path d="M153.559 47.4679H146.779V54.2483H153.559V47.4679Z" fill="#230F7A"/>
<path d="M160.34 47.4679H153.559V54.2483H160.34V47.4679Z" fill="#230F7A"/>
<path d="M167.12 47.4679H160.34V54.2483H167.12V47.4679Z" fill="#230F7A"/>
<path d="M173.9 47.4679H167.12V54.2483H173.9V47.4679Z" fill="#230F7A"/>
<path d="M180.681 47.4679H173.9V54.2483H180.681V47.4679Z" fill="#230F7A"/>
<path d="M187.466 47.4679H180.686V54.2483H187.466V47.4679Z" fill="#230F7A"/>
<path d="M194.247 47.4679H187.466V54.2483H194.247V47.4679Z" fill="#230F7A"/>
<path d="M207.807 47.4679H201.027V54.2483H207.807V47.4679Z" fill="#C6CACD"/>
<path d="M214.588 47.4679H207.807V54.2483H214.588V47.4679Z" fill="#C6CACD"/>
<path d="M221.368 47.4679H214.588V54.2483H221.368V47.4679Z" fill="#C6CACD"/>
<path d="M228.154 54.2482H221.374V61.0286H228.154V54.2482Z" fill="#C6CACD"/>
<path d="M234.934 54.2482H228.154V61.0286H234.934V54.2482Z" fill="#C6CACD"/>
<path d="M241.715 61.0286H234.934V67.8089H241.715V61.0286Z" fill="#C6CACD"/>
<path d="M248.495 67.8089H241.715V74.5893H248.495V67.8089Z" fill="#C6CACD"/>
<path d="M255.275 74.5948H248.495V81.3751H255.275V74.5948Z" fill="#C6CACD"/>
<path d="M262.061 81.3751H255.281V88.1555H262.061V81.3751Z" fill="#C6CACD"/>
<path d="M268.842 88.1555H262.061V94.9358H268.842V88.1555Z" fill="#C6CACD"/>
<path d="M268.842 94.9358H262.061V101.716H268.842V94.9358Z" fill="#C6CACD"/>
<path d="M268.842 101.716H262.061V108.496H268.842V101.716Z" fill="#C6CACD"/>
<path d="M268.842 108.496H262.061V115.277H268.842V108.496Z" fill="#C6CACD"/>
<path d="M268.842 115.282H262.061V122.063H268.842V115.282Z" fill="#C6CACD"/>
<path d="M268.842 122.063H262.061V128.843H268.842V122.063Z" fill="#C6CACD"/>
<path d="M275.517 94.9358H268.737V101.716H275.517V94.9358Z" fill="#C6CACD"/>
<path d="M275.517 101.716H268.737V108.496H275.517V101.716Z" fill="#C6CACD"/>
<path d="M275.517 108.496H268.737V115.277H275.517V108.496Z" fill="#C6CACD"/>
<path d="M275.517 115.282H268.737V122.063H275.517V115.282Z" fill="#C6CACD"/>
<path d="M275.517 122.063H268.737V128.843H275.517V122.063Z" fill="#C6CACD"/>
<path d="M268.842 128.843H262.061V135.623H268.842V128.843Z" fill="#C6CACD"/>
<path d="M262.061 88.1555H255.281V94.9358H262.061V88.1555Z" fill="black"/>
<path d="M126.432 101.716H119.652V108.496H126.432V101.716Z" fill="black"/>
<path d="M126.432 108.496H119.652V115.277H126.432V108.496Z" fill="black"/>
<path d="M126.432 115.282H119.652V122.063H126.432V115.282Z" fill="black"/>
<path d="M133.213 115.282H126.432V122.063H133.213V115.282Z" fill="white"/>
<path d="M139.993 122.063H133.213V128.843H139.993V122.063Z" fill="white"/>
<path d="M146.773 122.063H139.993V128.843H146.773V122.063Z" fill="white"/>
<path d="M153.559 122.063H146.779V128.843H153.559V122.063Z" fill="white"/>
<path d="M160.34 122.063H153.559V128.843H160.34V122.063Z" fill="white"/>
<path d="M167.12 122.063H160.34V128.843H167.12V122.063Z" fill="white"/>
<path d="M173.9 122.063H167.12V128.843H173.9V122.063Z" fill="white"/>
<path d="M180.681 122.063H173.9V128.843H180.681V122.063Z" fill="white"/>
<path d="M187.466 122.063H180.686V128.843H187.466V122.063Z" fill="white"/>
<path d="M194.247 122.063H187.466V128.843H194.247V122.063Z" fill="white"/>
<path d="M201.027 122.063H194.247V128.843H201.027V122.063Z" fill="white"/>
<path d="M207.807 122.063H201.027V128.843H207.807V122.063Z" fill="white"/>
<path d="M214.588 122.063H207.807V128.843H214.588V122.063Z" fill="white"/>
<path d="M221.368 122.063H214.588V128.843H221.368V122.063Z" fill="white"/>
<path d="M228.154 122.063H221.374V128.843H228.154V122.063Z" fill="white"/>
<path d="M228.154 128.843H221.374V135.623H228.154V128.843Z" fill="white"/>
<path d="M228.154 135.623H221.374V142.404H228.154V135.623Z" fill="white"/>
<path d="M228.154 142.404H221.374V149.184H228.154V142.404Z" fill="white"/>
<path d="M234.934 142.404H228.154V149.184H234.934V142.404Z" fill="white"/>
<path d="M241.715 142.404H234.934V149.184H241.715V142.404Z" fill="white"/>
<path d="M228.154 149.19H221.374V155.97H228.154V149.19Z" fill="white"/>
<path d="M221.368 149.19H214.588V155.97H221.368V149.19Z" fill="white"/>
<path d="M214.588 149.19H207.807V155.97H214.588V149.19Z" fill="white"/>
<path d="M207.807 149.19H201.027V155.97H207.807V149.19Z" fill="white"/>
<path d="M201.027 149.19H194.247V155.97H201.027V149.19Z" fill="white"/>
<path d="M194.247 149.19H187.466V155.97H194.247V149.19Z" fill="white"/>
<path d="M187.466 149.19H180.686V155.97H187.466V149.19Z" fill="white"/>
<path d="M180.681 149.19H173.9V155.97H180.681V149.19Z" fill="white"/>
<path d="M173.9 149.19H167.12V155.97H173.9V149.19Z" fill="white"/>
<path d="M167.12 149.19H160.34V155.97H167.12V149.19Z" fill="white"/>
<path d="M160.34 149.19H153.559V155.97H160.34V149.19Z" fill="white"/>
<path d="M153.559 149.19H146.779V155.97H153.559V149.19Z" fill="white"/>
<path d="M153.559 142.404H146.779V149.184H153.559V142.404Z" fill="white"/>
<path d="M146.773 142.404H139.993V149.184H146.773V142.404Z" fill="white"/>
<path d="M139.993 142.404H133.213V149.184H139.993V142.404Z" fill="white"/>
<path d="M139.993 135.623H133.213V142.404H139.993V135.623Z" fill="white"/>
<path d="M133.213 135.623H126.432V142.404H133.213V135.623Z" fill="white"/>
<path d="M139.993 128.843H133.213V135.623H139.993V128.843Z" fill="white"/>
<path d="M153.559 135.623H146.779V142.404H153.559V135.623Z" fill="white"/>
<path d="M153.559 128.843H146.779V135.623H153.559V128.843Z" fill="white"/>
<path d="M234.934 122.063H228.154V128.843H234.934V122.063Z" fill="white"/>
<path d="M241.715 122.063H234.934V128.843H241.715V122.063Z" fill="white"/>
<path d="M248.495 122.063H241.715V128.843H248.495V122.063Z" fill="white"/>
<path d="M255.275 115.282H248.495V122.063H255.275V115.282Z" fill="white"/>
<path d="M248.495 128.843H241.715V135.623H248.495V128.843Z" fill="white"/>
<path d="M126.432 122.063H119.652V128.843H126.432V122.063Z" fill="black"/>
<path d="M119.652 94.9358H112.872V101.716H119.652V94.9358Z" fill="#C6CACD"/>
<path d="M119.652 88.1555H112.872V94.9358H119.652V88.1555Z" fill="#C6CACD"/>
<path d="M119.652 81.3751H112.872V88.1555H119.652V81.3751Z" fill="#C6CACD"/>
<path d="M119.652 74.5948H112.872V81.3751H119.652V74.5948Z" fill="#C6CACD"/>
<path d="M119.652 67.8089H112.872V74.5893H119.652V67.8089Z" fill="#C6CACD"/>
<path d="M119.652 61.0286H112.872V67.8089H119.652V61.0286Z" fill="#C6CACD"/>
<path d="M119.652 101.716H112.872V108.496H119.652V101.716Z" fill="#C6CACD"/>
<path d="M119.652 108.496H112.872V115.277H119.652V108.496Z" fill="#C6CACD"/>
<path d="M119.652 115.282H112.872V122.063H119.652V115.282Z" fill="#C6CACD"/>
<path d="M119.652 122.063H112.872V128.843H119.652V122.063Z" fill="#C6CACD"/>
<path d="M126.432 128.843H119.652V135.623H126.432V128.843Z" fill="black"/>
<path d="M126.432 135.623H119.652V142.404H126.432V135.623Z" fill="black"/>
<path d="M139.993 149.19H133.213V155.97H139.993V149.19Z" fill="black"/>
<path d="M133.213 142.404H126.432V149.184H133.213V142.404Z" fill="black"/>
<path d="M146.773 149.19H139.993V155.97H146.773V149.19Z" fill="black"/>
<path d="M153.559 155.97H146.779V162.75H153.559V155.97Z" fill="black"/>
<path d="M160.34 155.97H153.559V162.75H160.34V155.97Z" fill="black"/>
<path d="M167.12 155.97H160.34V162.75H167.12V155.97Z" fill="black"/>
<path d="M173.9 155.97H167.12V162.75H173.9V155.97Z" fill="black"/>
<path d="M180.681 155.97H173.9V162.75H180.681V155.97Z" fill="black"/>
<path d="M187.466 155.97H180.686V162.75H187.466V155.97Z" fill="black"/>
<path d="M194.247 155.97H187.466V162.75H194.247V155.97Z" fill="black"/>
<path d="M201.027 155.97H194.247V162.75H201.027V155.97Z" fill="black"/>
<path d="M180.681 135.623H173.9V142.404H180.681V135.623Z" fill="black"/>
<path d="M187.466 135.623H180.686V142.404H187.466V135.623Z" fill="black"/>
<path d="M194.247 135.623H187.466V142.404H194.247V135.623Z" fill="black"/>
<path d="M201.027 135.623H194.247V142.404H201.027V135.623Z" fill="black"/>
<path d="M207.807 135.623H201.027V142.404H207.807V135.623Z" fill="black"/>
<path d="M207.807 155.97H201.027V162.75H207.807V155.97Z" fill="black"/>
<path d="M214.588 155.97H207.807V162.75H214.588V155.97Z" fill="black"/>
<path d="M221.368 155.97H214.588V162.75H221.368V155.97Z" fill="black"/>
<path d="M228.154 155.97H221.374V162.75H228.154V155.97Z" fill="black"/>
<path d="M234.934 149.19H228.154V155.97H234.934V149.19Z" fill="black"/>
<path d="M241.715 149.19H234.934V155.97H241.715V149.19Z" fill="black"/>
<path d="M248.495 142.404H241.715V149.184H248.495V142.404Z" fill="black"/>
<path d="M248.495 135.623H241.715V142.404H248.495V135.623Z" fill="white"/>
<path d="M255.275 135.623H248.495V142.404H255.275V135.623Z" fill="white"/>
<path d="M255.275 128.843H248.495V135.623H255.275V128.843Z" fill="white"/>
<path d="M262.061 128.843H255.281V135.623H262.061V128.843Z" fill="black"/>
<path d="M119.652 61.0286H112.872V67.8089H119.652V61.0286Z" fill="black"/>
<path d="M126.432 54.2482H119.652V61.0286H126.432V54.2482Z" fill="black"/>
<path d="M112.976 176.311H119.756V169.531H112.976V176.311Z" fill="#230F7A"/>
<path d="M106.19 183.097H112.971V176.316H106.19V183.097Z" fill="#230F7A"/>
<path d="M106.19 189.877H112.971V183.097H106.19V189.877Z" fill="#230F7A"/>
<path d="M99.4155 196.652H106.196V189.872H99.4155V196.652Z" fill="#230F7A"/>
<path d="M99.4155 203.438H106.196V196.657H99.4155V203.438Z" fill="#230F7A"/>
<path d="M92.6351 210.218H99.4155V203.438H92.6351V210.218Z" fill="#230F7A"/>
<path d="M85.8493 311.94H92.6297V305.159H85.8493V311.94Z" fill="#230F7A"/>
<path d="M92.6351 305.154H99.4155V298.374H92.6351V305.154Z" fill="#230F7A"/>
<path d="M72.2886 318.72H79.0689V311.94H72.2886V318.72Z" fill="#230F7A"/>
<path d="M65.5083 318.72H72.2887V311.94H65.5083V318.72Z" fill="#230F7A"/>
<path d="M58.728 318.72H65.5083V311.94H58.728V318.72Z" fill="#230F7A"/>
<path d="M51.9421 318.72H58.7224V311.94H51.9421V318.72Z" fill="#230F7A"/>
<path d="M51.9421 311.94H58.7224V305.159H51.9421V311.94Z" fill="#230F7A"/>
<path d="M79.069 318.72H85.8493V311.94H79.069V318.72Z" fill="#230F7A"/>
<path d="M248.501 155.964H255.281V149.184H248.501V155.964Z" fill="#230F7A"/>
<path d="M241.72 155.964H248.5V149.184H241.72V155.964Z" fill="#230F7A"/>
<path d="M234.934 162.75H241.715V155.97H234.934V162.75Z" fill="#230F7A"/>
<path d="M228.154 162.75H234.934V155.97H228.154V162.75Z" fill="#230F7A"/>
<path d="M221.368 169.531H228.149V162.75H221.368V169.531Z" fill="#230F7A"/>
<path d="M214.593 169.531H221.374V162.75H214.593V169.531Z" fill="#230F7A"/>
<path d="M234.934 189.877H241.715V183.097H234.934V189.877Z" fill="#230F7A"/>
<path d="M228.154 189.877H234.934V183.097H228.154V189.877Z" fill="#230F7A"/>
<path d="M221.368 189.877H228.149V183.097H221.368V189.877Z" fill="#230F7A"/>
<path d="M214.593 189.877H221.374V183.097H214.593V189.877Z" fill="#230F7A"/>
<path d="M207.813 169.531H214.593V162.75H207.813V169.531Z" fill="#230F7A"/>
<path d="M92.6351 162.75H99.4155V155.97H92.6351V162.75Z" fill="#230F7A"/>
<path d="M99.4155 162.75H106.196V155.97H99.4155V162.75Z" fill="#230F7A"/>
<path d="M106.19 155.964H112.971V149.184H106.19V155.964Z" fill="#230F7A"/>
<path d="M99.311 108.524H106.091V101.744H99.311V108.524Z" fill="#C9DAF8"/>
<path d="M92.6296 108.524H99.4099V101.744H92.6296V108.524Z" fill="#C9DAF8"/>
<path d="M167.12 169.531H194.247V162.75H167.12V169.531Z" fill="#E19A81"/>
<path d="M45.1617 291.593H38.3813V325.5H45.1617V332.281H79.0689V325.5H51.942V318.72H45.1617V291.593Z" fill="#333333"/>
<path d="M58.7225 284.813H51.9421V291.593H58.7225V284.813Z" fill="white"/>
<path d="M92.6297 305.159H85.8493V311.94H92.6297V305.159Z" fill="white"/>
<path d="M18.7553 128.849H59.1789L59.2064 155.959H65.9647V176.3H59.1789L59.2064 183.086H32.173L25.4367 183.097L18.6563 176.3L18.7553 128.849Z" fill="#8F95B8"/>
<path d="M72.712 155.959H65.9317V162.739H72.712V155.959Z" fill="black"/>
<path d="M72.712 162.739H65.9317V169.52H72.712V162.739Z" fill="black"/>
<path d="M72.712 169.52H65.9317V176.3H72.712V169.52Z" fill="black"/>
<path d="M65.9592 176.3H59.1788V183.08H65.9592V176.3Z" fill="black"/>
<path d="M59.2064 183.086H52.426V189.866H59.2064V183.086Z" fill="black"/>
<path d="M52.4865 183.086H45.7062V189.866H52.4865V183.086Z" fill="black"/>
<path d="M45.9371 183.086H38.6179V189.866H45.9371V183.086Z" fill="black"/>
<path d="M65.9592 142.398H59.1788V149.179H65.9592V142.398Z" fill="black"/>
<path d="M65.9592 149.179H59.1788V155.959H65.9592V149.179Z" fill="black"/>
<path d="M59.2064 149.179H52.426V155.959H59.2064V149.179Z" fill="black"/>
<path d="M52.4865 155.959H45.7062V162.739H52.4865V155.959Z" fill="black"/>
<path d="M59.2064 162.739H52.426V169.52H59.2064V162.739Z" fill="black"/>
<path d="M65.9592 135.612H59.1788V142.393H65.9592V135.612Z" fill="black"/>
<path d="M65.9592 128.849H59.1788V135.629H65.9592V128.849Z" fill="black"/>
<path d="M52.4865 142.398H45.7062V149.179H52.4865V142.398Z" fill="black"/>
<path d="M59.2064 135.629H52.426V142.409H59.2064V135.629Z" fill="black"/>
<path d="M32.217 183.097H25.4366V189.877H32.217V183.097Z" fill="black"/>
<path d="M25.4367 176.3H18.6563V183.08H25.4367V176.3Z" fill="black"/>
<path d="M25.3926 183.086H32.173V176.305H25.3926V183.086Z" fill="#5C628E"/>
<path d="M32.1675 183.086H38.9478V176.305H32.1675V183.086Z" fill="#5C628E"/>
<path d="M52.426 183.086H59.2064V176.305H52.426V183.086Z" fill="#5C628E"/>
<path d="M52.426 176.305H59.2064V169.525H52.426V176.305Z" fill="#5C628E"/>
<path d="M45.7062 155.959H52.4865V149.179H45.7062V155.959Z" fill="#5C628E"/>
<path d="M52.426 149.173H59.2064V142.393H52.426V149.173Z" fill="#5C628E"/>
<path d="M38.8928 162.756H45.6732V155.975H38.8928V162.756Z" fill="#5C628E"/>
<path d="M45.7062 169.52H52.4865V162.739H45.7062V169.52Z" fill="#5C628E"/>
<path d="M59.1844 176.305H65.9648V169.525H59.1844V176.305Z" fill="#5C628E"/>
<path d="M18.6563 176.305H25.4366V169.525H18.6563V176.305Z" fill="#5C628E"/>
<path d="M18.6563 169.52H25.4366V162.739H18.6563V169.52Z" fill="#5C628E"/>
<path d="M38.9533 183.086H32.173V189.866H38.9533V183.086Z" fill="black"/>
<path d="M18.7553 142.398H11.975V149.179H18.7553V142.398Z" fill="black"/>
<path d="M18.7553 149.179H11.975V155.959H18.7553V149.179Z" fill="black"/>
<path d="M18.7553 155.959H11.975V162.739H18.7553V155.959Z" fill="black"/>
<path d="M18.7553 162.739H11.975V169.52H18.7553V162.739Z" fill="black"/>
<path d="M18.7553 169.52H11.975V176.3H18.7553V169.52Z" fill="black"/>
<path d="M18.7553 135.612H11.975V142.393H18.7553V135.612Z" fill="black"/>
<path d="M18.7553 128.849H11.975V135.629H18.7553V128.849Z" fill="black"/>
<path d="M59.2064 122.09H52.426V128.87H59.2064V122.09Z" fill="black"/>
<path d="M52.4865 122.09H45.7062V128.87H52.4865V122.09Z" fill="black"/>
<path d="M45.7337 128.849H38.9533V135.629H45.7337V128.849Z" fill="black"/>
<path d="M45.7337 135.629H38.9533V142.409H45.7337V135.629Z" fill="black"/>
<path d="M38.9533 142.409H32.173V149.19H38.9533V142.409Z" fill="black"/>
<path d="M45.7337 122.09H38.9533V128.87H45.7337V122.09Z" fill="black"/>
<path d="M38.9533 122.09H32.173V128.87H38.9533V122.09Z" fill="black"/>
<path d="M32.217 128.849H25.4366V135.629H32.217V128.849Z" fill="black"/>
<path d="M32.217 135.629H25.4366V142.409H32.217V135.629Z" fill="black"/>
<path d="M25.4367 142.409H18.6563V149.19H25.4367V142.409Z" fill="black"/>
<path d="M32.217 122.09H25.4366V128.87H32.217V122.09Z" fill="black"/>
<path d="M25.4367 122.09H18.6563V128.87H25.4367V122.09Z" fill="black"/>
<path d="M72.7451 176.3H65.9648V183.08H72.7451V176.3Z" fill="black"/>
<path d="M1145.38 136.76V129.144V129.072H869.496H856.1H848.567H841.027H839.268H825.877H818.338H810.727H803.188H795.649H782.253H727.818H714.428H706.889H699.272H691.739H684.123H676.583H669.05H661.433H653.894H649.33H640.504H635.94H628.401H620.861H613.251H605.711H598.095H590.562H578.453H577.166H565.062H557.523H549.984H542.373H534.834H527.223H519.684H506.294H444.314H430.924H423.385H415.774H408.235H400.696H387.305V142.462V150.073V163.469H400.696H402.378V165.228V172.768V180.301V182.061H398.936H385.546H378.006H370.396H357V195.457V202.99V210.607V223.997H364.616V231.536V231.608H435.417H448.807H456.346H463.957H471.496H479.035H486.646H494.185H507.581H711.381H724.772H732.311H739.922H753.317H756.76H770.15H777.761H785.3H798.696H853.059H866.449H874.06H881.599H894.995H898.509H911.905H919.438H926.978H931.47H940.373H944.866H952.4H960.016H967.555H975.089H982.705H990.244H1003.63H1017.5H1030.89H1038.43H1046.04H1059.43H1073.22H1086.62H1094.23H1101.77H1109.3H1116.92H1124.45H1131.99H1145.38V223.997H1153V210.607V203.067V195.528V187.917V180.378V178.619V165.228V157.689V150.15V136.76H1145.38Z" fill="black"/>
<path d="M423.407 142.462H430.946V210.607H423.407V218.146H378.006V210.607H370.396V195.457H385.546V202.99H415.79V150.078H400.696V142.462H423.407Z" fill="white"/>
<path d="M494.185 142.539H501.796V210.678H494.185V218.217H448.807V210.678H441.268V142.539H456.346V203.067H486.646V142.539H494.185Z" fill="white"/>
<path d="M565.062 150.078H572.673V165.228H557.523V157.629H527.223V203.007H557.523V187.934H534.834V172.784H565.079V180.318H572.69V210.623H565.062V218.162H519.684V210.623H512.145V150.078H519.684V142.462H565.062V150.078Z" fill="white"/>
<path d="M635.94 150.078H643.551V165.228H628.401V157.629H598.095V203.007H628.401V187.934H605.712V172.784H635.956V180.318H643.567V210.623H635.94V218.162H590.578V210.623H583.022V150.078H590.578V142.462H635.956L635.94 150.078Z" fill="white"/>
<path d="M706.889 142.462H714.428V157.629H669.05V172.784H706.889V180.318H699.273V187.934H669.028V203.007H714.406V218.162H653.894V142.462H706.889Z" fill="white"/>
<path d="M777.761 150.15H785.3V180.395H777.761V187.934H770.15V195.545H777.761V203.084H785.3V218.234H770.15V210.623H762.611V203.084H755V195.545H739.922V218.234H724.755V142.539H777.744L777.761 150.15ZM762.611 180.395H770.15V157.706H739.905V180.395H762.594H762.611Z" fill="white"/>
<path d="M848.567 142.462H856.1V218.146H825.855V210.607H818.338V150.078H810.722V218.146H795.649V142.462H825.894V150.078H833.428V210.607H841.044V142.462H848.567Z" fill="white"/>
<path d="M919.422 157.689H926.961V218.217H911.883V195.528H881.583V218.217H866.449V157.689H874.06V150.15H881.599V142.539H911.899V150.15H919.422V157.689ZM911.96 172.768V165.228H904.349V157.629H889.21V165.245H881.676V180.318H911.976L911.96 172.768Z" fill="white"/>
<path d="M990.244 142.539H997.855V210.678H990.244V218.217H944.866V210.678H937.327V142.539H952.416V203.067H982.722V142.539H990.244Z" fill="white"/>
<path d="M1061.12 142.539H1068.73V165.228H1061.12V157.689H1046.04V218.217H1030.89V157.689H1015.74V165.228H1008.2V142.539H1061.12Z" fill="white"/>
<path d="M1131.99 150.15H1139.6V165.228H1124.45V157.689H1094.21V172.839H1131.98V180.378H1139.59V210.623H1131.98V218.234H1086.59V210.623H1079.05V195.545H1094.2V203.084H1124.45V187.934H1094.2V180.395H1086.59V172.856H1079.05V150.15H1086.59V142.539H1131.97L1131.99 150.15Z" fill="white"/>
</svg>
