<svg width="1158" height="393" viewBox="0 0 1158 393" fill="none" xmlns="http://www.w3.org/2000/svg">
<g clip-path="url(#clip0_22_969)">
<path d="M305.987 178.851V171.717H298.847V164.576H284.571V78.9563H277.453V71.8155H270.313V57.5398H263.172V50.4049H256.037V43.2641H248.902V36.1292H227.485V29.0058H134.725V36.1292H120.449V43.2641H113.315V50.4049H106.174V64.6806H99.0504V128.901H84.8846V136.059H77.7439V143.194H70.6089V150.329H63.4682V157.47H56.3332V164.593H49.7075V157.47H7.03081V164.593H0V214.526H7.03081V221.661H14.1542L14.1716 221.679V228.802H49.7075V222.055H56.8135V221.679H63.4682V214.544L63.4855 214.526H81.3432H84.8846H92.0196V228.802H84.8846V243.078H77.7439V257.353H70.6089V285.887H77.7439V293.028H70.6089V300.163H63.4682V307.304H49.2098V314.439H42.0691V321.58H34.9341V328.715H27.7934V335.838H20.6584V371.524H27.7934V378.665H34.9341V385.8H70.6089V378.665H77.7439V364.389H84.8846V357.254H92.0196V350.114H106.295V342.973H113.43V335.838H117.186H120.554H141.97V385.788H149.105V392.923H206.196V385.788H213.331V371.513H206.196V307.287H199.056V300.163H191.921V292.907H198.951V285.887H203.384H206.196H270.313V278.753H277.453V271.629H284.571V264.488H291.712V257.353H298.847V235.943H305.987V228.802H313.122V178.851H305.987Z" fill="black"/>
<path d="M89.8438 257.348H154.07V264.483H168.34V271.623H175.475V278.758H182.61V285.893H132.659V293.028H125.524V300.163L118.389 300.157V307.292H111.254V300.157L104.114 300.163V293.028L96.9787 293.022V285.887L89.8438 285.893V257.348Z" fill="white"/>
<path d="M182.5 271.623H211.045V285.778H203.91V292.912H196.775V285.778L189.641 285.893V278.758H182.61L182.5 271.623Z" fill="white"/>
<path d="M96.9788 293.028H89.8439V300.163L82.7089 300.157V307.292L75.574 307.304V314.439H82.7089V321.574H89.8439V328.709H96.9788V335.844H104.114V342.985H111.145L118.39 342.973L125.524 335.838V328.709H132.659V321.568L118.28 314.439L111.255 314.433V307.292L104.114 307.263V300.128L96.9788 300.163V293.028Z" fill="#F8C5AF"/>
<path d="M132.659 293.028H182.61V285.893L189.745 285.888V293.022H196.886V300.157H204.02V307.292H211.155V328.703H146.929V321.574L132.659 321.568V314.433H118.389V307.292L125.524 307.304V300.163H132.659V293.028Z" fill="#F8C5AF"/>
<path d="M189.635 285.893H182.5V293.028H189.635V285.893Z" fill="black"/>
<path d="M189.635 278.758H182.5V285.893H189.635V278.758Z" fill="black"/>
<path d="M182.61 271.623H175.475V278.758H182.61V271.623Z" fill="black"/>
<path d="M196.88 285.888H189.641V293.022H196.88V285.888Z" fill="black"/>
<path d="M125.524 300.163H118.389V307.298H125.524V300.163Z" fill="black"/>
<path d="M132.659 293.028H125.524V300.163H132.659V293.028Z" fill="black"/>
<path d="M139.794 285.893H132.659V293.028H139.794V285.893Z" fill="black"/>
<path d="M146.929 285.893H139.794V293.028H146.929V285.893Z" fill="black"/>
<path d="M154.064 285.893H146.929V293.028H154.064V285.893Z" fill="black"/>
<path d="M161.205 285.893H154.07V293.028H161.205V285.893Z" fill="black"/>
<path d="M168.34 285.893H161.205V293.028H168.34V285.893Z" fill="black"/>
<path d="M175.475 285.893H168.34V293.028H175.475V285.893Z" fill="black"/>
<path d="M182.61 285.893H175.475V293.028H182.61V285.893Z" fill="black"/>
<path d="M204.015 293.022H196.88V300.157H204.015V293.022Z" fill="black"/>
<path d="M218.29 307.292H211.156V314.427H218.29V307.292Z" fill="black"/>
<path d="M218.29 321.568H211.156V328.703H218.29V321.568Z" fill="black"/>
<path d="M218.29 314.433H211.156V321.568H218.29V314.433Z" fill="black"/>
<path d="M218.29 328.703H211.156V335.838H218.29V328.703Z" fill="black"/>
<path d="M218.29 335.838H211.156V342.973H218.29V335.838Z" fill="black"/>
<path d="M218.29 342.973H211.156V350.108H218.29V342.973Z" fill="black"/>
<path d="M218.29 350.108H211.156V357.243H218.29V350.108Z" fill="black"/>
<path d="M218.29 357.249H211.156V364.384H218.29V357.249Z" fill="black"/>
<path d="M211.155 328.703H204.021V335.838H211.155V328.703Z" fill="black"/>
<path d="M204.02 328.703H196.885V335.838H204.02V328.703Z" fill="black"/>
<path d="M196.885 328.703H189.75V335.838H196.885V328.703Z" fill="black"/>
<path d="M189.745 328.709H182.61V335.844H189.745V328.709Z" fill="black"/>
<path d="M182.61 328.703H175.475V335.838H182.61V328.703Z" fill="black"/>
<path d="M175.475 328.703H168.34V335.838H175.475V328.703Z" fill="black"/>
<path d="M168.34 328.709H161.205V335.844H168.34V328.709Z" fill="black"/>
<path d="M161.205 335.838H154.07V342.973H161.205V335.838Z" fill="black"/>
<path d="M161.205 328.709H154.07V335.844H161.205V328.709Z" fill="black"/>
<path d="M146.929 321.574H139.794V328.709H146.929V321.574Z" fill="black"/>
<path d="M154.064 328.703H146.929V335.838H154.064V328.703Z" fill="black"/>
<path d="M139.794 321.568H132.659V328.703H139.794V321.568Z" fill="black"/>
<path d="M132.659 314.433H125.524V321.568H132.659V314.433Z" fill="black"/>
<path d="M125.524 314.433H118.389V321.568H125.524V314.433Z" fill="black"/>
<path d="M118.389 307.292H111.254V314.427H118.389V307.292Z" fill="black"/>
<path d="M111.248 300.157H104.114V307.292H111.248V300.157Z" fill="black"/>
<path d="M104.114 293.022H96.9788V300.157H104.114V293.022Z" fill="black"/>
<path d="M96.9787 285.888H89.8438V293.022H96.9787V285.888Z" fill="black"/>
<path d="M161.205 342.973H154.07V350.108H161.205V342.973Z" fill="black"/>
<path d="M161.205 350.108H154.07V357.243H161.205V350.108Z" fill="black"/>
<path d="M161.205 357.249H154.07V364.384H161.205V357.249Z" fill="black"/>
<path d="M161.205 364.384H154.07V371.519H161.205V364.384Z" fill="black"/>
<path d="M168.34 364.384H161.205V371.519H168.34V364.384Z" fill="black"/>
<path d="M175.475 364.384H168.34V371.519H175.475V364.384Z" fill="black"/>
<path d="M182.61 364.384H175.475V371.519H182.61V364.384Z" fill="black"/>
<path d="M189.745 364.384H182.61V371.519H189.745V364.384Z" fill="black"/>
<path d="M196.885 364.384H189.75V371.519H196.885V364.384Z" fill="black"/>
<path d="M204.02 364.384H196.885V371.519H204.02V364.384Z" fill="black"/>
<path d="M211.155 364.384H204.021V371.519H211.155V364.384Z" fill="black"/>
<path d="M218.29 364.384H211.156V371.519H218.29V364.384Z" fill="black"/>
<path d="M161.205 378.665H168.34V371.53H161.205V378.665Z" fill="#333333"/>
<path d="M168.34 378.665H175.475V371.53H168.34V378.665Z" fill="#333333"/>
<path d="M175.481 378.665H182.615V371.53H175.481V378.665Z" fill="#333333"/>
<path d="M182.616 378.665H189.75V371.53H182.616V378.665Z" fill="#333333"/>
<path d="M189.745 378.665H196.88V371.53H189.745V378.665Z" fill="#333333"/>
<path d="M196.886 378.665H204.021V371.53H196.886V378.665Z" fill="#333333"/>
<path d="M204.021 378.665H211.156V371.53H204.021V378.665Z" fill="#333333"/>
<path d="M211.155 378.665H218.29V371.53H211.155V378.665Z" fill="#333333"/>
<path d="M161.205 385.806H168.34V378.671H161.205V385.806Z" fill="#333333"/>
<path d="M168.34 385.806H175.475V378.671H168.34V385.806Z" fill="#333333"/>
<path d="M175.481 385.806H182.615V378.671H175.481V385.806Z" fill="#333333"/>
<path d="M182.616 385.806H189.75V378.671H182.616V385.806Z" fill="#333333"/>
<path d="M189.745 385.806H196.88V378.671H189.745V385.806Z" fill="#333333"/>
<path d="M196.886 385.806H204.021V378.671H196.886V385.806Z" fill="#333333"/>
<path d="M204.021 385.806H211.156V378.671H204.021V385.806Z" fill="#333333"/>
<path d="M211.155 385.806H218.29V378.671H211.155V385.806Z" fill="#333333"/>
<path d="M225.425 371.519H218.29V378.654H225.425V371.519Z" fill="black"/>
<path d="M161.205 371.519H154.07V378.654H161.205V371.519Z" fill="black"/>
<path d="M168.34 385.788H161.205V392.923H168.34V385.788Z" fill="black"/>
<path d="M161.205 378.654H154.07V385.788H161.205V378.654Z" fill="black"/>
<path d="M175.475 385.788H168.34V392.923H175.475V385.788Z" fill="black"/>
<path d="M182.61 385.788H175.475V392.923H182.61V385.788Z" fill="black"/>
<path d="M189.745 385.788H182.61V392.923H189.745V385.788Z" fill="black"/>
<path d="M196.885 385.788H189.75V392.923H196.885V385.788Z" fill="black"/>
<path d="M204.02 385.788H196.885V392.923H204.02V385.788Z" fill="black"/>
<path d="M211.155 385.788H204.021V392.923H211.155V385.788Z" fill="black"/>
<path d="M218.29 385.788H211.156V392.923H218.29V385.788Z" fill="black"/>
<path d="M225.425 378.654H218.29V385.788H225.425V378.654Z" fill="black"/>
<path d="M211.155 300.157H204.021V307.292H211.155V300.157Z" fill="black"/>
<path d="M168.34 335.838L161.205 335.844V364.384H211.155V335.844H168.34V335.838Z" fill="#FC771D"/>
<path d="M204.021 357.249H211.156V350.114H204.021V357.249Z" fill="#DD4017"/>
<path d="M168.34 335.844H161.205V342.979H168.34V335.844Z" fill="white"/>
<path d="M161.205 350.102H168.34V342.967H161.205V350.102Z" fill="#FCC342"/>
<path d="M175.475 342.967H168.34V350.102H175.475V342.967Z" fill="white"/>
<path d="M182.61 342.967H175.475V350.102H182.61V342.967Z" fill="white"/>
<path d="M189.745 342.967H182.61V350.102H189.745V342.967Z" fill="white"/>
<path d="M196.885 342.967H189.75V350.102H196.885V342.967Z" fill="white"/>
<path d="M204.02 342.967H196.885V350.102H204.02V342.967Z" fill="white"/>
<path d="M211.155 342.967H204.021V350.102H211.155V342.967Z" fill="white"/>
<path d="M161.205 357.254H168.34V350.119H161.205V357.254Z" fill="#FCC342"/>
<path d="M161.205 364.389H168.34V357.254H161.205V364.389Z" fill="#FCC342"/>
<path d="M204.021 364.378H211.156V357.243H204.021V364.378Z" fill="#DD4017"/>
<path d="M196.886 364.378H204.021V357.243H196.886V364.378Z" fill="#DD4017"/>
<path d="M189.745 364.378H196.88V357.243H189.745V364.378Z" fill="#DD4017"/>
<path d="M204.021 342.973H211.156V335.838H204.021V342.973Z" fill="#DD4017"/>
<path d="M75.5737 314.439H61.298V321.574H54.163V328.709H47.0281V335.844H54.163V364.389H89.8436V357.254H96.9786V350.12H104.114V342.985H96.9786V335.844H89.8436V328.709H82.7086V321.574H75.5737V314.439Z" fill="#FC771D"/>
<path d="M218.18 221.667H189.641L189.745 257.348H196.776V264.483H225.321V235.943H218.18V221.667Z" fill="#8F95B8"/>
<path d="M289.542 228.808H268.137V235.943H232.456V278.758H282.407V271.623H289.542V264.483H296.676V257.348H303.811V235.943H289.542V228.808Z" fill="#F8C5AF"/>
<path d="M89.8438 157.447V171.722H82.7088V193.127H89.8438V200.262H82.7088V207.403L75.5739 214.538L68.4331 221.673H39.8933V214.538H32.7583V193.127H39.8933V185.992H47.0282V178.857H54.1632V171.722H68.4331V164.587H82.7088V157.447H89.8438Z" fill="#F8C5AF"/>
<path d="M282.407 171.717H310.952V178.852H318.087V228.808H289.542V221.667H260.996V214.532H253.861V228.808H225.321V221.667H218.18V214.532H189.641V221.667H182.61V257.348H154.07V250.213H96.9787V243.078H104.114V228.808H111.254V214.532H118.389V207.397H111.254V200.262H118.389V193.127H111.254V200.071V200.262H96.9787V185.992H89.8438V164.582H96.9787V143.171V136.036H104.114H111.144V164.582H118.389L118.279 171.717H125.414V178.852H139.684V185.992H153.96V193.127H168.23V207.397H175.365V214.532H203.911V207.397H211.045V200.262H253.861V193.127H268.137V185.992H275.272V178.852H282.407V171.717Z" fill="#FC771D"/>
<path d="M189.641 214.532H153.96V250.213H161.205V257.348L168.34 264.483H182.61V254.715V221.667H189.641V214.532Z" fill="#C16B2D"/>
<path d="M111.248 128.901H104.114V136.036H111.248V128.901Z" fill="black"/>
<path d="M104.114 128.901H96.9788V136.036H104.114V128.901Z" fill="black"/>
<path d="M96.9729 136.059H89.8379V143.194H96.9729V136.059Z" fill="black"/>
<path d="M89.8379 143.194H82.7029V150.329H89.8379V143.194Z" fill="black"/>
<path d="M82.703 150.335H75.5681V157.47H82.703V150.335Z" fill="black"/>
<path d="M75.5681 157.47H68.4331V164.605H75.5681V157.47Z" fill="black"/>
<path d="M68.4331 164.587H61.2981V171.722H68.4331V164.587Z" fill="black"/>
<path d="M61.298 164.587H54.1631V171.722H61.298V164.587Z" fill="black"/>
<path d="M54.163 171.722H47.0281V178.857H54.163V171.722Z" fill="black"/>
<path d="M47.0283 178.857H39.8933V185.992H47.0283V178.857Z" fill="black"/>
<path d="M75.5679 164.611H82.7029V157.476H75.5679V164.611Z" fill="#FFE4DD"/>
<path d="M75.5738 171.717H82.7087V164.582H75.5738V171.717Z" fill="#FFE4DD"/>
<path d="M68.439 171.717H75.574V164.582H68.439V171.717Z" fill="#FFE4DD"/>
<path d="M61.304 178.857H68.439V171.722H61.304V178.857Z" fill="#FFE4DD"/>
<path d="M54.1632 178.857H61.2981V171.722H54.1632V178.857Z" fill="#FFE4DD"/>
<path d="M47.0281 185.992H54.1631V178.857H47.0281V185.992Z" fill="#FFE4DD"/>
<path d="M39.8931 193.127H47.0281V185.992H39.8931V193.127Z" fill="#FFE4DD"/>
<path d="M82.7089 207.386H75.574V214.521H82.7089V207.386Z" fill="black"/>
<path d="M89.8437 207.386H82.7087V214.521H89.8437V207.386Z" fill="black"/>
<path d="M96.9787 207.386H89.8438V214.521H96.9787V207.386Z" fill="black"/>
<path d="M75.5738 207.403H82.7087V200.268H75.5738V207.403Z" fill="#E19A81"/>
<path d="M68.439 214.532H75.574V207.397H68.439V214.532Z" fill="#E19A81"/>
<path d="M82.7088 207.403H89.8438V200.268H82.7088V207.403Z" fill="#E19A81"/>
<path d="M89.8438 207.403H96.9788V200.268H89.8438V207.403Z" fill="#E19A81"/>
<path d="M82.7088 200.268H89.8438V193.133H82.7088V200.268Z" fill="#E19A81"/>
<path d="M96.9787 193.127H89.8438V200.262H96.9787V193.127Z" fill="black"/>
<path d="M96.9787 185.992H89.8438V193.127H96.9787V185.992Z" fill="white"/>
<path d="M89.8437 185.992H82.7087V193.127H89.8437V185.992Z" fill="black"/>
<path d="M89.8437 178.857H82.7087V185.992H89.8437V178.857Z" fill="black"/>
<path d="M89.8437 171.722H82.7087V178.857H89.8437V171.722Z" fill="black"/>
<path d="M89.8437 164.587H82.7087V171.722H89.8437V164.587Z" fill="black"/>
<path d="M89.8379 157.47H82.7029V164.605H89.8379V157.47Z" fill="black"/>
<path d="M89.8379 150.335H82.7029V157.47H89.8379V150.335Z" fill="black"/>
<path d="M104.114 200.262H96.9788V207.397H104.114V200.262Z" fill="black"/>
<path d="M111.248 200.262H104.114V207.397H111.248V200.262Z" fill="black"/>
<path d="M118.389 193.127H111.254V200.262H118.389V193.127Z" fill="black"/>
<path d="M118.389 207.397H111.254V214.532H118.389V207.397Z" fill="black"/>
<path d="M111.248 214.532H104.114V221.667H111.248V214.532Z" fill="black"/>
<path d="M111.248 221.667H104.114V228.802H111.248V221.667Z" fill="black"/>
<path d="M104.114 228.808H96.9788V235.943H104.114V228.808Z" fill="black"/>
<path d="M104.114 235.943H96.9788V243.078H104.114V235.943Z" fill="black"/>
<path d="M96.9787 243.078H89.8438V250.213H96.9787V243.078Z" fill="black"/>
<path d="M96.9787 250.213H89.8438V257.348H96.9787V250.213Z" fill="black"/>
<path d="M89.8437 257.348H82.7087V264.483H89.8437V257.348Z" fill="black"/>
<path d="M89.8437 264.488H82.7087V271.623H89.8437V264.488Z" fill="black"/>
<path d="M89.8437 271.623H82.7087V278.758H89.8437V271.623Z" fill="black"/>
<path d="M89.8437 278.758H82.7087V285.893H89.8437V278.758Z" fill="black"/>
<path d="M96.9787 257.348H89.8438V264.483H96.9787V257.348Z" fill="#C6CACD"/>
<path d="M104.114 257.348H96.9788V264.483H104.114V257.348Z" fill="#C6CACD"/>
<path d="M96.9787 264.488H89.8438V271.623H96.9787V264.488Z" fill="#C6CACD"/>
<path d="M96.9787 271.623H89.8438V278.758H96.9787V271.623Z" fill="#C6CACD"/>
<path d="M96.9787 278.758H89.8438V285.893H96.9787V278.758Z" fill="#C6CACD"/>
<path d="M104.114 271.623H96.9788V278.758H104.114V271.623Z" fill="#C6CACD"/>
<path d="M104.114 278.758H96.9788V285.893H104.114V278.758Z" fill="#C6CACD"/>
<path d="M211.045 271.623H203.91V278.758H211.045V271.623Z" fill="#C6CACD"/>
<path d="M211.155 278.758H204.021V285.893H211.155V278.758Z" fill="#C6CACD"/>
<path d="M196.776 278.758H189.641V285.893H196.776V278.758Z" fill="#C6CACD"/>
<path d="M204.015 285.888H196.88V293.022H204.015V285.888Z" fill="#C6CACD"/>
<path d="M104.114 285.888H96.9788V293.022H104.114V285.888Z" fill="#C6CACD"/>
<path d="M111.248 285.888H104.114V293.022H111.248V285.888Z" fill="#C6CACD"/>
<path d="M111.248 293.028H104.114V300.163H111.248V293.028Z" fill="#C6CACD"/>
<path d="M118.389 293.028H111.254V300.163H118.389V293.028Z" fill="#C6CACD"/>
<path d="M118.389 300.157H111.254V307.292H118.389V300.157Z" fill="#C6CACD"/>
<path d="M118.389 314.433H125.524V307.298H118.389V314.433Z" fill="#E19A81"/>
<path d="M125.524 314.433H132.659V307.298H125.524V314.433Z" fill="#E19A81"/>
<path d="M132.659 314.433H139.794V307.298H132.659V314.433Z" fill="#E19A81"/>
<path d="M132.659 321.562H139.794V314.427H132.659V321.562Z" fill="#E19A81"/>
<path d="M139.8 321.562H146.935V314.427H139.8V321.562Z" fill="#E19A81"/>
<path d="M146.825 321.562H153.96V314.427H146.825V321.562Z" fill="#E19A81"/>
<path d="M146.935 328.703H154.07V321.568H146.935V328.703Z" fill="#E19A81"/>
<path d="M89.8437 293.028H82.7087V300.163H89.8437V293.028Z" fill="black"/>
<path d="M82.7089 300.157H75.574V307.292H82.7089V300.157Z" fill="black"/>
<path d="M75.5681 307.304H68.4331V314.439H75.5681V307.304Z" fill="black"/>
<path d="M82.7089 314.439H75.574V321.574H82.7089V314.439Z" fill="black"/>
<path d="M89.8437 321.574H82.7087V328.709H89.8437V321.574Z" fill="black"/>
<path d="M96.9787 328.709H89.8438V335.844H96.9787V328.709Z" fill="black"/>
<path d="M104.114 335.844H96.9788V342.979H104.114V335.844Z" fill="black"/>
<path d="M68.4331 307.304H61.2981V314.439H68.4331V307.304Z" fill="black"/>
<path d="M61.298 314.439H54.1631V321.574H61.298V314.439Z" fill="black"/>
<path d="M68.4331 335.844H61.2981V342.979H68.4331V335.844Z" fill="white"/>
<path d="M75.5681 342.984H68.4331V350.119H75.5681V342.984Z" fill="white"/>
<path d="M82.7089 350.12H75.574V357.254H82.7089V350.12Z" fill="white"/>
<path d="M89.8437 350.12H82.7087V357.254H89.8437V350.12Z" fill="white"/>
<path d="M54.163 321.574H47.0281V328.709H54.163V321.574Z" fill="black"/>
<path d="M68.439 321.574H75.574V314.439H68.439V321.574Z" fill="#FCC342"/>
<path d="M61.304 321.574H68.439V314.439H61.304V321.574Z" fill="#FCC342"/>
<path d="M54.1632 328.709H61.2981V321.574H54.1632V328.709Z" fill="#FCC342"/>
<path d="M47.0281 335.844H54.1631V328.709H47.0281V335.844Z" fill="#FCC342"/>
<path d="M47.0283 328.709H39.8933V335.844H47.0283V328.709Z" fill="black"/>
<path d="M39.8933 335.844H32.7583V342.979H39.8933V335.844Z" fill="black"/>
<path d="M39.8933 342.984H32.7583V350.119H39.8933V342.984Z" fill="black"/>
<path d="M39.8933 350.12H32.7583V357.254H39.8933V350.12Z" fill="black"/>
<path d="M39.8933 357.254H32.7583V364.389H39.8933V357.254Z" fill="black"/>
<path d="M39.8933 364.389H32.7583V371.524H39.8933V364.389Z" fill="black"/>
<path d="M47.0283 371.524H39.8933V378.659H47.0283V371.524Z" fill="black"/>
<path d="M54.163 378.659H47.0281V385.794H54.163V378.659Z" fill="black"/>
<path d="M61.298 378.659H54.1631V385.794H61.298V378.659Z" fill="black"/>
<path d="M68.4331 378.659H61.2981V385.794H68.4331V378.659Z" fill="black"/>
<path d="M75.5681 378.659H68.4331V385.794H75.5681V378.659Z" fill="black"/>
<path d="M82.7089 378.659H75.574V385.794H82.7089V378.659Z" fill="black"/>
<path d="M89.8437 371.524H82.7087V378.659H89.8437V371.524Z" fill="black"/>
<path d="M89.8437 364.389H82.7087V371.524H89.8437V364.389Z" fill="black"/>
<path d="M96.9787 357.254H89.8438V364.389H96.9787V357.254Z" fill="black"/>
<path d="M111.248 342.984H104.114V350.119H111.248V342.984Z" fill="black"/>
<path d="M118.389 342.973H111.254V350.108H118.389V342.973Z" fill="black"/>
<path d="M125.524 335.838H118.389V342.973H125.524V335.838Z" fill="black"/>
<path d="M132.659 328.709H125.524V335.844H132.659V328.709Z" fill="black"/>
<path d="M104.114 350.12H96.9788V357.254H104.114V350.12Z" fill="black"/>
<path d="M82.7089 364.389H75.574V371.524H82.7089V364.389Z" fill="black"/>
<path d="M75.5681 364.389H68.4331V371.524H75.5681V364.389Z" fill="black"/>
<path d="M68.4331 364.389H61.2981V371.524H68.4331V364.389Z" fill="black"/>
<path d="M61.298 364.389H54.1631V371.524H61.298V364.389Z" fill="black"/>
<path d="M54.163 357.254H47.0281V364.389H54.163V357.254Z" fill="black"/>
<path d="M54.163 350.12H47.0281V357.254H54.163V350.12Z" fill="black"/>
<path d="M54.163 342.984H47.0281V350.119H54.163V342.984Z" fill="black"/>
<path d="M54.163 335.844H47.0281V342.979H54.163V335.844Z" fill="black"/>
<path d="M175.475 264.488H168.34V271.623H175.475V264.488Z" fill="black"/>
<path d="M218.29 271.623H211.156V278.758H218.29V271.623Z" fill="black"/>
<path d="M218.29 278.758H211.156V285.893H218.29V278.758Z" fill="black"/>
<path d="M211.155 285.888H204.021V293.022H211.155V285.888Z" fill="black"/>
<path d="M104.114 250.213H96.9788V257.348H104.114V250.213Z" fill="black"/>
<path d="M111.248 250.213H104.114V257.348H111.248V250.213Z" fill="black"/>
<path d="M118.389 250.213H111.254V257.348H118.389V250.213Z" fill="black"/>
<path d="M125.524 250.213H118.389V257.348H125.524V250.213Z" fill="black"/>
<path d="M132.659 250.213H125.524V257.348H132.659V250.213Z" fill="black"/>
<path d="M139.794 250.213H132.659V257.348H139.794V250.213Z" fill="black"/>
<path d="M146.929 250.213H139.794V257.348H146.929V250.213Z" fill="black"/>
<path d="M104.119 250.213H111.254V243.078H104.119V250.213Z" fill="#DD4017"/>
<path d="M111.249 250.213H118.384V243.078H111.249V250.213Z" fill="#DD4017"/>
<path d="M118.389 250.213H125.524V243.078H118.389V250.213Z" fill="#DD4017"/>
<path d="M125.524 250.213H132.659V243.078H125.524V250.213Z" fill="#DD4017"/>
<path d="M132.659 250.213H139.794V243.078H132.659V250.213Z" fill="#DD4017"/>
<path d="M139.8 250.213H146.935V243.078H139.8V250.213Z" fill="#DD4017"/>
<path d="M154.064 250.213H146.929V257.348H154.064V250.213Z" fill="black"/>
<path d="M161.205 257.348H154.07V264.483H161.205V257.348Z" fill="black"/>
<path d="M168.34 257.348H161.205V264.483H168.34V257.348Z" fill="black"/>
<path d="M182.61 264.488H175.475V271.623H182.61V264.488Z" fill="black"/>
<path d="M189.635 264.488H182.5V271.623H189.635V264.488Z" fill="black"/>
<path d="M196.758 264.488H189.623V271.623H196.758V264.488Z" fill="black"/>
<path d="M225.315 264.488H218.18V271.623H225.315V264.488Z" fill="black"/>
<path d="M218.18 264.488H211.045V271.623H218.18V264.488Z" fill="black"/>
<path d="M211.045 264.488H203.91V271.623H211.045V264.488Z" fill="black"/>
<path d="M203.911 264.488H196.776V271.623H203.911V264.488Z" fill="black"/>
<path d="M196.776 257.348H189.641V264.483H196.776V257.348Z" fill="black"/>
<path d="M218.186 264.488H225.321V257.353H218.186V264.488Z" fill="#5C628E"/>
<path d="M211.045 264.488H218.18V257.353H211.045V264.488Z" fill="#5C628E"/>
<path d="M203.91 264.488H211.045V257.353H203.91V264.488Z" fill="#5C628E"/>
<path d="M196.775 264.488H203.91V257.353H196.775V264.488Z" fill="#5C628E"/>
<path d="M196.775 257.353H203.91V250.218H196.775V257.353Z" fill="#5C628E"/>
<path d="M189.635 257.353H196.77V250.218H189.635V257.353Z" fill="#5C628E"/>
<path d="M189.635 243.078H196.77V235.943H189.635V243.078Z" fill="#5C628E"/>
<path d="M189.745 257.348H182.61V264.483H189.745V257.348Z" fill="black"/>
<path d="M189.745 250.213H182.61V257.348H189.745V250.213Z" fill="black"/>
<path d="M189.745 243.078H182.61V250.213H189.745V243.078Z" fill="black"/>
<path d="M189.745 235.943H182.61V243.078H189.745V235.943Z" fill="black"/>
<path d="M189.745 228.808H182.61V235.943H189.745V228.808Z" fill="black"/>
<path d="M189.745 221.667H182.61V228.802H189.745V221.667Z" fill="black"/>
<path d="M196.885 228.808H189.75V235.943H196.885V228.808Z" fill="black"/>
<path d="M204.02 228.808H196.885V235.943H204.02V228.808Z" fill="black"/>
<path d="M196.885 243.078H189.75V250.213H196.885V243.078Z" fill="black"/>
<path d="M204.02 243.078H196.885V250.213H204.02V243.078Z" fill="black"/>
<path d="M196.776 214.532H189.641V221.667H196.776V214.532Z" fill="black"/>
<path d="M203.911 214.532H196.776V221.667H203.911V214.532Z" fill="black"/>
<path d="M211.045 214.532H203.91V221.667H211.045V214.532Z" fill="black"/>
<path d="M218.18 214.532H211.045V221.667H218.18V214.532Z" fill="black"/>
<path d="M225.315 221.667H218.18V228.802H225.315V221.667Z" fill="black"/>
<path d="M225.315 228.808H218.18V235.943H225.315V228.808Z" fill="black"/>
<path d="M296.677 164.582H289.542V171.717H296.677V164.582Z" fill="black"/>
<path d="M303.811 164.582H296.677V171.717H303.811V164.582Z" fill="black"/>
<path d="M310.946 164.582H303.812V171.717H310.946V164.582Z" fill="black"/>
<path d="M318.087 171.717H310.952V178.852H318.087V171.717Z" fill="black"/>
<path d="M325.222 178.852H318.087V185.986H325.222V178.852Z" fill="black"/>
<path d="M325.222 185.992H318.087V193.127H325.222V185.992Z" fill="black"/>
<path d="M325.222 193.127H318.087V200.262H325.222V193.127Z" fill="black"/>
<path d="M325.222 200.262H318.087V207.397H325.222V200.262Z" fill="black"/>
<path d="M325.222 207.397H318.087V214.532H325.222V207.397Z" fill="black"/>
<path d="M325.222 214.532H318.087V221.667H325.222V214.532Z" fill="black"/>
<path d="M325.222 221.667H318.087V228.802H325.222V221.667Z" fill="black"/>
<path d="M318.087 228.808H310.952V235.943H318.087V228.808Z" fill="black"/>
<path d="M310.946 228.808H303.812V235.943H310.946V228.808Z" fill="black"/>
<path d="M310.946 235.943H303.812V243.078H310.946V235.943Z" fill="black"/>
<path d="M310.946 243.078H303.812V250.213H310.946V243.078Z" fill="black"/>
<path d="M310.946 250.213H303.812V257.348H310.946V250.213Z" fill="black"/>
<path d="M303.811 257.348H296.677V264.483H303.811V257.348Z" fill="black"/>
<path d="M296.677 264.488H289.542V271.623H296.677V264.488Z" fill="black"/>
<path d="M289.542 271.623H282.407V278.758H289.542V271.623Z" fill="black"/>
<path d="M282.407 278.758H275.272V285.893H282.407V278.758Z" fill="black"/>
<path d="M275.272 278.758H268.137V285.893H275.272V278.758Z" fill="black"/>
<path d="M268.131 278.758H260.996V285.893H268.131V278.758Z" fill="black"/>
<path d="M260.996 278.758H253.861V285.893H260.996V278.758Z" fill="black"/>
<path d="M253.861 278.758H246.726V285.893H253.861V278.758Z" fill="black"/>
<path d="M246.726 278.758H239.591V285.893H246.726V278.758Z" fill="black"/>
<path d="M239.591 278.758H232.456V285.893H239.591V278.758Z" fill="black"/>
<path d="M296.682 257.353H303.817V250.218H296.682V257.353Z" fill="#E19A81"/>
<path d="M289.542 264.488H296.677V257.353H289.542V264.488Z" fill="#E19A81"/>
<path d="M282.407 271.618H289.542V264.483H282.407V271.618Z" fill="#E19A81"/>
<path d="M275.272 278.758H282.407V271.623H275.272V278.758Z" fill="#E19A81"/>
<path d="M268.131 278.758H275.266V271.623H268.131V278.758Z" fill="#E19A81"/>
<path d="M261.002 278.758H268.137V271.623H261.002V278.758Z" fill="#E19A81"/>
<path d="M253.867 278.758H261.002V271.623H253.867V278.758Z" fill="#E19A81"/>
<path d="M246.726 278.758H253.861V271.623H246.726V278.758Z" fill="#E19A81"/>
<path d="M239.591 278.758H246.726V271.623H239.591V278.758Z" fill="#E19A81"/>
<path d="M232.45 278.758H239.585V271.623H232.45V278.758Z" fill="#E19A81"/>
<path d="M261.002 243.078H268.137V235.943H261.002V243.078Z" fill="#FFE4DD"/>
<path d="M253.867 243.078H261.002V235.943H253.867V243.078Z" fill="#FFE4DD"/>
<path d="M246.726 243.078H253.861V235.943H246.726V243.078Z" fill="#FFE4DD"/>
<path d="M239.591 243.078H246.726V235.943H239.591V243.078Z" fill="#FFE4DD"/>
<path d="M232.45 243.078H239.585V235.943H232.45V243.078Z" fill="#FFE4DD"/>
<path d="M232.45 271.623H225.315V278.758H232.45V271.623Z" fill="black"/>
<path d="M232.45 264.488H225.315V271.623H232.45V264.488Z" fill="black"/>
<path d="M232.45 257.348H225.315V264.483H232.45V257.348Z" fill="black"/>
<path d="M232.45 250.213H225.315V257.348H232.45V250.213Z" fill="black"/>
<path d="M232.45 243.078H225.315V250.213H232.45V243.078Z" fill="black"/>
<path d="M232.45 235.943H225.315V243.078H232.45V235.943Z" fill="black"/>
<path d="M232.45 228.808H225.315V235.943H232.45V228.808Z" fill="black"/>
<path d="M239.591 228.808H232.456V235.943H239.591V228.808Z" fill="black"/>
<path d="M246.726 228.808H239.591V235.943H246.726V228.808Z" fill="black"/>
<path d="M253.861 228.808H246.726V235.943H253.861V228.808Z" fill="black"/>
<path d="M260.996 228.808H253.861V235.943H260.996V228.808Z" fill="black"/>
<path d="M260.996 221.667H253.861V228.802H260.996V221.667Z" fill="black"/>
<path d="M260.996 214.532H253.861V221.667H260.996V214.532Z" fill="black"/>
<path d="M268.131 228.808H260.996V235.943H268.131V228.808Z" fill="black"/>
<path d="M268.131 221.667H260.996V228.802H268.131V221.667Z" fill="black"/>
<path d="M275.272 221.667H268.137V228.802H275.272V221.667Z" fill="black"/>
<path d="M282.407 221.667H275.272V228.802H282.407V221.667Z" fill="black"/>
<path d="M289.542 221.667H282.407V228.802H289.542V221.667Z" fill="black"/>
<path d="M303.811 228.808H296.677V235.943H303.811V228.808Z" fill="black"/>
<path d="M296.677 228.808H289.542V235.943H296.677V228.808Z" fill="black"/>
<path d="M318.087 221.667H310.952V228.802H318.087V221.667Z" fill="white"/>
<path d="M310.946 221.667H303.812V228.802H310.946V221.667Z" fill="white"/>
<path d="M268.131 214.532H260.996V221.667H268.131V214.532Z" fill="white"/>
<path d="M275.272 214.532H268.137V221.667H275.272V214.532Z" fill="white"/>
<path d="M282.407 214.532H275.272V221.667H282.407V214.532Z" fill="white"/>
<path d="M289.542 214.532H282.407V221.667H289.542V214.532Z" fill="white"/>
<path d="M303.811 221.667H296.677V228.802H303.811V221.667Z" fill="white"/>
<path d="M296.677 221.667H289.542V228.802H296.677V221.667Z" fill="white"/>
<path d="M289.542 178.857H296.677V171.722H289.542V178.857Z" fill="#FCC342"/>
<path d="M296.682 178.857H303.817V171.722H296.682V178.857Z" fill="#FCC342"/>
<path d="M303.817 178.857H310.952V171.722H303.817V178.857Z" fill="#FCC342"/>
<path d="M310.947 185.992H318.082V178.857H310.947V185.992Z" fill="#FCC342"/>
<path d="M282.407 178.857H289.542V171.722H282.407V178.857Z" fill="#FCC342"/>
<path d="M132.549 178.852H125.414V185.986H132.549V178.852Z" fill="white"/>
<path d="M132.549 185.992H125.414V193.127H132.549V185.992Z" fill="white"/>
<path d="M125.524 185.992H118.389V193.127H125.524V185.992Z" fill="white"/>
<path d="M96.9787 178.852H89.8438V185.986H96.9787V178.852Z" fill="white"/>
<path d="M96.9787 171.717H89.8438V178.852H96.9787V171.717Z" fill="white"/>
<path d="M96.9787 164.582H89.8438V171.717H96.9787V164.582Z" fill="white"/>
<path d="M96.9729 157.47H89.8379V164.605H96.9729V157.47Z" fill="white"/>
<path d="M96.9729 150.335H89.8379V157.47H96.9729V150.335Z" fill="white"/>
<path d="M96.9729 143.194H89.8379V150.329H96.9729V143.194Z" fill="white"/>
<path d="M125.524 193.127H118.389V200.262H125.524V193.127Z" fill="white"/>
<path d="M125.524 200.262H118.389V207.397H125.524V200.262Z" fill="white"/>
<path d="M118.389 200.262H111.254V207.397H118.389V200.262Z" fill="white"/>
<path d="M275.272 178.852H268.137V185.986H275.272V178.852Z" fill="black"/>
<path d="M175.365 200.262H168.23V207.397H175.365V200.262Z" fill="black"/>
<path d="M168.23 193.127H161.095V200.262H168.23V193.127Z" fill="white"/>
<path d="M168.23 200.262H161.095V207.397H168.23V200.262Z" fill="white"/>
<path d="M182.5 207.397H175.365V214.532H182.5V207.397Z" fill="black"/>
<path d="M175.365 207.397H168.23V214.532H175.365V207.397Z" fill="black"/>
<path d="M168.23 207.397H161.095V214.532H168.23V207.397Z" fill="black"/>
<path d="M161.095 207.397H153.96V214.532H161.095V207.397Z" fill="black"/>
<path d="M153.954 207.397H146.819V214.532H153.954V207.397Z" fill="black"/>
<path d="M168.12 221.667H160.985V228.802H168.12V221.667Z" fill="white"/>
<path d="M175.365 228.808H168.23V235.943H175.365V228.808Z" fill="white"/>
<path d="M182.61 235.943H175.475V243.078H182.61V235.943Z" fill="white"/>
<path d="M153.954 214.532H146.819V221.667H153.954V214.532Z" fill="black"/>
<path d="M153.954 221.667H146.819V228.802H153.954V221.667Z" fill="black"/>
<path d="M153.954 228.808H146.819V235.943H153.954V228.808Z" fill="black"/>
<path d="M153.954 235.943H146.819V243.078H153.954V235.943Z" fill="black"/>
<path d="M153.954 243.078H146.819V250.213H153.954V243.078Z" fill="black"/>
<path d="M161.205 250.213H154.07V257.348H161.205V250.213Z" fill="black"/>
<path d="M175.475 257.348H168.34V264.483H175.475V257.348Z" fill="#A04C22"/>
<path d="M168.34 250.213H161.205V257.348H168.34V250.213Z" fill="#A04C22"/>
<path d="M182.61 257.348H175.475V264.483H182.61V257.348Z" fill="#A04C22"/>
<path d="M161.095 243.078H153.96V250.213H161.095V243.078Z" fill="#A04C22"/>
<path d="M189.635 207.397H182.5V214.532H189.635V207.397Z" fill="black"/>
<path d="M196.776 207.397H189.641V214.532H196.776V207.397Z" fill="black"/>
<path d="M203.911 207.397H196.776V214.532H203.911V207.397Z" fill="black"/>
<path d="M211.045 200.262H203.91V207.397H211.045V200.262Z" fill="black"/>
<path d="M211.045 207.397H203.91V214.532H211.045V207.397Z" fill="white"/>
<path d="M218.18 200.262H211.045V207.397H218.18V200.262Z" fill="white"/>
<path d="M132.549 93.2204V178.852H139.684V185.992H153.96V193.127H239.591V185.992H253.861V178.852H268.137V121.766H260.996V114.631H253.861V107.496H246.726V100.355H232.456V93.2204H132.549Z" fill="#F8C5AF"/>
<path d="M268.137 157.447H132.549V178.851H139.684V185.992H153.96V193.127H239.591V185.992H253.861V178.851H268.137V157.447Z" fill="#E19A81"/>
<path d="M275.272 171.717H282.407V164.582H289.432L289.542 78.9505H282.407V71.8155H275.272V57.5398H268.137V50.4049H260.996V43.2699H239.591V36.1349H146.825V43.2699H132.549V50.4049H125.414V64.6806H118.28V164.582H125.414V93.2204H132.549V86.0855H232.456V93.2204H246.726V100.355H253.861V107.496H260.996V114.631H268.137V121.766H275.272V171.717Z" fill="white"/>
<path d="M175.365 36.1349V43.2699H168.23V50.4049H161.095V64.6806H153.96V86.0855H203.91V64.6806H211.045V50.4049H218.18V43.2699H225.321V36.1349H175.365Z" fill="#FC771D"/>
<path d="M118.28 64.6806H111.145V71.8155H118.28V64.6806Z" fill="black"/>
<path d="M125.414 57.5398H118.28V64.6748H125.414V57.5398Z" fill="black"/>
<path d="M125.414 50.4049H118.28V57.5398H125.414V50.4049Z" fill="black"/>
<path d="M132.549 43.2699H125.414V50.4049H132.549V43.2699Z" fill="black"/>
<path d="M139.684 36.1349H132.549V43.2699H139.684V36.1349Z" fill="black"/>
<path d="M146.819 36.1349H139.684V43.2699H146.819V36.1349Z" fill="black"/>
<path d="M153.954 29H146.819V36.135H153.954V29Z" fill="black"/>
<path d="M161.095 29H153.96V36.135H161.095V29Z" fill="black"/>
<path d="M168.23 29H161.095V36.135H168.23V29Z" fill="black"/>
<path d="M175.365 29H168.23V36.135H175.365V29Z" fill="black"/>
<path d="M182.5 29H175.365V36.135H182.5V29Z" fill="black"/>
<path d="M189.635 29H182.5V36.135H189.635V29Z" fill="black"/>
<path d="M196.776 29H189.641V36.135H196.776V29Z" fill="black"/>
<path d="M203.911 29H196.776V36.135H203.911V29Z" fill="black"/>
<path d="M211.045 29H203.91V36.135H211.045V29Z" fill="black"/>
<path d="M218.18 29H211.045V36.135H218.18V29Z" fill="black"/>
<path d="M225.315 29H218.18V36.135H225.315V29Z" fill="black"/>
<path d="M232.45 29H225.315V36.135H232.45V29Z" fill="black"/>
<path d="M239.591 29H232.456V36.135H239.591V29Z" fill="black"/>
<path d="M246.726 36.1349H239.591V43.2699H246.726V36.1349Z" fill="black"/>
<path d="M253.861 36.1349H246.726V43.2699H253.861V36.1349Z" fill="black"/>
<path d="M260.996 36.1349H253.861V43.2699H260.996V36.1349Z" fill="black"/>
<path d="M268.131 43.2699H260.996V50.4049H268.131V43.2699Z" fill="black"/>
<path d="M275.272 50.4049H268.137V57.5398H275.272V50.4049Z" fill="black"/>
<path d="M282.407 57.5398H275.272V64.6748H282.407V57.5398Z" fill="black"/>
<path d="M282.407 64.6806H275.272V71.8155H282.407V64.6806Z" fill="black"/>
<path d="M289.542 71.8155H282.407V78.9505H289.542V71.8155Z" fill="black"/>
<path d="M296.677 78.9505H289.542V86.0855H296.677V78.9505Z" fill="black"/>
<path d="M296.677 86.0854H289.542V93.2204H296.677V86.0854Z" fill="black"/>
<path d="M296.677 93.2204H289.542V100.355H296.677V93.2204Z" fill="black"/>
<path d="M296.677 100.355H289.542V107.49H296.677V100.355Z" fill="black"/>
<path d="M296.677 107.496H289.542V114.631H296.677V107.496Z" fill="black"/>
<path d="M296.677 114.631H289.542V121.766H296.677V114.631Z" fill="black"/>
<path d="M296.677 121.766H289.542V128.901H296.677V121.766Z" fill="black"/>
<path d="M296.677 128.901H289.542V136.036H296.677V128.901Z" fill="black"/>
<path d="M296.677 136.036H289.542V143.171H296.677V136.036Z" fill="black"/>
<path d="M296.677 143.171H289.542V150.306H296.677V143.171Z" fill="black"/>
<path d="M296.677 150.312H289.542V157.447H296.677V150.312Z" fill="black"/>
<path d="M296.677 157.447H289.542V164.582H296.677V157.447Z" fill="black"/>
<path d="M289.542 164.582H282.407V171.717H289.542V164.582Z" fill="black"/>
<path d="M282.407 171.717H275.272V178.852H282.407V171.717Z" fill="black"/>
<path d="M275.272 171.717H268.137V178.852H275.272V171.717Z" fill="black"/>
<path d="M268.131 178.852H260.996V185.986H268.131V178.852Z" fill="black"/>
<path d="M275.272 128.901H268.137V136.036H275.272V128.901Z" fill="black"/>
<path d="M275.272 136.036H268.137V143.171H275.272V136.036Z" fill="black"/>
<path d="M275.272 143.171H268.137V150.306H275.272V143.171Z" fill="black"/>
<path d="M275.272 150.312H268.137V157.447H275.272V150.312Z" fill="black"/>
<path d="M275.272 157.447H268.137V164.582H275.272V157.447Z" fill="black"/>
<path d="M118.28 71.8155H111.145V78.9505H118.28V71.8155Z" fill="black"/>
<path d="M118.28 78.9505H111.145V86.0855H118.28V78.9505Z" fill="black"/>
<path d="M118.28 86.0854H111.145V93.2204H118.28V86.0854Z" fill="black"/>
<path d="M118.28 93.2204H111.145V100.355H118.28V93.2204Z" fill="black"/>
<path d="M118.28 100.355H111.145V107.49H118.28V100.355Z" fill="black"/>
<path d="M118.28 107.496H111.145V114.631H118.28V107.496Z" fill="black"/>
<path d="M118.28 114.631H111.145V121.766H118.28V114.631Z" fill="black"/>
<path d="M118.28 121.766H111.145V128.901H118.28V121.766Z" fill="black"/>
<path d="M118.28 128.901H111.145V136.036H118.28V128.901Z" fill="black"/>
<path d="M118.28 136.036H111.145V143.171H118.28V136.036Z" fill="black"/>
<path d="M118.28 143.171H111.145V150.306H118.28V143.171Z" fill="black"/>
<path d="M118.28 150.312H111.145V157.447H118.28V150.312Z" fill="black"/>
<path d="M118.28 157.447H111.145V164.582H118.28V157.447Z" fill="black"/>
<path d="M125.414 164.582H118.28V171.717H125.414V164.582Z" fill="black"/>
<path d="M132.549 128.901H125.414V136.036H132.549V128.901Z" fill="black"/>
<path d="M132.549 121.766H125.414V128.901H132.549V121.766Z" fill="black"/>
<path d="M132.549 114.631H125.414V121.766H132.549V114.631Z" fill="black"/>
<path d="M132.549 107.496H125.414V114.631H132.549V107.496Z" fill="black"/>
<path d="M132.549 100.355H125.414V107.49H132.549V100.355Z" fill="black"/>
<path d="M139.684 86.0854H132.549V93.2204H139.684V86.0854Z" fill="black"/>
<path d="M146.819 86.0854H139.684V93.2204H146.819V86.0854Z" fill="black"/>
<path d="M153.954 86.0854H146.819V93.2204H153.954V86.0854Z" fill="black"/>
<path d="M161.095 86.0854H153.96V93.2204H161.095V86.0854Z" fill="black"/>
<path d="M153.954 78.9505H146.819V86.0855H153.954V78.9505Z" fill="black"/>
<path d="M153.954 71.8155H146.819V78.9505H153.954V71.8155Z" fill="black"/>
<path d="M153.954 64.6806H146.819V71.8155H153.954V64.6806Z" fill="black"/>
<path d="M161.095 64.6806H153.96V71.8155H161.095V64.6806Z" fill="#FCC342"/>
<path d="M161.095 57.5398H153.96V64.6748H161.095V57.5398Z" fill="black"/>
<path d="M161.095 50.4049H153.96V57.5398H161.095V50.4049Z" fill="black"/>
<path d="M168.23 43.2699H161.095V50.4049H168.23V43.2699Z" fill="black"/>
<path d="M175.365 36.1349H168.23V43.2699H175.365V36.1349Z" fill="black"/>
<path d="M182.5 36.1349H175.365V43.2699H182.5V36.1349Z" fill="#FCC342"/>
<path d="M189.635 36.1349H182.5V43.2699H189.635V36.1349Z" fill="#FCC342"/>
<path d="M196.776 36.1349H189.641V43.2699H196.776V36.1349Z" fill="#FCC342"/>
<path d="M203.911 36.1349H196.776V43.2699H203.911V36.1349Z" fill="#FCC342"/>
<path d="M211.045 36.1349H203.91V43.2699H211.045V36.1349Z" fill="#FCC342"/>
<path d="M218.18 36.1349H211.045V43.2699H218.18V36.1349Z" fill="#FCC342"/>
<path d="M225.315 36.1349H218.18V43.2699H225.315V36.1349Z" fill="#FCC342"/>
<path d="M168.23 57.5398H161.095V64.6748H168.23V57.5398Z" fill="#FCC342"/>
<path d="M168.23 50.4049H161.095V57.5398H168.23V50.4049Z" fill="#FCC342"/>
<path d="M175.365 43.2699H168.23V50.4049H175.365V43.2699Z" fill="#FCC342"/>
<path d="M211.045 78.9505H203.91V86.0855H211.045V78.9505Z" fill="black"/>
<path d="M211.045 71.8155H203.91V78.9505H211.045V71.8155Z" fill="black"/>
<path d="M211.045 64.6806H203.91V71.8155H211.045V64.6806Z" fill="black"/>
<path d="M218.18 57.5398H211.045V64.6748H218.18V57.5398Z" fill="black"/>
<path d="M218.18 50.4049H211.045V57.5398H218.18V50.4049Z" fill="black"/>
<path d="M225.315 43.2699H218.18V50.4049H225.315V43.2699Z" fill="black"/>
<path d="M232.45 36.1349H225.315V43.2699H232.45V36.1349Z" fill="black"/>
<path d="M168.23 86.0854H161.095V93.2204H168.23V86.0854Z" fill="black"/>
<path d="M175.365 86.0854H168.23V93.2204H175.365V86.0854Z" fill="black"/>
<path d="M182.5 86.0854H175.365V93.2204H182.5V86.0854Z" fill="black"/>
<path d="M182.5 114.631H175.365V121.766H182.5V114.631Z" fill="black"/>
<path d="M175.365 114.631H168.23V121.766H175.365V114.631Z" fill="black"/>
<path d="M175.365 121.766H168.23V128.901H175.365V121.766Z" fill="#E19A81"/>
<path d="M168.23 121.766H161.095V128.901H168.23V121.766Z" fill="#E19A81"/>
<path d="M168.23 114.631H161.095V121.766H168.23V114.631Z" fill="#E19A81"/>
<path d="M161.095 114.631H153.96V121.766H161.095V114.631Z" fill="#E19A81"/>
<path d="M153.954 114.631H146.819V121.766H153.954V114.631Z" fill="#E19A81"/>
<path d="M146.819 114.631H139.684V121.766H146.819V114.631Z" fill="#E19A81"/>
<path d="M182.5 121.766H175.365V128.901H182.5V121.766Z" fill="#E19A81"/>
<path d="M182.5 128.901H175.365V136.036H182.5V128.901Z" fill="#E19A81"/>
<path d="M203.911 114.631H196.776V121.766H203.911V114.631Z" fill="black"/>
<path d="M211.045 114.631H203.91V121.766H211.045V114.631Z" fill="black"/>
<path d="M211.045 107.496H203.91V114.631H211.045V107.496Z" fill="black"/>
<path d="M218.18 107.496H211.045V114.631H218.18V107.496Z" fill="black"/>
<path d="M225.315 107.496H218.18V114.631H225.315V107.496Z" fill="black"/>
<path d="M225.315 128.901H218.18V136.036H225.315V128.901Z" fill="black"/>
<path d="M225.315 136.036H218.18V143.171H225.315V136.036Z" fill="black"/>
<path d="M232.45 128.901H225.315V136.036H232.45V128.901Z" fill="white"/>
<path d="M239.591 128.901H232.456V136.036H239.591V128.901Z" fill="white"/>
<path d="M246.726 128.901H239.591V136.036H246.726V128.901Z" fill="white"/>
<path d="M232.45 136.036H225.315V143.171H232.45V136.036Z" fill="white"/>
<path d="M239.591 136.036H232.456V143.171H239.591V136.036Z" fill="white"/>
<path d="M218.18 128.901H211.045V136.036H218.18V128.901Z" fill="black"/>
<path d="M218.18 136.036H211.045V143.171H218.18V136.036Z" fill="black"/>
<path d="M232.45 107.496H225.315V114.631H232.45V107.496Z" fill="black"/>
<path d="M239.591 107.496H232.456V114.631H239.591V107.496Z" fill="black"/>
<path d="M211.045 121.766H203.91V128.901H211.045V121.766Z" fill="#E19A81"/>
<path d="M203.911 121.766H196.776V128.901H203.911V121.766Z" fill="#E19A81"/>
<path d="M211.045 128.901H203.91V136.036H211.045V128.901Z" fill="#E19A81"/>
<path d="M218.18 114.631H211.045V121.766H218.18V114.631Z" fill="#E19A81"/>
<path d="M218.18 121.766H211.045V128.901H218.18V121.766Z" fill="#E19A81"/>
<path d="M225.315 114.631H218.18V121.766H225.315V114.631Z" fill="#E19A81"/>
<path d="M232.45 114.631H225.315V121.766H232.45V114.631Z" fill="#E19A81"/>
<path d="M239.591 114.631H232.456V121.766H239.591V114.631Z" fill="#E19A81"/>
<path d="M175.365 107.496H168.23V114.631H175.365V107.496Z" fill="black"/>
<path d="M168.23 107.496H161.095V114.631H168.23V107.496Z" fill="black"/>
<path d="M161.095 107.496H153.96V114.631H161.095V107.496Z" fill="black"/>
<path d="M161.095 128.901H153.96V136.036H161.095V128.901Z" fill="black"/>
<path d="M161.095 136.036H153.96V143.171H161.095V136.036Z" fill="black"/>
<path d="M153.954 128.901H146.819V136.036H153.954V128.901Z" fill="black"/>
<path d="M146.819 128.901H139.684V136.036H146.819V128.901Z" fill="white"/>
<path d="M153.954 136.036H146.819V143.171H153.954V136.036Z" fill="black"/>
<path d="M168.23 128.901H161.095V136.036H168.23V128.901Z" fill="white"/>
<path d="M168.23 136.036H161.095V143.171H168.23V136.036Z" fill="white"/>
<path d="M175.365 128.901H168.23V136.036H175.365V128.901Z" fill="white"/>
<path d="M175.365 136.036H168.23V143.171H175.365V136.036Z" fill="white"/>
<path d="M189.635 150.312H182.5V157.447H189.635V150.312Z" fill="black"/>
<path d="M196.776 150.312H189.641V157.447H196.776V150.312Z" fill="black"/>
<path d="M203.911 150.312H196.776V157.447H203.911V150.312Z" fill="#E19A81"/>
<path d="M153.954 107.496H146.819V114.631H153.954V107.496Z" fill="black"/>
<path d="M146.819 107.496H139.684V114.631H146.819V107.496Z" fill="black"/>
<path d="M189.635 86.0854H182.5V93.2204H189.635V86.0854Z" fill="black"/>
<path d="M196.776 86.0854H189.641V93.2204H196.776V86.0854Z" fill="black"/>
<path d="M203.911 86.0854H196.776V93.2204H203.911V86.0854Z" fill="black"/>
<path d="M211.045 86.0854H203.91V93.2204H211.045V86.0854Z" fill="black"/>
<path d="M218.18 86.0854H211.045V93.2204H218.18V86.0854Z" fill="black"/>
<path d="M225.315 86.0854H218.18V93.2204H225.315V86.0854Z" fill="black"/>
<path d="M232.45 86.0854H225.315V93.2204H232.45V86.0854Z" fill="black"/>
<path d="M139.684 100.355H132.549V107.49H139.684V100.355Z" fill="black"/>
<path d="M146.819 100.355H139.684V107.49H146.819V100.355Z" fill="black"/>
<path d="M153.954 100.355H146.819V107.49H153.954V100.355Z" fill="black"/>
<path d="M161.095 100.355H153.96V107.49H161.095V100.355Z" fill="black"/>
<path d="M168.23 100.355H161.095V107.49H168.23V100.355Z" fill="black"/>
<path d="M175.365 100.355H168.23V107.49H175.365V100.355Z" fill="black"/>
<path d="M182.5 100.355H175.365V107.49H182.5V100.355Z" fill="black"/>
<path d="M189.635 100.355H182.5V107.49H189.635V100.355Z" fill="black"/>
<path d="M196.776 100.355H189.641V107.49H196.776V100.355Z" fill="black"/>
<path d="M203.911 100.355H196.776V107.49H203.911V100.355Z" fill="black"/>
<path d="M211.045 100.355H203.91V107.49H211.045V100.355Z" fill="black"/>
<path d="M218.18 100.355H211.045V107.49H218.18V100.355Z" fill="black"/>
<path d="M225.315 100.355H218.18V107.49H225.315V100.355Z" fill="black"/>
<path d="M232.45 100.355H225.315V107.49H232.45V100.355Z" fill="black"/>
<path d="M139.684 93.2204H132.549V100.355H139.684V93.2204Z" fill="white"/>
<path d="M132.549 93.2204H125.414V100.355H132.549V93.2204Z" fill="white"/>
<path d="M146.819 93.2204H139.684V100.355H146.819V93.2204Z" fill="white"/>
<path d="M153.954 93.2204H146.819V100.355H153.954V93.2204Z" fill="white"/>
<path d="M161.095 93.2204H153.96V100.355H161.095V93.2204Z" fill="white"/>
<path d="M168.23 93.2204H161.095V100.355H168.23V93.2204Z" fill="white"/>
<path d="M175.365 93.2204H168.23V100.355H175.365V93.2204Z" fill="white"/>
<path d="M182.5 93.2204H175.365V100.355H182.5V93.2204Z" fill="white"/>
<path d="M189.635 93.2204H182.5V100.355H189.635V93.2204Z" fill="white"/>
<path d="M196.776 93.2204H189.641V100.355H196.776V93.2204Z" fill="white"/>
<path d="M203.911 93.2204H196.776V100.355H203.911V93.2204Z" fill="white"/>
<path d="M211.045 93.2204H203.91V100.355H211.045V93.2204Z" fill="white"/>
<path d="M218.18 93.2204H211.045V100.355H218.18V93.2204Z" fill="white"/>
<path d="M225.315 93.2204H218.18V100.355H225.315V93.2204Z" fill="white"/>
<path d="M232.45 93.2204H225.315V100.355H232.45V93.2204Z" fill="white"/>
<path d="M239.591 93.2204H232.456V100.355H239.591V93.2204Z" fill="black"/>
<path d="M246.726 93.2204H239.591V100.355H246.726V93.2204Z" fill="black"/>
<path d="M253.861 100.355H246.726V107.49H253.861V100.355Z" fill="black"/>
<path d="M260.996 107.496H253.861V114.631H260.996V107.496Z" fill="black"/>
<path d="M268.131 114.631H260.996V121.766H268.131V114.631Z" fill="black"/>
<path d="M132.549 86.0854H125.414V93.2204H132.549V86.0854Z" fill="#C6CACD"/>
<path d="M139.684 78.9505H132.549V86.0855H139.684V78.9505Z" fill="#C6CACD"/>
<path d="M146.819 78.9505H139.684V86.0855H146.819V78.9505Z" fill="#C6CACD"/>
<path d="M161.095 78.9505H153.96V86.0855H161.095V78.9505Z" fill="#DD4017"/>
<path d="M168.23 78.9505H161.095V86.0855H168.23V78.9505Z" fill="#DD4017"/>
<path d="M175.365 78.9505H168.23V86.0855H175.365V78.9505Z" fill="#DD4017"/>
<path d="M182.5 78.9505H175.365V86.0855H182.5V78.9505Z" fill="#DD4017"/>
<path d="M189.635 78.9505H182.5V86.0855H189.635V78.9505Z" fill="#DD4017"/>
<path d="M196.776 78.9505H189.641V86.0855H196.776V78.9505Z" fill="#DD4017"/>
<path d="M203.911 78.9505H196.776V86.0855H203.911V78.9505Z" fill="#DD4017"/>
<path d="M218.18 78.9505H211.045V86.0855H218.18V78.9505Z" fill="#C6CACD"/>
<path d="M225.315 78.9505H218.18V86.0855H225.315V78.9505Z" fill="#C6CACD"/>
<path d="M232.45 78.9505H225.315V86.0855H232.45V78.9505Z" fill="#C6CACD"/>
<path d="M239.591 86.0854H232.456V93.2204H239.591V86.0854Z" fill="#C6CACD"/>
<path d="M246.726 86.0854H239.591V93.2204H246.726V86.0854Z" fill="#C6CACD"/>
<path d="M253.861 93.2204H246.726V100.355H253.861V93.2204Z" fill="#C6CACD"/>
<path d="M260.996 100.355H253.861V107.49H260.996V100.355Z" fill="#C6CACD"/>
<path d="M268.131 107.496H260.996V114.631H268.131V107.496Z" fill="#C6CACD"/>
<path d="M275.272 114.631H268.137V121.766H275.272V114.631Z" fill="#C6CACD"/>
<path d="M282.407 121.766H275.272V128.901H282.407V121.766Z" fill="#C6CACD"/>
<path d="M282.407 128.901H275.272V136.036H282.407V128.901Z" fill="#C6CACD"/>
<path d="M282.407 136.036H275.272V143.171H282.407V136.036Z" fill="#C6CACD"/>
<path d="M282.407 143.171H275.272V150.306H282.407V143.171Z" fill="#C6CACD"/>
<path d="M282.407 150.312H275.272V157.447H282.407V150.312Z" fill="#C6CACD"/>
<path d="M282.407 157.447H275.272V164.582H282.407V157.447Z" fill="#C6CACD"/>
<path d="M289.432 128.901H282.297V136.036H289.432V128.901Z" fill="#C6CACD"/>
<path d="M289.432 136.036H282.297V143.171H289.432V136.036Z" fill="#C6CACD"/>
<path d="M289.432 143.171H282.297V150.306H289.432V143.171Z" fill="#C6CACD"/>
<path d="M289.432 150.312H282.297V157.447H289.432V150.312Z" fill="#C6CACD"/>
<path d="M289.432 157.447H282.297V164.582H289.432V157.447Z" fill="#C6CACD"/>
<path d="M282.407 164.582H275.272V171.717H282.407V164.582Z" fill="#C6CACD"/>
<path d="M275.272 121.766H268.137V128.901H275.272V121.766Z" fill="black"/>
<path d="M132.549 136.036H125.414V143.171H132.549V136.036Z" fill="black"/>
<path d="M132.549 143.171H125.414V150.306H132.549V143.171Z" fill="black"/>
<path d="M132.549 150.312H125.414V157.447H132.549V150.312Z" fill="black"/>
<path d="M139.684 150.312H132.549V157.447H139.684V150.312Z" fill="white"/>
<path d="M146.819 157.447H139.684V164.582H146.819V157.447Z" fill="white"/>
<path d="M153.954 157.447H146.819V164.582H153.954V157.447Z" fill="white"/>
<path d="M161.095 157.447H153.96V164.582H161.095V157.447Z" fill="white"/>
<path d="M168.23 157.447H161.095V164.582H168.23V157.447Z" fill="white"/>
<path d="M175.365 157.447H168.23V164.582H175.365V157.447Z" fill="white"/>
<path d="M182.5 157.447H175.365V164.582H182.5V157.447Z" fill="white"/>
<path d="M189.635 157.447H182.5V164.582H189.635V157.447Z" fill="white"/>
<path d="M196.776 157.447H189.641V164.582H196.776V157.447Z" fill="white"/>
<path d="M203.911 157.447H196.776V164.582H203.911V157.447Z" fill="white"/>
<path d="M211.045 157.447H203.91V164.582H211.045V157.447Z" fill="white"/>
<path d="M218.18 157.447H211.045V164.582H218.18V157.447Z" fill="white"/>
<path d="M225.315 157.447H218.18V164.582H225.315V157.447Z" fill="white"/>
<path d="M232.45 157.447H225.315V164.582H232.45V157.447Z" fill="white"/>
<path d="M239.591 157.447H232.456V164.582H239.591V157.447Z" fill="white"/>
<path d="M239.591 164.582H232.456V171.717H239.591V164.582Z" fill="white"/>
<path d="M239.591 171.717H232.456V178.852H239.591V171.717Z" fill="white"/>
<path d="M239.591 178.852H232.456V185.986H239.591V178.852Z" fill="white"/>
<path d="M246.726 178.852H239.591V185.986H246.726V178.852Z" fill="white"/>
<path d="M253.861 178.852H246.726V185.986H253.861V178.852Z" fill="white"/>
<path d="M239.591 185.992H232.456V193.127H239.591V185.992Z" fill="white"/>
<path d="M232.45 185.992H225.315V193.127H232.45V185.992Z" fill="white"/>
<path d="M225.315 185.992H218.18V193.127H225.315V185.992Z" fill="white"/>
<path d="M218.18 185.992H211.045V193.127H218.18V185.992Z" fill="white"/>
<path d="M211.045 185.992H203.91V193.127H211.045V185.992Z" fill="white"/>
<path d="M203.911 185.992H196.776V193.127H203.911V185.992Z" fill="white"/>
<path d="M196.776 185.992H189.641V193.127H196.776V185.992Z" fill="white"/>
<path d="M189.635 185.992H182.5V193.127H189.635V185.992Z" fill="white"/>
<path d="M182.5 185.992H175.365V193.127H182.5V185.992Z" fill="white"/>
<path d="M175.365 185.992H168.23V193.127H175.365V185.992Z" fill="white"/>
<path d="M168.23 185.992H161.095V193.127H168.23V185.992Z" fill="white"/>
<path d="M161.095 185.992H153.96V193.127H161.095V185.992Z" fill="white"/>
<path d="M161.095 178.852H153.96V185.986H161.095V178.852Z" fill="white"/>
<path d="M153.954 178.852H146.819V185.986H153.954V178.852Z" fill="white"/>
<path d="M146.819 178.852H139.684V185.986H146.819V178.852Z" fill="white"/>
<path d="M146.819 171.717H139.684V178.852H146.819V171.717Z" fill="white"/>
<path d="M139.684 171.717H132.549V178.852H139.684V171.717Z" fill="white"/>
<path d="M146.819 164.582H139.684V171.717H146.819V164.582Z" fill="white"/>
<path d="M161.095 171.717H153.96V178.852H161.095V171.717Z" fill="white"/>
<path d="M161.095 164.582H153.96V171.717H161.095V164.582Z" fill="white"/>
<path d="M246.726 157.447H239.591V164.582H246.726V157.447Z" fill="white"/>
<path d="M253.861 157.447H246.726V164.582H253.861V157.447Z" fill="white"/>
<path d="M260.996 157.447H253.861V164.582H260.996V157.447Z" fill="white"/>
<path d="M268.131 150.312H260.996V157.447H268.131V150.312Z" fill="white"/>
<path d="M260.996 164.582H253.861V171.717H260.996V164.582Z" fill="white"/>
<path d="M132.549 157.447H125.414V164.582H132.549V157.447Z" fill="black"/>
<path d="M125.414 128.901H118.28V136.036H125.414V128.901Z" fill="#C6CACD"/>
<path d="M125.414 121.766H118.28V128.901H125.414V121.766Z" fill="#C6CACD"/>
<path d="M125.414 114.631H118.28V121.766H125.414V114.631Z" fill="#C6CACD"/>
<path d="M125.414 107.496H118.28V114.631H125.414V107.496Z" fill="#C6CACD"/>
<path d="M125.414 100.355H118.28V107.49H125.414V100.355Z" fill="#C6CACD"/>
<path d="M125.414 93.2204H118.28V100.355H125.414V93.2204Z" fill="#C6CACD"/>
<path d="M125.414 136.036H118.28V143.171H125.414V136.036Z" fill="#C6CACD"/>
<path d="M125.414 143.171H118.28V150.306H125.414V143.171Z" fill="#C6CACD"/>
<path d="M125.414 150.312H118.28V157.447H125.414V150.312Z" fill="#C6CACD"/>
<path d="M125.414 157.447H118.28V164.582H125.414V157.447Z" fill="#C6CACD"/>
<path d="M132.549 164.582H125.414V171.717H132.549V164.582Z" fill="black"/>
<path d="M132.549 171.717H125.414V178.852H132.549V171.717Z" fill="black"/>
<path d="M146.819 185.992H139.684V193.127H146.819V185.992Z" fill="black"/>
<path d="M139.684 178.852H132.549V185.986H139.684V178.852Z" fill="black"/>
<path d="M153.954 185.992H146.819V193.127H153.954V185.992Z" fill="black"/>
<path d="M161.095 193.127H153.96V200.262H161.095V193.127Z" fill="black"/>
<path d="M168.23 193.127H161.095V200.262H168.23V193.127Z" fill="black"/>
<path d="M175.365 193.127H168.23V200.262H175.365V193.127Z" fill="black"/>
<path d="M182.5 193.127H175.365V200.262H182.5V193.127Z" fill="black"/>
<path d="M189.635 193.127H182.5V200.262H189.635V193.127Z" fill="black"/>
<path d="M196.776 193.127H189.641V200.262H196.776V193.127Z" fill="black"/>
<path d="M203.911 193.127H196.776V200.262H203.911V193.127Z" fill="black"/>
<path d="M211.045 193.127H203.91V200.262H211.045V193.127Z" fill="black"/>
<path d="M189.635 171.717H182.5V178.852H189.635V171.717Z" fill="black"/>
<path d="M196.776 171.717H189.641V178.852H196.776V171.717Z" fill="black"/>
<path d="M203.911 171.717H196.776V178.852H203.911V171.717Z" fill="black"/>
<path d="M211.045 171.717H203.91V178.852H211.045V171.717Z" fill="black"/>
<path d="M218.18 171.717H211.045V178.852H218.18V171.717Z" fill="black"/>
<path d="M218.18 193.127H211.045V200.262H218.18V193.127Z" fill="black"/>
<path d="M225.315 193.127H218.18V200.262H225.315V193.127Z" fill="black"/>
<path d="M232.45 193.127H225.315V200.262H232.45V193.127Z" fill="black"/>
<path d="M239.591 193.127H232.456V200.262H239.591V193.127Z" fill="black"/>
<path d="M246.726 185.992H239.591V193.127H246.726V185.992Z" fill="black"/>
<path d="M253.861 185.992H246.726V193.127H253.861V185.992Z" fill="black"/>
<path d="M260.996 178.852H253.861V185.986H260.996V178.852Z" fill="black"/>
<path d="M260.996 171.717H253.861V178.852H260.996V171.717Z" fill="white"/>
<path d="M268.131 171.717H260.996V178.852H268.131V171.717Z" fill="white"/>
<path d="M268.131 164.582H260.996V171.717H268.131V164.582Z" fill="white"/>
<path d="M275.272 164.582H268.137V171.717H275.272V164.582Z" fill="black"/>
<path d="M125.414 93.2204H118.28V100.355H125.414V93.2204Z" fill="black"/>
<path d="M132.549 86.0854H125.414V93.2204H132.549V86.0854Z" fill="black"/>
<path d="M118.389 214.532H125.524V207.397H118.389V214.532Z" fill="#DD4017"/>
<path d="M111.249 221.673H118.384V214.538H111.249V221.673Z" fill="#DD4017"/>
<path d="M111.249 228.808H118.384V221.673H111.249V228.808Z" fill="#DD4017"/>
<path d="M104.119 235.937H111.254V228.802H104.119V235.937Z" fill="#DD4017"/>
<path d="M104.119 243.078H111.254V235.943H104.119V243.078Z" fill="#DD4017"/>
<path d="M96.9845 250.213H104.119V243.078H96.9845V250.213Z" fill="#DD4017"/>
<path d="M89.8438 357.254H96.9788V350.119H89.8438V357.254Z" fill="#DD4017"/>
<path d="M96.9845 350.114H104.119V342.979H96.9845V350.114Z" fill="#DD4017"/>
<path d="M75.5738 364.389H82.7087V357.254H75.5738V364.389Z" fill="#DD4017"/>
<path d="M68.439 364.389H75.574V357.254H68.439V364.389Z" fill="#DD4017"/>
<path d="M61.304 364.389H68.439V357.254H61.304V364.389Z" fill="#DD4017"/>
<path d="M54.1632 364.389H61.2981V357.254H54.1632V364.389Z" fill="#DD4017"/>
<path d="M54.1632 357.254H61.2981V350.119H54.1632V357.254Z" fill="#DD4017"/>
<path d="M82.7088 364.389H89.8438V357.254H82.7088V364.389Z" fill="#DD4017"/>
<path d="M261.002 193.121H268.137V185.986H261.002V193.121Z" fill="#DD4017"/>
<path d="M253.867 193.121H261.002V185.986H253.867V193.121Z" fill="#DD4017"/>
<path d="M246.726 200.262H253.861V193.127H246.726V200.262Z" fill="#DD4017"/>
<path d="M239.591 200.262H246.726V193.127H239.591V200.262Z" fill="#DD4017"/>
<path d="M232.45 207.397H239.585V200.262H232.45V207.397Z" fill="#DD4017"/>
<path d="M225.321 207.397H232.456V200.262H225.321V207.397Z" fill="#DD4017"/>
<path d="M246.726 228.808H253.861V221.673H246.726V228.808Z" fill="#DD4017"/>
<path d="M239.591 228.808H246.726V221.673H239.591V228.808Z" fill="#DD4017"/>
<path d="M232.45 228.808H239.585V221.673H232.45V228.808Z" fill="#DD4017"/>
<path d="M225.321 228.808H232.456V221.673H225.321V228.808Z" fill="#DD4017"/>
<path d="M218.186 207.397H225.321V200.262H218.186V207.397Z" fill="#DD4017"/>
<path d="M96.9845 200.262H104.119V193.127H96.9845V200.262Z" fill="#DD4017"/>
<path d="M104.119 200.262H111.254V193.127H104.119V200.262Z" fill="#DD4017"/>
<path d="M111.249 193.121H118.384V185.986H111.249V193.121Z" fill="#DD4017"/>
<path d="M104.01 143.2H111.145V136.065H104.01V143.2Z" fill="#FCC342"/>
<path d="M96.9786 143.2H104.114V136.065H96.9786V143.2Z" fill="#FCC342"/>
<path d="M175.365 207.397H203.91V200.262H175.365V207.397Z" fill="#E19A81"/>
<path d="M47.0283 335.844H39.8933V371.524H47.0283V378.659H82.7088V371.524H54.1632V364.389H47.0283V335.844Z" fill="#333333"/>
<path d="M61.298 328.709H54.1631V335.844H61.298V328.709Z" fill="white"/>
<path d="M96.9787 350.12H89.8438V357.254H96.9787V350.12Z" fill="white"/>
<path d="M19.2406 164.587H61.7784L61.8074 193.116H68.9192V214.521H61.7784L61.8074 221.661H33.3601L26.2714 221.673L19.1365 214.521L19.2406 164.587Z" fill="#8F95B8"/>
<path d="M76.0195 193.116H68.8845V200.251H76.0195V193.116Z" fill="black"/>
<path d="M76.0195 200.251H68.8845V207.386H76.0195V200.251Z" fill="black"/>
<path d="M76.0195 207.386H68.8845V214.521H76.0195V207.386Z" fill="black"/>
<path d="M68.9133 214.521H61.7783V221.656H68.9133V214.521Z" fill="black"/>
<path d="M61.8073 221.661H54.6724V228.796H61.8073V221.661Z" fill="black"/>
<path d="M54.736 221.661H47.6011V228.796H54.736V221.661Z" fill="black"/>
<path d="M47.8441 221.661H40.1421V228.796H47.8441V221.661Z" fill="black"/>
<path d="M68.9133 178.846H61.7783V185.981H68.9133V178.846Z" fill="black"/>
<path d="M68.9133 185.981H61.7783V193.116H68.9133V185.981Z" fill="black"/>
<path d="M61.8073 185.981H54.6724V193.116H61.8073V185.981Z" fill="black"/>
<path d="M54.736 193.116H47.6011V200.251H54.736V193.116Z" fill="black"/>
<path d="M61.8073 200.251H54.6724V207.386H61.8073V200.251Z" fill="black"/>
<path d="M68.9133 171.705H61.7783V178.84H68.9133V171.705Z" fill="black"/>
<path d="M68.9133 164.587H61.7783V171.722H68.9133V164.587Z" fill="black"/>
<path d="M54.736 178.846H47.6011V185.981H54.736V178.846Z" fill="black"/>
<path d="M61.8073 171.722H54.6724V178.857H61.8073V171.722Z" fill="black"/>
<path d="M33.4064 221.673H26.2715V228.808H33.4064V221.673Z" fill="black"/>
<path d="M26.2714 214.521H19.1365V221.656H26.2714V214.521Z" fill="black"/>
<path d="M26.2251 221.661H33.3601V214.526H26.2251V221.661Z" fill="#5C628E"/>
<path d="M33.3543 221.661H40.4893V214.526H33.3543V221.661Z" fill="#5C628E"/>
<path d="M54.6724 221.661H61.8074V214.526H54.6724V221.661Z" fill="#5C628E"/>
<path d="M54.6724 214.526H61.8074V207.391H54.6724V214.526Z" fill="#5C628E"/>
<path d="M47.6011 193.116H54.7361V185.981H47.6011V193.116Z" fill="#5C628E"/>
<path d="M54.6724 185.975H61.8074V178.84H54.6724V185.975Z" fill="#5C628E"/>
<path d="M40.4314 200.268H47.5664V193.133H40.4314V200.268Z" fill="#5C628E"/>
<path d="M47.6011 207.386H54.7361V200.251H47.6011V207.386Z" fill="#5C628E"/>
<path d="M61.7842 214.526H68.9192V207.391H61.7842V214.526Z" fill="#5C628E"/>
<path d="M19.1365 214.526H26.2715V207.391H19.1365V214.526Z" fill="#5C628E"/>
<path d="M19.1365 207.386H26.2715V200.251H19.1365V207.386Z" fill="#5C628E"/>
<path d="M40.495 221.661H33.3601V228.796H40.495V221.661Z" fill="black"/>
<path d="M19.2407 178.846H12.1057V185.981H19.2407V178.846Z" fill="black"/>
<path d="M19.2407 185.981H12.1057V193.116H19.2407V185.981Z" fill="black"/>
<path d="M19.2407 193.116H12.1057V200.251H19.2407V193.116Z" fill="black"/>
<path d="M19.2407 200.251H12.1057V207.386H19.2407V200.251Z" fill="black"/>
<path d="M19.2407 207.386H12.1057V214.521H19.2407V207.386Z" fill="black"/>
<path d="M19.2407 171.705H12.1057V178.84H19.2407V171.705Z" fill="black"/>
<path d="M19.2407 164.587H12.1057V171.722H19.2407V164.587Z" fill="black"/>
<path d="M61.8073 157.476H54.6724V164.611H61.8073V157.476Z" fill="black"/>
<path d="M54.736 157.476H47.6011V164.611H54.736V157.476Z" fill="black"/>
<path d="M47.6301 164.587H40.4951V171.722H47.6301V164.587Z" fill="black"/>
<path d="M47.6301 171.722H40.4951V178.857H47.6301V171.722Z" fill="black"/>
<path d="M40.495 178.857H33.3601V185.992H40.495V178.857Z" fill="black"/>
<path d="M47.6301 157.476H40.4951V164.611H47.6301V157.476Z" fill="black"/>
<path d="M40.495 157.476H33.3601V164.611H40.495V157.476Z" fill="black"/>
<path d="M33.4064 164.587H26.2715V171.722H33.4064V164.587Z" fill="black"/>
<path d="M33.4064 171.722H26.2715V178.857H33.4064V171.722Z" fill="black"/>
<path d="M26.2714 178.857H19.1365V185.992H26.2714V178.857Z" fill="black"/>
<path d="M33.4064 157.476H26.2715V164.611H33.4064V157.476Z" fill="black"/>
<path d="M26.2714 157.476H19.1365V164.611H26.2714V157.476Z" fill="black"/>
<path d="M76.0541 214.521H68.9192V221.656H76.0541V214.521Z" fill="black"/>
<g clip-path="url(#clip1_22_969)">
<path d="M358.736 179.199H1158.2V270.067H1140.2V287.352H349.796V245.37H385.806V221.182H358.736V179.199Z" fill="black"/>
<path d="M416.151 208.833V275.009H362.144V257.718H398.149V208.833H416.151ZM371.085 208.833V191.565H398.149V208.85L371.085 208.833Z" fill="white"/>
<path d="M491.152 191.565V275.009H446.201V257.718H428.211V191.565H446.219V257.736H473.162V191.565H491.152Z" fill="white"/>
<path d="M522.389 208.833V257.718H547.19V241.979H533.719V224.549H565.193V274.986H522.371V258.413H504.386V191.565H565.193V208.85L522.389 208.833Z" fill="white"/>
<path d="M595.839 208.833V257.718H620.641V241.979H607.163V224.549H638.643V274.986H595.822V258.413H577.831V191.565H638.643V208.85L595.839 208.833Z" fill="white"/>
<path d="M669.167 208.833V223.392H690.989V240.683H669.167V257.73H703.887V275.021H667.617V257.73H651.165V191.565H703.864V208.85L669.167 208.833Z" fill="white"/>
<path d="M759.665 234.826V252.233H732.717V275.009H714.714V191.565H759.665V208.85H732.717V234.844L759.665 234.826ZM759.665 234.826V208.833H777.668V234.826H759.665ZM759.665 275.009V252.233H777.668V275.009H759.665Z" fill="white"/>
<path d="M836.449 208.833H808.314V275.009H790.306V191.565H836.449V208.833ZM836.449 275.009V208.833H854.457V275.009H836.449Z" fill="white"/>
<path d="M929.215 208.833V275.009H911.212V252.233H885.693V275.009H867.691V191.565H911.212V208.85H885.693V234.844H911.212V208.85L929.215 208.833Z" fill="white"/>
<path d="M1004.21 191.565V275.009H959.259V257.718H941.257V191.565H959.259V257.736H986.207V191.565H1004.21Z" fill="white"/>
<path d="M1076.47 191.565V208.85H1053.45V275.009H1035.45V208.833H1012.31V191.565H1076.47Z" fill="white"/>
<path d="M1145.86 223.259V257.718H1127.85V275.009H1082.9V257.718H1127.85V240.549H1082.9V208.833H1100.91V191.565H1145.86V208.85H1100.91V223.276L1145.86 223.259Z" fill="white"/>
</g>
</g>
<defs>
<clipPath id="clip0_22_969">
<rect width="1158" height="393" fill="white"/>
</clipPath>
<clipPath id="clip1_22_969">
<rect width="808" height="464" fill="white" transform="translate(350 -177)"/>
</clipPath>
</defs>
</svg>
