<svg width="163" height="50" viewBox="0 0 163 50" fill="none" xmlns="http://www.w3.org/2000/svg">
<path d="M138.867 29.7021H134.543H63.8418H63.7309L63.6531 29.7812L59.2524 34.1783L59.1733 34.2574V34.3682V49.7335V50.0001H59.4399H59.513H134.654H134.765L134.844 49.921L139.244 45.5203L139.321 45.4425V45.3328V29.7021H138.867Z" fill="black"/>
<path d="M71.7125 23.1264L69.7298 26.1282H59.4517V22.6428H66.4732L66.8294 22.0825V20.0986L66.4732 19.5148H61.1572L59.1733 16.513V8.83091L61.1572 5.8291H69.6272V9.31333H64.4126L64.0317 9.87476V14.0702L64.4126 14.6564H69.7298L71.7125 17.6582V23.1264Z" fill="black"/>
<path d="M106.758 26.1282H101.873V14.2483L97.8808 26.1282H97.1189L93.098 14.2483V26.1282H89.6138V5.8291H94.6762L98.1863 14.0702L101.721 5.8291H106.758V26.1282Z" fill="black"/>
<path d="M122.582 23.1016L120.598 26.1282H111.34L109.356 23.1016V5.8291H114.214V22.0825L114.595 22.6428H117.342L117.724 22.0825V5.8291H122.582V23.1016Z" fill="black"/>
<path d="M139.616 26.1282H134.095L130.279 17.5556H130.05V26.1282H125.193V5.8291H136.306L138.29 8.83209L138.265 14.529L136.306 17.5556H135.924L139.615 26.1282H139.616ZM133.406 9.87476L133.05 9.31451H130.051V14.0714H133.027L133.408 13.4876L133.405 9.87476H133.406Z" fill="black"/>
<path d="M86.9481 8.83209L84.9642 5.8291H75.8325L73.8486 8.83209V9.08332V26.1282H78.7058V17.5556H82.0626V26.1282H86.9469V9.30743V8.83209H86.9481ZM81.7076 9.31333L82.0638 9.87358V14.0702H78.7341V9.87358L79.0903 9.31333H81.7088H81.7076Z" fill="black"/>
<path d="M154.479 8.83209L152.495 5.8291H143.357L141.373 8.83209V9.08332V26.1282H146.23V17.5556H149.587V26.1282H154.472V9.30743L154.479 8.83209ZM149.231 9.31333L149.587 9.87358V14.0702H146.262V9.87358L146.619 9.31333H149.232H149.231Z" fill="black"/>
<path d="M162.361 23.137V5.8291H157.502V26.1282H160.383L162.361 23.137Z" fill="black"/>
<path d="M17.9983 36.5642L18.075 36.438C18.075 36.4651 18.0325 36.5064 17.9983 36.5642Z" fill="#FF284C"/>
<path d="M18.0867 36.4149C18.0891 36.4089 18.0891 36.4017 18.0867 36.3958V36.4149Z" fill="#FF284C"/>
<path d="M33.3505 36.728L33.3472 36.7246L33.3505 36.728Z" fill="#FF284C"/>
<path d="M33.2891 36.6324C33.2762 36.6089 33.2621 36.5854 33.2468 36.5642L33.2891 36.6324Z" fill="#FF284C"/>
<path d="M33.3351 36.6937C33.3257 36.6749 33.3139 36.6573 33.301 36.6409L33.3351 36.6937Z" fill="#FF284C"/>
<path d="M25.6228 17.9199C22.9677 17.9199 21.7151 15.2566 21.7151 15.2566C22.1751 15.4701 22.6752 15.5834 23.1824 15.5904C23.8217 15.5374 24.1637 14.4404 25.6228 14.4404C27.0818 14.4404 27.4203 15.5362 28.0596 15.5904C28.5668 15.5845 29.0669 15.4713 29.5269 15.2566C29.5269 15.2566 28.2778 17.9199 25.6228 17.9199Z" fill="#FF284C"/>
<path d="M43.5544 29.997L43.9377 27.4564C43.9802 27.1485 44.1229 26.8631 44.3434 26.6437L46.3203 24.7046C46.3203 24.7046 47.0869 23.9993 46.6541 22.4553L42.0564 26.3783C41.863 26.5446 41.7415 26.7793 41.7155 27.0329L41.1482 32.4775L42.8537 31.1906C43.2288 30.904 43.4753 30.4818 43.5437 30.0147" fill="black"/>
<path d="M50.8685 39.4257L46.3852 31.9961C46.3852 31.9961 45.6186 33.1992 45.6186 33.5283C45.6186 33.796 45.0359 38.7546 45.0324 40.6088C45.0324 41.2115 44.7481 41.78 44.2657 42.1409L44.005 42.3367C43.3988 42.7932 43.0284 43.495 42.993 44.2522L42.8208 48.5703L50.0428 43.2402C51.2388 42.3509 51.5915 40.7114 50.8661 39.4092" fill="black"/>
<path d="M1.20118 43.258L8.41968 48.5728L8.23568 44.263C8.20265 43.5045 7.83111 42.8016 7.22368 42.3475L6.96301 42.1517C6.48059 41.7896 6.19634 41.2222 6.19634 40.6195C6.19634 38.7653 5.60659 33.8032 5.61013 33.539C5.61013 33.1899 4.84346 32.0068 4.84346 32.0068L0.375536 39.4282C-0.349853 40.7316 0.00281573 42.3699 1.19882 43.2592" fill="black"/>
<path d="M9.52256 27.0354C9.49661 26.7818 9.37512 26.5471 9.18168 26.3808L4.60289 22.4578C4.18181 23.9899 4.94022 24.7071 4.94022 24.7071L6.91352 26.6461C7.13644 26.8644 7.28034 27.1498 7.32398 27.4588L7.70731 29.9994C7.77101 30.4665 8.0187 30.89 8.3926 31.1754L10.0828 32.4823L9.52373 27.0377L9.52256 27.0354Z" fill="black"/>
<path d="M36.0906 38.1353L38.2668 35.8978L39.4168 24.813C39.4238 24.7351 39.3672 24.6655 39.2894 24.6584C39.2304 24.6525 39.175 24.6844 39.1478 24.7363L37.9636 27.4645C37.7006 28.0743 37.3291 28.631 36.8679 29.1087L35.9903 30.0169L34.3202 29.032L34.3544 29.0049C35.0904 28.3656 35.791 27.0894 36.0552 26.5527C36.0882 26.4961 36.0694 26.423 36.0127 26.3899C35.988 26.3746 35.9573 26.3699 35.929 26.3758C35.1623 26.5598 33.5264 26.6978 33.1631 26.8889C32.7986 27.0799 30.2969 29.2219 29.6458 29.8541C29.5975 29.8978 29.5928 29.9732 29.6364 30.0216C29.6612 30.0487 29.6966 30.0641 29.7331 30.0605C30.35 30.011 31.7099 29.8919 32.6948 29.7421L33.5535 30.9487L31.638 32.5162L32.4695 33.9717C32.4695 33.9717 31.0247 34.0177 30.7227 33.8797C30.4208 33.7417 26.7997 31.1327 26.7997 31.1327V32.5162C26.1876 33.1638 25.1673 33.1921 24.5198 32.5811C24.4973 32.5599 24.4761 32.5386 24.4549 32.5162V31.1374C24.4549 31.1374 20.8268 33.7464 20.5272 33.8844C20.2276 34.0224 18.7839 33.9764 18.7839 33.9764L19.6119 32.5209L17.6964 30.9534L18.5091 29.735H18.5551C19.5553 29.8919 21.2714 30.011 22.0263 30.057C22.0912 30.0629 22.149 30.0145 22.156 29.9496C22.1596 29.9084 22.1419 29.8671 22.1077 29.8423C21.3104 29.2066 18.4489 27.0717 18.0927 26.8841C17.7365 26.6966 16.097 26.5551 15.3268 26.3711C15.2595 26.3593 15.197 26.4041 15.1852 26.4713C15.1805 26.4973 15.1852 26.5244 15.197 26.548C15.4648 27.0729 16.1666 28.3609 16.8979 29.0002L16.9934 29.0733L15.2654 30.0086L14.3844 29.1004C13.9232 28.6239 13.5516 28.066 13.2886 27.4562L12.1044 24.728C12.0702 24.6573 11.9853 24.629 11.9145 24.6632C11.8614 24.6891 11.8308 24.7457 11.8367 24.8047L12.9017 35.1111C12.9548 35.6124 13.173 36.0818 13.5222 36.4439L15.1581 38.1259C15.3751 38.3488 15.4954 38.6472 15.4954 38.9574V40.4483L13.219 39.375L13.4184 41.1265C13.4679 41.5889 13.6307 42.0312 13.8937 42.4134C16.3128 45.8657 19.7947 48.4323 23.8097 49.7203C24.9904 50.0919 26.2571 50.0919 27.4378 49.7203C31.4552 48.4252 34.9394 45.8504 37.3574 42.3909C37.618 42.0064 37.7808 41.5653 37.8327 41.1041L38.0285 39.3526L35.7568 40.4412V38.9504C35.7568 38.6402 35.8771 38.3417 36.0941 38.1188M19.1047 42.9465C18.9997 43.0125 18.8794 43.0503 18.7556 43.0538C18.0432 43.0538 17.4227 41.6479 17.4227 41.6479V37.8699C17.4227 37.7697 17.4452 37.6694 17.4876 37.5786L17.8981 36.7129C17.9606 36.5548 18.1116 36.4498 18.2814 36.4451C18.7508 36.451 19.1271 36.8379 19.12 37.3073L19.1047 42.9477V42.9465ZM28.1821 45.3255C28.1821 45.3255 26.9943 47.4793 25.6261 47.4793C24.2579 47.4793 23.0666 45.3255 23.0666 45.3255V39.5672C23.0666 39.4104 23.1091 39.257 23.1893 39.1226L23.956 37.7968C24.1046 37.5468 24.3735 37.3923 24.6648 37.3911H26.5461C26.8375 37.3911 27.1076 37.5456 27.255 37.7968L28.0441 39.1226C28.1219 39.2582 28.162 39.4115 28.1632 39.5672L28.1821 45.3255ZM33.826 41.6467C33.826 41.6467 33.2055 43.0526 32.4931 43.0526C32.3693 43.0479 32.249 43.0114 32.144 42.9453V37.3203C32.1381 36.8509 32.5132 36.4652 32.9826 36.4581C33.1525 36.4628 33.3034 36.569 33.366 36.7258L33.78 37.5916C33.8189 37.6836 33.8401 37.7827 33.8413 37.8829L33.826 41.6455V41.6467Z" fill="black"/>
<path d="M28.2327 9.80041C28.2256 9.77211 28.2174 9.7438 28.2056 9.71667L28.1018 9.33333L25.6225 0L23.3885 8.39917L23.1054 9.47251L23.037 9.72964C23.0064 9.80749 22.9875 9.89123 22.984 9.97498C22.9733 10.1413 23.0182 10.3076 23.1102 10.4468C23.1562 10.5175 23.2151 10.5801 23.2824 10.6308L23.7848 11.0141L25.6237 8.62328L27.4625 11.0141L27.965 10.6308C27.9992 10.6072 28.0298 10.5789 28.057 10.547C28.0853 10.5164 28.1112 10.4833 28.1336 10.448C28.2256 10.3088 28.2704 10.1436 28.2598 9.97616C28.2586 9.9219 28.2492 9.86764 28.2327 9.81575" fill="black"/>
<path d="M25.6228 17.9199C28.2778 17.9199 29.5269 15.2566 29.5269 15.2566C29.0669 15.4713 28.5668 15.5845 28.0596 15.5904C27.4203 15.5374 27.0782 14.4404 25.6228 14.4404C24.1673 14.4404 23.8217 15.5362 23.1859 15.5904C22.6776 15.5845 22.1763 15.4713 21.7151 15.2566C21.7151 15.2566 22.9677 17.9199 25.6228 17.9199Z" fill="black"/>
<path d="M41.6235 8.42529L40.654 12.3141C40.5408 12.7564 40.2683 13.1421 39.8873 13.3945L28.5076 21.2334V24.5973L27.7409 25.1257L26.5909 24.2057C26.4824 24.1173 26.3467 24.0701 26.2076 24.0713H25.008C24.8688 24.0713 24.7332 24.1185 24.6247 24.2057L23.4747 25.1257L22.708 24.5973V21.2334L11.3318 13.3945C10.952 13.1409 10.6795 12.7564 10.5651 12.3141L9.59557 8.42529H1.89819L4.19703 12.5063C4.93421 13.812 5.98868 14.9113 7.26253 15.7016L19.9067 23.4756V25.2685L23.9264 28.5368C24.1434 28.7114 24.4135 28.8058 24.6931 28.8046H26.513C26.7914 28.8046 27.0627 28.7114 27.2797 28.5368L31.2994 25.2685V23.4756L43.9436 15.7016C45.2175 14.9113 46.2719 13.812 47.0091 12.5063L49.3079 8.42529H41.6259H41.6235Z" fill="black"/>
<path d="M72.4544 35.7221L70.737 37.233C70.1343 36.3956 69.5186 35.9769 68.8911 35.9757C68.621 35.9639 68.3568 36.05 68.1457 36.2187C67.9699 36.3484 67.8626 36.5513 67.8555 36.7695C67.8579 36.9806 67.931 37.1847 68.0619 37.3498C68.2495 37.5916 68.8168 38.1129 69.7628 38.9138C70.6462 39.6522 71.1829 40.1181 71.3728 40.3115C71.7856 40.7031 72.1265 41.1643 72.3801 41.6726C72.5794 42.1197 72.6797 42.6033 72.6738 43.0927C72.7021 44.0293 72.327 44.9316 71.6429 45.572C70.9541 46.2231 70.0529 46.5487 68.9418 46.5487C68.1398 46.5664 67.3495 46.3446 66.6737 45.9106C66.0297 45.4859 65.4788 44.8183 65.02 43.9066L66.9685 42.7318C67.5548 43.8075 68.2259 44.3454 68.9831 44.3465C69.3499 44.3583 69.7085 44.2345 69.9904 43.9986C70.2416 43.8063 70.3903 43.5103 70.3962 43.1942C70.3867 42.8922 70.2782 42.6021 70.0895 42.3662C69.8843 42.0914 69.4349 41.6691 68.7378 41.1006C67.4109 40.0178 66.5534 39.1827 66.1665 38.5965C65.8032 38.0799 65.6027 37.4677 65.5874 36.8379C65.5779 36.0052 65.9294 35.209 66.5522 34.6558C67.1962 34.0519 68.0513 33.7264 68.9336 33.75C69.5387 33.75 70.1343 33.8939 70.671 34.1734C71.2183 34.4541 71.8127 34.9696 72.4532 35.7209L72.4544 35.7221Z" fill="white"/>
<path d="M74.5269 34.0674H81.2559V36.3521H79.0384V46.2433H76.6889V36.3521H74.5269V34.0674Z" fill="white"/>
<path d="M87.408 34.0674H89.7575L94.4401 46.2433H92.0316L91.0786 43.7357H86.1105L85.1198 46.2433H82.7195L87.408 34.0674ZM88.5981 37.2957L86.9645 41.4758H90.2222L88.5969 37.2957H88.5981Z" fill="white"/>
<path d="M97.239 34.0674H99.6947C101.037 34.0674 101.996 34.1877 102.568 34.4271C103.142 34.6701 103.624 35.09 103.944 35.6243C104.303 36.22 104.483 36.9064 104.467 37.6011C104.494 38.3171 104.292 39.0224 103.891 39.6157C103.454 40.1925 102.848 40.6195 102.158 40.8377L105.045 46.2445H102.513L99.7749 41.0877H99.5614V46.2445H97.2402V34.0686L97.239 34.0674ZM99.5567 38.8255H100.283C101.02 38.8255 101.528 38.7299 101.806 38.5353C102.084 38.3407 102.222 38.0199 102.222 37.5717C102.228 37.3251 102.156 37.0822 102.016 36.8781C101.88 36.6835 101.687 36.5361 101.464 36.4547C101.233 36.3686 100.809 36.3249 100.194 36.3249H99.5579V38.8243L99.5567 38.8255Z" fill="white"/>
<path d="M106.563 34.0674H113.294V36.3521H111.076V46.2433H108.726V36.3521H106.565V34.0674H106.563Z" fill="white"/>
<path d="M115.738 34.0674H122.387V36.3356H118.042V38.5377H122.387V40.7634H118.042V43.9681H122.387V46.2445H115.738V34.0686V34.0674Z" fill="white"/>
<path d="M125.553 34.0674H128.008C129.351 34.0674 130.308 34.1877 130.88 34.4271C131.455 34.6701 131.936 35.0888 132.257 35.6243C132.616 36.22 132.796 36.9064 132.779 37.6011C132.808 38.3171 132.606 39.0224 132.204 39.6157C131.822 40.1536 131.244 40.5617 130.47 40.8377L133.355 46.2504H130.82L128.083 41.0936H127.873V46.2504H125.556L125.553 34.0674ZM127.873 38.8255H128.599C129.337 38.8255 129.845 38.7299 130.122 38.5353C130.399 38.3407 130.538 38.0199 130.538 37.5717C130.544 37.3251 130.472 37.0822 130.332 36.8781C130.196 36.6835 130.003 36.5349 129.78 36.4547C129.549 36.3686 129.125 36.3249 128.51 36.3249H127.874V38.8243L127.873 38.8255Z" fill="white"/>
</svg>
