<svg width="326" height="185" viewBox="0 0 326 185" fill="none" xmlns="http://www.w3.org/2000/svg">
<g clip-path="url(#clip0_31_7949)">
<path d="M168.188 84.0964V67.2706H151.362V50.4541H134.546V33.6376H117.729V16.8211H100.908V0H0V16.8211H16.8211V33.6376H33.6376V50.4541H50.4541V67.2799H67.2753V84.0964H84.0918V100.913H67.2753V117.729H50.4541V134.546H33.6376V151.367H16.8211V168.183H0V185H100.908V168.183H117.729V151.367H134.546V134.546H151.362V117.729H168.188V100.913H185V84.0964H168.188ZM151.362 100.913H134.546V117.729H117.729V134.546H100.908V151.367H84.0918V168.183H50.4541V151.367H67.2753V134.546H84.0918V117.729H100.908V100.913H117.729V84.0964H100.908V67.2706H84.0918V50.4541H67.2753V33.6376H50.4541V16.8211H84.0918V33.6376H100.908V50.4541H117.729V67.2799H134.546V84.0964H151.362V100.913Z" fill="white"/>
</g>
<g clip-path="url(#clip1_31_7949)">
<path d="M309.188 84.0964V67.2706H292.362V50.4541H275.546V33.6376H258.729V16.8211H241.908V0H141V16.8211H157.821V33.6376H174.638V50.4541H191.454V67.2799H208.275V84.0964H225.092V100.913H208.275V117.729H191.454V134.546H174.638V151.367H157.821V168.183H141V185H241.908V168.183H258.729V151.367H275.546V134.546H292.362V117.729H309.188V100.913H326V84.0964H309.188ZM292.362 100.913H275.546V117.729H258.729V134.546H241.908V151.367H225.092V168.183H191.454V151.367H208.275V134.546H225.092V117.729H241.908V100.913H258.729V84.0964H241.908V67.2706H225.092V50.4541H208.275V33.6376H191.454V16.8211H225.092V33.6376H241.908V50.4541H258.729V67.2799H275.546V84.0964H292.362V100.913Z" fill="white"/>
</g>
<defs>
<clipPath id="clip0_31_7949">
<rect width="185" height="185" fill="white"/>
</clipPath>
<clipPath id="clip1_31_7949">
<rect width="185" height="185" fill="white" transform="translate(141)"/>
</clipPath>
</defs>
</svg>
